<svg xmlns="http://www.w3.org/2000/svg"  style="display: none;">

  <symbol id="Facebook" viewBox="0 0 45 45" enable-background="new 0 0 45 45" xml:space="preserve">
    <title>Facebook</title>
    	<path fill="#1A5EAB" d="M32.8,3v6.3H29c-1.4,0-2.3,0.3-2.8,0.9c-0.5,0.6-0.7,1.4-0.7,2.6v4.5h7l-0.9,7h-6v18.1h-7.3V24.2h-6.1v-7
    		h6.1V12c0-3,0.8-5.2,2.5-6.9c1.7-1.6,3.8-2.4,6.6-2.4C29.7,2.7,31.5,2.8,32.8,3z"/>
  </symbol>

  <symbol id="Twitter" viewBox="0 0 45 45" enable-background="new 0 0 45 45" xml:space="preserve">
    <title>Twitter</title>
    	<path fill="#1A5EAB" d="M41.3,10.9c-1.1,1.6-2.3,2.9-3.9,4c0,0.2,0,0.6,0,1c0,2.1-0.3,4.1-0.9,6.2s-1.5,4-2.8,5.9
    		c-1.2,1.9-2.7,3.6-4.4,5c-1.7,1.5-3.7,2.6-6.1,3.5c-2.4,0.9-5,1.3-7.7,1.3c-4.3,0-8.2-1.2-11.8-3.5c0.6,0.1,1.2,0.1,1.9,0.1
    		c3.6,0,6.8-1.1,9.5-3.3c-1.7,0-3.2-0.5-4.5-1.5c-1.3-1-2.2-2.3-2.7-3.8c0.5,0.1,1,0.1,1.5,0.1c0.7,0,1.4-0.1,2-0.3
    		C9.6,25.3,8.2,24.4,7,23s-1.8-3-1.8-4.9V18c1.1,0.6,2.2,0.9,3.5,1c-1-0.7-1.9-1.6-2.5-2.7s-0.9-2.3-0.9-3.7c0-1.4,0.3-2.7,1-3.9
    		c1.9,2.4,4.3,4.3,7,5.7s5.7,2.2,8.8,2.4C22.1,16.1,22,15.5,22,15c0-2.1,0.8-3.9,2.3-5.4c1.5-1.5,3.3-2.3,5.4-2.3
    		c2.2,0,4.1,0.8,5.6,2.4c1.7-0.3,3.4-1,4.9-1.9c-0.6,1.8-1.7,3.2-3.4,4.2C38.3,11.9,39.8,11.5,41.3,10.9z"/>
  </symbol>

  <symbol id="Instagram" viewBox="0 0 45 45" enable-background="new 0 0 45 45" xml:space="preserve">
    <title>Instagram</title>
    <path fill="#1A5EAB" d="M36.6,35.1V19.7h-3.2c0.3,1,0.5,2,0.5,3.1c0,2-0.5,3.8-1.5,5.5s-2.4,3-4.1,4c-1.7,1-3.7,1.5-5.7,1.5
      c-3.1,0-5.8-1.1-8-3.2s-3.3-4.8-3.3-7.8c0-1.1,0.2-2.1,0.5-3.1H8.3v15.4c0,0.4,0.1,0.8,0.4,1c0.3,0.3,0.6,0.4,1,0.4h25.5
      c0.4,0,0.7-0.1,1-0.4C36.5,35.9,36.6,35.5,36.6,35.1z M29.9,22.4c0-2-0.7-3.6-2.2-5s-3.2-2.1-5.2-2.1c-2,0-3.7,0.7-5.2,2.1
      s-2.2,3.1-2.2,5s0.7,3.6,2.2,5c1.4,1.4,3.2,2.1,5.2,2.1c2,0,3.8-0.7,5.2-2.1C29.2,26.1,29.9,24.4,29.9,22.4z M36.6,13.9V9.9
      c0-0.4-0.2-0.8-0.5-1.2c-0.3-0.3-0.7-0.5-1.2-0.5h-4.1c-0.5,0-0.8,0.2-1.2,0.5c-0.3,0.3-0.5,0.7-0.5,1.2v3.9c0,0.5,0.2,0.8,0.5,1.2
      c0.3,0.3,0.7,0.5,1.2,0.5H35c0.5,0,0.8-0.2,1.2-0.5C36.5,14.7,36.6,14.3,36.6,13.9z M40.8,8.9v27.2c0,1.3-0.5,2.4-1.4,3.3
      c-0.9,0.9-2,1.4-3.3,1.4H8.9c-1.3,0-2.4-0.5-3.3-1.4c-0.9-0.9-1.4-2-1.4-3.3V8.9c0-1.3,0.5-2.4,1.4-3.3s2-1.4,3.3-1.4h27.2
      c1.3,0,2.4,0.5,3.3,1.4C40.3,6.5,40.8,7.6,40.8,8.9z"/>
  </symbol>

  <symbol id="LinkedIn" viewBox="0 0 45 45" enable-background="new 0 0 45 45" xml:space="preserve">
    <title>LinkedIn</title>
    <path fill="#1A5EAB" d="M12.5,15.7v23.6H4.7V15.7H12.5z M13,8.4c0,1.2-0.4,2.1-1.2,2.9c-0.8,0.8-1.9,1.2-3.2,1.2h0
  		c-1.3,0-2.3-0.4-3.1-1.2S4.2,9.6,4.2,8.4c0-1.2,0.4-2.1,1.2-2.9s1.9-1.2,3.2-1.2s2.4,0.4,3.2,1.2S13,7.3,13,8.4z M40.8,25.8v13.5
  		H33V26.7c0-1.7-0.3-3-1-3.9s-1.6-1.4-3-1.4c-1,0-1.8,0.3-2.5,0.8c-0.7,0.5-1.2,1.2-1.5,2c-0.2,0.5-0.3,1.1-0.3,1.9v13.2h-7.8
  		c0-6.3,0-11.5,0-15.4s0-6.3,0-7l0-1.1h7.8v3.4h0c0.3-0.5,0.6-1,1-1.3c0.3-0.4,0.8-0.8,1.3-1.2c0.6-0.4,1.3-0.8,2.1-1
  		s1.7-0.4,2.7-0.4c2.7,0,4.9,0.9,6.5,2.7C40,19.7,40.8,22.3,40.8,25.8z"/>
  </symbol>

  <symbol id="YouTube" viewBox="0 0 45 45" enable-background="new 0 0 45 45" xml:space="preserve">
    <title>YouTube</title>
    <path fill="#1A5EAB" d="M27,30.2v4.7c0,1-0.3,1.5-0.9,1.5c-0.3,0-0.7-0.2-1-0.5v-6.7c0.3-0.3,0.7-0.5,1-0.5
      C26.7,28.7,27,29.2,27,30.2z M34.5,30.2v1h-2v-1c0-1,0.3-1.5,1-1.5C34.1,28.7,34.5,29.2,34.5,30.2z M13.1,25.4h2.4v-2.1H8.6v2.1
      h2.3V38h2.2V25.4z M19.5,38h2V27.1h-2v8.4c-0.4,0.6-0.9,0.9-1.3,0.9c-0.3,0-0.4-0.2-0.5-0.5c0,0,0-0.3,0-0.8v-8h-2v8.6
      c0,0.7,0.1,1.3,0.2,1.6c0.2,0.5,0.6,0.8,1.3,0.8c0.7,0,1.5-0.4,2.3-1.3V38z M29,34.7v-4.4c0-1.1-0.1-1.8-0.2-2.2
      c-0.3-0.8-0.8-1.2-1.6-1.2c-0.7,0-1.4,0.4-2.1,1.2v-4.8h-2V38h2v-1.1c0.7,0.8,1.3,1.2,2.1,1.2c0.8,0,1.3-0.4,1.6-1.2
      C28.9,36.5,29,35.8,29,34.7z M36.4,34.5v-0.3h-2c0,0.8,0,1.2,0,1.3c-0.1,0.5-0.4,0.8-0.9,0.8c-0.7,0-1-0.5-1-1.5v-1.9h4v-2.3
      c0-1.2-0.2-2-0.6-2.6c-0.6-0.8-1.4-1.1-2.3-1.1c-1,0-1.8,0.4-2.4,1.1c-0.4,0.5-0.6,1.4-0.6,2.6v3.8c0,1.2,0.2,2,0.6,2.6
      c0.6,0.8,1.4,1.1,2.4,1.1c1.1,0,1.9-0.4,2.4-1.2c0.3-0.4,0.4-0.8,0.5-1.2C36.4,35.6,36.4,35.2,36.4,34.5z M23,14.3V9.7
      c0-1-0.3-1.5-1-1.5s-1,0.5-1,1.5v4.6c0,1,0.3,1.5,1,1.5S23,15.3,23,14.3z M38.9,30.9c0,3.4-0.2,6-0.6,7.7c-0.2,0.9-0.6,1.6-1.3,2.2
      c-0.6,0.6-1.4,0.9-2.3,1c-2.7,0.3-6.8,0.5-12.3,0.5s-9.6-0.2-12.3-0.5c-0.9-0.1-1.6-0.4-2.3-1c-0.7-0.6-1.1-1.3-1.3-2.2
      c-0.4-1.7-0.6-4.2-0.6-7.7c0-3.4,0.2-6,0.6-7.7C6.9,22.3,7.3,21.6,8,21c0.6-0.6,1.4-0.9,2.3-1c2.7-0.3,6.8-0.4,12.2-0.4
      s9.6,0.1,12.3,0.4c0.9,0.1,1.6,0.4,2.3,1c0.7,0.6,1.1,1.3,1.3,2.2C38.7,24.8,38.9,27.4,38.9,30.9z M16.8,2.7h2.3l-2.7,8.8v6h-2.2
      v-6c-0.2-1.1-0.7-2.7-1.3-4.7c-0.5-1.5-1-2.9-1.4-4.1h2.3l1.6,5.8L16.8,2.7z M25,10.1v3.9c0,1.2-0.2,2.1-0.6,2.6
      c-0.5,0.8-1.3,1.1-2.3,1.1c-1,0-1.8-0.4-2.3-1.1c-0.4-0.6-0.6-1.4-0.6-2.6v-3.9c0-1.2,0.2-2,0.6-2.6C20.3,6.7,21,6.3,22,6.3
      c1,0,1.8,0.4,2.3,1.1C24.8,8,25,8.9,25,10.1z M32.4,6.5v11h-2v-1.2c-0.8,0.9-1.5,1.4-2.3,1.4c-0.7,0-1.1-0.3-1.3-0.8
      c-0.1-0.4-0.2-0.9-0.2-1.7V6.5h2v8.1c0,0.5,0,0.7,0,0.8c0,0.3,0.2,0.5,0.5,0.5c0.4,0,0.8-0.3,1.3-1V6.5H32.4z"/>
</symbol>

  <symbol id="Flickr" viewBox="0 0 45 45" enable-background="new 0 0 45 45" xml:space="preserve">
    <title>Flickr</title>
    <path fill="#1A5EAB" d="M33.9,4.2c1.9,0,3.5,0.7,4.8,2s2,3,2,4.8v22.9c0,1.9-0.7,3.5-2,4.8c-1.3,1.3-3,2-4.8,2H11.1
      c-1.9,0-3.5-0.7-4.8-2c-1.3-1.3-2-3-2-4.8V11.1c0-1.9,0.7-3.5,2-4.8s3-2,4.8-2H33.9z M20.8,22.5c0-1.4-0.5-2.6-1.5-3.6
      c-1-1-2.2-1.5-3.6-1.5s-2.6,0.5-3.6,1.5s-1.5,2.2-1.5,3.6c0,1.4,0.5,2.6,1.5,3.6c1,1,2.2,1.5,3.6,1.5s2.6-0.5,3.6-1.5
      C20.3,25.1,20.8,23.9,20.8,22.5z M34.3,22.5c0-1.4-0.5-2.6-1.5-3.6c-1-1-2.2-1.5-3.6-1.5c-1.4,0-2.6,0.5-3.6,1.5
      c-1,1-1.5,2.2-1.5,3.6c0,1.4,0.5,2.6,1.5,3.6c1,1,2.2,1.5,3.6,1.5c1.4,0,2.6-0.5,3.6-1.5C33.8,25.1,34.3,23.9,34.3,22.5z"/>
  </symbol>

  <symbol id="lightbulb" viewBox="0 0 356.8 376.8" xml:space="preserve">
    <title>Lightbulb</title>
    <path d="M324.8,167.1a104.38,104.38,0,0,0-164.2,126h0l0.4,0.7c0,0.1.1,0.1,0.1,0.2l44.5,77h0a53.42,53.42,0,0,0,8.5,11.2,52.15,52.15,0,0,0,73.8,0,50.21,50.21,0,0,0,8.5-11.2h0l45-77.9h0A104.35,104.35,0,0,0,324.8,167.1Z" transform="translate(-72.6 -62.6)" style="fill:#07a7e0"/><rect class="line" x="161.2" y="197.7" width="34.4" height="123.9" style="fill:#57b4e2"/><polygon points="124.2 293.3 124.2 343.2 157.8 376.8 199 376.8 232.6 343.2 232.6 293.3 124.2 293.3" style="fill:#1c60ab"/><line x1="178.4" y1="51" x2="178.4" style="fill:none;stroke:#1c60ab;stroke-miterlimit:10;stroke-width:22.944700241088867px"/><line x1="51.1" y1="178.1" y2="178.1" style="fill:none;stroke:#1c60ab;stroke-miterlimit:10;stroke-width:22.944700241088867px"/><line x1="305.7" y1="178.1" x2="356.8" y2="178.1" style="fill:none;stroke:#1c60ab;stroke-miterlimit:10;stroke-width:22.944700241088867px"/><line x1="271.6" y1="85.1" x2="307.7" y2="49" style="fill:none;stroke:#1c60ab;stroke-miterlimit:10;stroke-width:22.944700241088867px"/><line x1="85.2" y1="85.1" x2="49.1" y2="49" style="fill:none;stroke:#1c60ab;stroke-miterlimit:10;stroke-width:22.944700241088867px"/>
    </symbol>

  <symbol id="envelope" viewBox="0 0 35.5 21.9" xml:space="preserve">
      <title>Contact Us</title>
      <style type="text/css">
      	.st0{fill:none;stroke:#1E5FAB;stroke-width:2.5;stroke-miterlimit:10;}
      </style>
      <rect x="1.2" y="1.2" class="st0" width="33" height="19.4"/>
      <polyline class="st0" points="1.2,1.2 17.8,9.9 34.2,1.2 "/>
  </symbol>

</svg>
