<?xml version="1.0" encoding="utf-8"?>
<!-- Generator: Adobe Illustrator 18.0.0, SVG Export Plug-In . SVG Version: 6.00 Build 0)  -->
<!DOCTYPE svg PUBLIC "-//W3C//DTD SVG 1.1//EN" "http://www.w3.org/Graphics/SVG/1.1/DTD/svg11.dtd">
<svg version="1.1" id="Layer_1" xmlns="http://www.w3.org/2000/svg" xmlns:xlink="http://www.w3.org/1999/xlink" x="0px" y="0px"
	 viewBox="0 0 415 212" style="enable-background:new 0 0 415 212;" xml:space="preserve">
<style type="text/css">
	.st0{fill:#4D4D4F;}
	.st1{fill:#FFFFFF;}
	.st2{fill:#4D4D4F;stroke:#003DA6;stroke-width:0.6736;stroke-miterlimit:3.8637;}
	.st3{fill:#4E4E50;}
</style>
<path class="st0" d="M121.4,130.6c-12.3,0-24.2,0-36.3,0C79,120,72.8,109.4,66.6,98.7c3.3-5.7,6.6-11.5,10-17.6
	c9.4,16.3,18.6,32.4,28.1,48.9c0-15.2,0-29.8,0-44.5c7.5,0,14.8,0,22.3,0c3.3,7.3,6.7,14.6,10.1,22.3c3.5-7.6,6.9-14.9,10.3-22.3
	c7.5,0,14.9,0,22.4,0c0,15,0,30,0,45c-5.4,0-10.8,0-16.2,0c0-6.5,0-12.9,0-19.3c-0.1,0-0.3-0.1-0.4-0.1c-3.1,6.6-6.1,13.1-9.2,19.7
	c-4.5,0-8.9,0-13.5,0c-2.9-6.4-5.9-13-9.2-20.2C121.4,117.8,121.4,124.1,121.4,130.6z"/>
<path class="st0" d="M216.3,117.7c0,4.4,0,8.6,0,12.9c-13.8,0-27.4,0-41.2,0c0-14.9,0-29.9,0-45c13.6,0,27.3,0,41.2,0
	c0,3.9,0,7.9,0,12.1c-8.1,0-16.3-0.1-24.4-0.1c-0.1,1-0.1,2-0.1,3.1c8.1,0,16.3,0,24.5,0c0,4,0,7.7,0,11.7c-8.1,0-16.2,0-24.4,0
	c0,1.8,0,3.5,0,5.3C200,117.7,208,117.7,216.3,117.7z"/>
<path class="st0" d="M270.5,85.5c13.8,0,27.4,0,41.3,0c0,4,0,8,0,12.1c-8.1,0-16.4,0-24.6,0c0,1.2,0.1,2,0,3c8.1,0,16.3,0,24.5,0
	c0,4,0,7.8,0,11.7c-8.2,0-16.3,0-24.5,0c0,1.8,0,3.6,0,5.4c8.2,0,16.3,0,24.6,0c0,4.3,0,8.5,0,12.7c-13.8,0-27.5,0-41.3,0
	C270.5,115.6,270.5,100.6,270.5,85.5z"/>
<path class="st0" d="M333.7,130.6c-5.8,0-11.4,0-17.2,0c0-15,0-30,0-45.1c5.7,0,11.3,0,17.2,0c0,3.9,0,7.8,0,12.2
	c4-4.3,7.6-8.3,11.1-12.2c6.1,0,12.2,0,18.6,0c-5.6,6.1-10.9,12.1-16.4,18.1c6.1,9,12.1,17.9,18.3,27c-7.1,0-13.9,0-20.9,0
	c-2.9-4.8-5.8-9.7-8.9-14.8c-0.6,0.8-1.2,1.4-1.8,2.1C333.7,122,333.7,126.2,333.7,130.6z"/>
<path class="st0" d="M219.3,97.7c0-4.3,0-8.2,0-12.2c16,0,32,0,48,0c0,4,0,7.9,0,12.1c-5.2,0-10.4,0-15.8,0c0,11.1,0,22,0,33
	c-5.6,0-11,0-16.6,0c0-10.9,0-21.8,0-32.8C229.7,97.7,224.5,97.7,219.3,97.7z"/>
<path class="st0" d="M67,130.6c-5.7,0-11.3,0-17.2,0c2.9-5.2,5.8-10.3,8.6-15.4c5.8,0,11.5,0,17.5,0C72.8,120.4,69.9,125.5,67,130.6
	z"/>
</svg>
