<?xml version="1.0" encoding="utf-8"?>
<!-- Generator: Adobe Illustrator 18.0.0, SVG Export Plug-In . SVG Version: 6.00 Build 0)  -->
<!DOCTYPE svg PUBLIC "-//W3C//DTD SVG 1.1//EN" "http://www.w3.org/Graphics/SVG/1.1/DTD/svg11.dtd">
<svg version="1.1" id="Layer_1" xmlns="http://www.w3.org/2000/svg" xmlns:xlink="http://www.w3.org/1999/xlink" x="0px" y="0px"
	 viewBox="0 0 45 45" enable-background="new 0 0 45 45" xml:space="preserve">
<g>
	<path fill="#1A5EAB" d="M33.9,4.2c1.9,0,3.5,0.7,4.8,2s2,3,2,4.8v22.9c0,1.9-0.7,3.5-2,4.8c-1.3,1.3-3,2-4.8,2H11.1
		c-1.9,0-3.5-0.7-4.8-2c-1.3-1.3-2-3-2-4.8V11.1c0-1.9,0.7-3.5,2-4.8s3-2,4.8-2H33.9z M20.8,22.5c0-1.4-0.5-2.6-1.5-3.6
		c-1-1-2.2-1.5-3.6-1.5s-2.6,0.5-3.6,1.5s-1.5,2.2-1.5,3.6c0,1.4,0.5,2.6,1.5,3.6c1,1,2.2,1.5,3.6,1.5s2.6-0.5,3.6-1.5
		C20.3,25.1,20.8,23.9,20.8,22.5z M34.3,22.5c0-1.4-0.5-2.6-1.5-3.6c-1-1-2.2-1.5-3.6-1.5c-1.4,0-2.6,0.5-3.6,1.5
		c-1,1-1.5,2.2-1.5,3.6c0,1.4,0.5,2.6,1.5,3.6c1,1,2.2,1.5,3.6,1.5c1.4,0,2.6-0.5,3.6-1.5C33.8,25.1,34.3,23.9,34.3,22.5z"/>
</g>
</svg>
