<?xml version="1.0" encoding="utf-8"?>
<!-- Generator: Adobe Illustrator 18.0.0, SVG Export Plug-In . SVG Version: 6.00 Build 0)  -->
<!DOCTYPE svg PUBLIC "-//W3C//DTD SVG 1.1//EN" "http://www.w3.org/Graphics/SVG/1.1/DTD/svg11.dtd">
<svg version="1.1" id="Layer_1" xmlns="http://www.w3.org/2000/svg" xmlns:xlink="http://www.w3.org/1999/xlink" x="0px" y="0px"
	 viewBox="0 0 502 502" enable-background="new 0 0 502 502" xml:space="preserve">
<g>
	<circle fill="#FFFFFF" cx="251" cy="273.6" r="120.7"/>
	<path fill="#007ABE" d="M265.3,165.7h-28.6c-8.1,0-14.7-6.6-14.7-14.7v-28.6c0-8.1,6.6-14.7,14.7-14.7h28.6
		c8.1,0,14.7,6.6,14.7,14.7V151C280,159.1,273.4,165.7,265.3,165.7z"/>
	<line fill="none" stroke="#007ABE" stroke-width="23.4743" stroke-miterlimit="10" x1="251" y1="152.9" x2="251" y2="187.8"/>
	<polygon fill="#07A7E0" points="212.2,273.6 251,206.5 289.8,273.6 	"/>
	<polygon fill="#57B4E2" points="289.8,273.6 251,340.7 212.2,273.6 	"/>
	<line fill="none" stroke="#007ABE" stroke-width="23.4743" stroke-miterlimit="10" x1="251" y1="359.5" x2="251" y2="394.3"/>
	<line fill="none" stroke="#007ABE" stroke-width="23.4743" stroke-miterlimit="10" x1="130.3" y1="273.6" x2="165.1" y2="273.6"/>
	<line fill="none" stroke="#007ABE" stroke-width="23.4743" stroke-miterlimit="10" x1="336.9" y1="273.6" x2="371.7" y2="273.6"/>
	<circle fill="none" stroke="#1C60AB" stroke-width="29.8764" stroke-miterlimit="10" cx="251" cy="273.6" r="120.7"/>
</g>
</svg>
