<?xml version="1.0" encoding="utf-8"?>
<!-- Generator: Adobe Illustrator 18.0.0, SVG Export Plug-In . SVG Version: 6.00 Build 0)  -->
<!DOCTYPE svg PUBLIC "-//W3C//DTD SVG 1.1//EN" "http://www.w3.org/Graphics/SVG/1.1/DTD/svg11.dtd">
<svg version="1.1" id="Layer_1" xmlns="http://www.w3.org/2000/svg" xmlns:xlink="http://www.w3.org/1999/xlink" x="0px" y="0px"
	 viewBox="0 0 502 502" enable-background="new 0 0 502 502" xml:space="preserve">
<g>
	<rect x="26.4" y="219.6" fill="#07A7E0" width="475.4" height="62.8"/>
	<path fill="#1C60AB" d="M21.4,332.8c0,51.3,52.6,54.1,52.6,54.1V251V115.1c0,0-52.6,2.8-52.6,54.1c0,59.1-21.2,42.9-21.2,81.8
		C0.2,289.8,21.4,273.7,21.4,332.8z"/>
	<line fill="none" stroke="#FFFFFF" stroke-width="15.5942" stroke-miterlimit="10" x1="397.9" y1="250.3" x2="397.9" y2="219.6"/>
	<line fill="none" stroke="#FFFFFF" stroke-width="15.5942" stroke-miterlimit="10" x1="453.6" y1="250.3" x2="453.6" y2="219.6"/>
	<line fill="none" stroke="#FFFFFF" stroke-width="15.5942" stroke-miterlimit="10" x1="342.2" y1="250.3" x2="342.2" y2="219.6"/>
	<line fill="none" stroke="#FFFFFF" stroke-width="15.5942" stroke-miterlimit="10" x1="286.5" y1="250.3" x2="286.5" y2="219.6"/>
	<line fill="none" stroke="#FFFFFF" stroke-width="15.5942" stroke-miterlimit="10" x1="230.8" y1="250.3" x2="230.8" y2="219.6"/>
	<line fill="none" stroke="#FFFFFF" stroke-width="15.5942" stroke-miterlimit="10" x1="175.1" y1="250.3" x2="175.1" y2="219.6"/>
	<line fill="none" stroke="#FFFFFF" stroke-width="15.5942" stroke-miterlimit="10" x1="119.4" y1="250.3" x2="119.4" y2="219.6"/>
</g>
</svg>
