<?xml version="1.0" encoding="utf-8"?>
<!-- Generator: Adobe Illustrator 18.0.0, SVG Export Plug-In . SVG Version: 6.00 Build 0)  -->
<!DOCTYPE svg PUBLIC "-//W3C//DTD SVG 1.1//EN" "http://www.w3.org/Graphics/SVG/1.1/DTD/svg11.dtd">
<svg version="1.1" id="Layer_1" xmlns="http://www.w3.org/2000/svg" xmlns:xlink="http://www.w3.org/1999/xlink" x="0px" y="0px"
	 viewBox="0 0 502 502" enable-background="new 0 0 502 502" xml:space="preserve">
<g>
	<g>
		<path fill="#1C60AB" d="M342.5,458.5H123.8c-22.1,0-40-17.9-40-40V52.7c0-22.1,17.9-40,40-40h218.7c22.1,0,40,17.9,40,40v365.8
			C382.5,440.6,364.6,458.5,342.5,458.5z"/>
		<rect x="107.8" y="73.9" fill="#07A7E0" width="250.7" height="323.4"/>
		<polygon fill="#57B4E2" points="165.1,397.3 107.8,397.3 255.2,73.9 312.5,73.9 		"/>
		<path fill="#FFFFFF" d="M245.8,419.4c8.8,14.9-6.6,30.4-21.6,21.6c-1.5-0.9-2.8-2.2-3.7-3.7c-8.8-14.9,6.6-30.4,21.6-21.6
			C243.6,416.6,244.9,417.9,245.8,419.4z"/>
	</g>
	<g>
		<path fill="#1C60AB" d="M390.5,489.3h-99.6c-15.3,0-27.7-12.4-27.7-27.7V228.8c0-15.3,12.4-27.7,27.7-27.7h99.6
			c15.3,0,27.7,12.4,27.7,27.7v232.7C418.2,476.9,405.8,489.3,390.5,489.3z"/>
		<rect x="279.5" y="253.6" fill="#07A7E0" width="122.3" height="183.2"/>
		<path fill="#FFFFFF" d="M353.3,454.5c8.8,14.9-6.6,30.4-21.6,21.6c-1.5-0.9-2.8-2.2-3.7-3.7c-8.8-14.9,6.6-30.4,21.6-21.6
			C351.1,451.7,352.4,452.9,353.3,454.5z"/>
		<polygon fill="#57B4E2" points="319.3,436.8 279.5,436.8 362,253.6 401.8,253.6 		"/>
	</g>
</g>
</svg>
