<?xml version="1.0" encoding="utf-8"?>
<!-- Generator: Adobe Illustrator 18.0.0, SVG Export Plug-In . SVG Version: 6.00 Build 0)  -->
<!DOCTYPE svg PUBLIC "-//W3C//DTD SVG 1.1//EN" "http://www.w3.org/Graphics/SVG/1.1/DTD/svg11.dtd">
<svg version="1.1" id="Layer_1" xmlns="http://www.w3.org/2000/svg" xmlns:xlink="http://www.w3.org/1999/xlink" x="0px" y="0px"
	 viewBox="0 0 502 502" enable-background="new 0 0 502 502" xml:space="preserve">
<g>
	<path fill="#07A7E0" d="M324.8,167.1c-40.8-40.8-106.9-40.8-147.6,0c-34.2,34.2-39.7,86.1-16.6,126l0,0l0.4,0.7
		c0,0.1,0.1,0.1,0.1,0.2l44.5,77l0,0c2.3,4,5.1,7.8,8.5,11.2c20.4,20.4,53.4,20.4,73.8,0c3.4-3.4,6.3-7.2,8.5-11.2l0,0l45-77.9l0,0
		C364.5,253.3,359,201.3,324.8,167.1z"/>
	<rect x="233.8" y="260.3" fill="#57B4E2" width="34.4" height="123.9"/>
	<polygon fill="#1C60AB" points="196.8,355.9 196.8,405.8 230.4,439.4 271.6,439.4 305.2,405.8 305.2,355.9 	"/>
	<line fill="none" stroke="#1C60AB" stroke-width="22.9447" stroke-miterlimit="10" x1="251" y1="113.6" x2="251" y2="62.6"/>
	<line fill="none" stroke="#1C60AB" stroke-width="22.9447" stroke-miterlimit="10" x1="123.7" y1="240.7" x2="72.6" y2="240.7"/>
	<line fill="none" stroke="#1C60AB" stroke-width="22.9447" stroke-miterlimit="10" x1="378.3" y1="240.7" x2="429.4" y2="240.7"/>
	<line fill="none" stroke="#1C60AB" stroke-width="22.9447" stroke-miterlimit="10" x1="344.2" y1="147.7" x2="380.3" y2="111.6"/>
	<line fill="none" stroke="#1C60AB" stroke-width="22.9447" stroke-miterlimit="10" x1="157.8" y1="147.7" x2="121.7" y2="111.6"/>
</g>
</svg>
