<?xml version="1.0" encoding="utf-8"?>
<!-- Generator: Adobe Illustrator 18.0.0, SVG Export Plug-In . SVG Version: 6.00 Build 0)  -->
<!DOCTYPE svg PUBLIC "-//W3C//DTD SVG 1.1//EN" "http://www.w3.org/Graphics/SVG/1.1/DTD/svg11.dtd">
<svg version="1.1" id="Layer_1" xmlns="http://www.w3.org/2000/svg" xmlns:xlink="http://www.w3.org/1999/xlink" x="0px" y="0px"
	 viewBox="0 0 45 45" enable-background="new 0 0 45 45" xml:space="preserve">
<g>
	<path fill="#1A5EAB" d="M12.5,15.7v23.6H4.7V15.7H12.5z M13,8.4c0,1.2-0.4,2.1-1.2,2.9c-0.8,0.8-1.9,1.2-3.2,1.2h0
		c-1.3,0-2.3-0.4-3.1-1.2S4.2,9.6,4.2,8.4c0-1.2,0.4-2.1,1.2-2.9s1.9-1.2,3.2-1.2s2.4,0.4,3.2,1.2S13,7.3,13,8.4z M40.8,25.8v13.5
		H33V26.7c0-1.7-0.3-3-1-3.9s-1.6-1.4-3-1.4c-1,0-1.8,0.3-2.5,0.8c-0.7,0.5-1.2,1.2-1.5,2c-0.2,0.5-0.3,1.1-0.3,1.9v13.2h-7.8
		c0-6.3,0-11.5,0-15.4s0-6.3,0-7l0-1.1h7.8v3.4h0c0.3-0.5,0.6-1,1-1.3c0.3-0.4,0.8-0.8,1.3-1.2c0.6-0.4,1.3-0.8,2.1-1
		s1.7-0.4,2.7-0.4c2.7,0,4.9,0.9,6.5,2.7C40,19.7,40.8,22.3,40.8,25.8z"/>
</g>
</svg>
