<?xml version="1.0" encoding="utf-8"?>
<!-- Generator: Adobe Illustrator 18.0.0, SVG Export Plug-In . SVG Version: 6.00 Build 0)  -->
<!DOCTYPE svg PUBLIC "-//W3C//DTD SVG 1.1//EN" "http://www.w3.org/Graphics/SVG/1.1/DTD/svg11.dtd">
<svg version="1.1" id="Layer_1" xmlns="http://www.w3.org/2000/svg" xmlns:xlink="http://www.w3.org/1999/xlink" x="0px" y="0px"
	 viewBox="0 0 415 212" style="enable-background:new 0 0 415 212;" xml:space="preserve">
<style type="text/css">
	.st0{fill:#4D4D4F;}
	.st1{fill:#FFFFFF;}
	.st2{fill:#4D4D4F;stroke:#003DA6;stroke-width:0.6736;stroke-miterlimit:3.8637;}
	.st3{fill:#4E4E50;}
</style>
<g>
	<g>
		<path class="st0" d="M2,136.5c7.4,2.3,14.8,4.6,22.3,6.9c0.2,0.1,0.5,0.1,0.7,0.1c0,0,0.1,0,0,0c0.1,0,0,0,0,0
			c-1.1-0.8-2.2-1.7-3.4-2.5c-3.4-2.4-6.8-4.8-10.1-7.3c-0.2-0.1-0.4-0.3-0.5-0.6c6.3,3.5,12.5,7.1,18.6,10.9l0,0
			c-0.9-1.2-1.8-2.4-2.7-3.7c-2.3-3.1-4.6-6.1-7-9.2c-0.2-0.2-0.3-0.4-0.4-0.6c0,0,0.1-0.1,0.1-0.1c0.1,0.1,0.3,0.2,0.4,0.3
			c2,2.1,3.9,4.1,5.9,6.2c2.1,2.3,4.2,4.5,6.2,6.9c1.2,1.4,2.3,2.9,2.9,4.8c0.7-2.2,2-3.7,3.3-5.3c0.9-1.1,1.9-2.2,2.9-3.2
			c2.9-3.1,5.8-6.2,8.8-9.3c0.1-0.2,0.3-0.3,0.6-0.3c-1.5,2.4-3.2,4.6-4.9,6.8c-1.7,2.3-3.4,4.5-5.1,6.8l0,0c1.7-1,3.3-2,5-3
			c4.3-2.5,8.6-5.1,12.8-7.6c0.2-0.1,0.5-0.2,0.8-0.3c-4.5,3.6-9.3,6.8-14,10.3c7.6-2.3,15.2-4.7,22.9-7c0,0.1,0.1,0.2,0.1,0.3
			c-0.2,0.1-0.3,0.2-0.5,0.3c-5.6,2.2-11.1,4.4-16.7,6.5c-2.3,0.9-4.5,1.8-6.9,2.6c-1.7,0.6-3.5,1.1-5.3,1.5
			c-1.8,0.4-2.9,1.4-3.4,3.2c0,0.2-0.1,0.3-0.3,0.6c-0.2-0.4-0.3-0.6-0.3-0.8c-0.4-1.7-1.4-2.6-3.1-3c-5.4-1.3-10.5-3.5-15.6-5.5
			c-4.5-1.7-8.9-3.5-13.4-5.2C2.5,137,2.3,137,2,136.9C2,136.8,2,136.6,2,136.5z"/>
		<path class="st0" d="M44.4,60.4c0,1.7,0.9,2.9,1.9,4.1c1.4,1.7,2.9,3.2,4,5.1c1.8,3.1,2.5,6.3,1.3,9.7c-0.4,1.1-1,2.1-1.5,3.2
			c-0.1,0-0.1-0.1-0.2-0.1c0.1-0.9,0.3-1.7,0.4-2.6c0.2-1.3-0.1-2.5-0.4-3.8c-0.6-2.1-1.9-3.9-3.2-5.7c-0.9-1.3-1.9-2.5-2.7-3.8
			c-1.3-1.9-1.4-3.9-0.1-5.9c0-0.1,0.1-0.2,0.1-0.2C44.3,60.4,44.3,60.4,44.4,60.4z"/>
		<path class="st0" d="M81,120.2c0-0.7,0-1.2,0-1.9c108.3,0,216.5,0,324.7,0c0,0.6,0,1.2,0,1.9C297.5,120.2,189.3,120.2,81,120.2z"
			/>
		<path class="st0" d="M321,107.9c-2.9,0-5.8-0.4-8.5-1.5c-5-2-8-5.7-9.2-10.9c-0.9-4-0.7-8,1.1-11.8c2.1-4.5,5.5-7.5,10.2-8.9
			c5.5-1.7,11-1.5,16.3,1c4.8,2.3,7.5,6.3,8.4,11.4c0.7,3.7,0.4,7.4-1.3,10.9c-2.6,5.4-7.1,8.4-12.9,9.5c-0.3,0.1-0.6,0.1-0.8,0.1
			C323.2,107.8,322.1,107.9,321,107.9z M320.8,104.9c2.1,0.1,4-0.5,5.6-1.7c2.2-1.6,3.5-3.9,4.2-6.5c1-3.3,1.2-6.7,0.6-10.1
			c-0.4-2.9-1.6-5.5-3.7-7.6c-2.8-2.7-8.2-3.1-11.2-1c-1.8,1.3-3.2,3-4,5.1c-1.9,4.8-2,9.7-0.7,14.6
			C312.9,102.5,316.3,105,320.8,104.9z"/>
		<path class="st0" d="M86.2,84.4c-0.3,7.7-0.1,15.3,0.1,22.9c-1.5,0-2.9,0-4.4,0c0.2-5.5,0.4-11,0.7-16.5
			c0.2-5.5,0.1-10.9-0.1-16.4c1.5,0,3,0,4.5,0c6.7,7.4,13.6,14.9,20.5,22.5c0-7.6,0-15,0-22.5c1.3,0,2.7,0,4.2,0c0,0.8,0,1.5,0,2.3
			c-0.1,1.2-0.2,2.3-0.2,3.5c-0.1,1.7-0.1,3.4-0.2,5.1c-0.1,7.1-0.2,14.2-0.3,21.3c0,0.2-0.1,0.5-0.1,0.8c-0.8,0-1.5,0-2.3,0
			c-1.7,0-1.7,0-2.8-1.4c-1.6-1.9-3.3-3.9-5-5.8c-2.2-2.4-4.4-4.9-6.6-7.3c-1-1.1-2-2.2-3.1-3.3c-1.4-1.5-2.9-3.1-4.3-4.6
			C86.6,84.8,86.5,84.6,86.2,84.4z"/>
		<path class="st0" d="M201.6,107.3c-2.4,0-4.7,0-7.2,0c0-0.7,0.1-1.4,0.1-2c0.1-1.4,0.2-2.8,0.2-4.1c0.1-2.4,0.1-4.8,0.1-7.2
			c0-1.3-0.1-2.6-0.6-3.9c-0.5-1.2-1.4-1.9-2.7-2.1c-1.5-0.2-2.9,0.2-3.6,1.6c-0.5,1-0.9,2.1-1,3.3c-0.4,3.6-0.1,7.2,0.1,10.9
			c0,1,0.1,2,0.1,3c0,0.2,0,0.3-0.1,0.6c-2.4,0-4.7,0-7.1,0c0.1-6,0.3-12,0.3-18c0-6-0.2-12-0.3-18c2.4,0,4.7,0,7.2,0
			c-0.1,5.4-0.3,10.8-0.4,16.2c0.1,0,0.1,0,0.2,0c0.2-0.3,0.5-0.6,0.7-0.9c1.6-1.9,3.6-3,6.1-3c1.7,0,3.4,0.2,4.8,1.2
			c1.4,1,2.2,2.4,2.6,4c0.5,2.1,0.5,4.2,0.4,6.3c-0.1,2.6-0.1,5.2-0.1,7.8c0,1.3,0.1,2.6,0.1,3.9C201.7,106.9,201.6,107,201.6,107.3
			z"/>
		<path class="st0" d="M365.5,107.3c-2.4,0-4.7,0-7.2,0c0-0.7,0.1-1.4,0.1-2c0.1-1.3,0.2-2.6,0.2-3.9c0.1-2.5,0.2-4.9,0.1-7.4
			c0-1.3-0.3-2.6-0.6-3.8c-0.4-1.3-1.3-2-2.7-2.2c-1.6-0.2-2.9,0.2-3.6,1.7c-0.5,1-0.8,2.1-0.9,3.2c-0.4,3.6-0.1,7.2,0.1,10.9
			c0,1,0.1,2,0.1,3c0,0.2,0,0.3-0.1,0.6c-2.4,0-4.7,0-7.1,0c0-0.2-0.1-0.4-0.1-0.6c0.5-11.8,0.5-23.6,0-35.5c2.5,0,4.8,0,7.3,0
			c-0.1,5.4-0.3,10.8-0.4,16.3c0.8-0.9,1.5-1.7,2.3-2.3c1.3-1.1,2.8-1.6,4.6-1.6c1.2,0,2.5,0,3.6,0.5c2.2,0.9,3.4,2.6,3.9,4.9
			c0.4,2.1,0.4,4.1,0.3,6.2c-0.1,2.6-0.1,5.2-0.1,7.8c0,1.2,0.1,2.5,0.1,3.7C365.6,106.8,365.5,107,365.5,107.3z"/>
		<path class="st0" d="M128.8,107.9c-2.4,0-4.7-0.4-6.8-1.6c-2.4-1.5-4-3.7-4.6-6.4c-0.9-4.1-0.5-8,2-11.6c2.1-3,5.1-4.5,8.8-4.7
			c1.9-0.1,3.8,0,5.7,0.7c3.6,1.4,5.7,4,6.5,7.7c0.7,3.1,0.5,6.2-0.8,9.2c-1.7,4.2-5.3,6.5-9.8,6.7
			C129.5,107.9,129.2,107.9,128.8,107.9z M124.3,96.2c0.1,0.9,0.1,1.9,0.2,2.9c0.2,1.7,0.5,3.3,1.4,4.8c1.4,2.2,4.7,2.3,5.9,0.1
			c0.5-0.9,0.9-1.8,1.1-2.7c0.7-3.1,0.8-6.2,0.5-9.4c-0.1-1.3-0.5-2.6-0.9-3.9c-1-2.5-4.1-2.9-5.6-1.3c-0.6,0.6-1.1,1.4-1.4,2.3
			C124.4,91.2,124.4,93.7,124.3,96.2z"/>
		<path class="st0" d="M394.9,107.9c-1.8,0.1-3.7-0.3-5.5-1.1c-2.6-1.1-4.5-3.1-5.3-5.8c-1.4-4.4-1.1-8.8,1.6-12.8
			c2.1-3.1,5.1-4.5,8.8-4.7c1.9-0.1,3.8,0,5.7,0.7c3.5,1.3,5.6,3.8,6.4,7.3c0.8,3.2,0.6,6.5-0.7,9.6c-1.7,4.2-5.3,6.5-9.8,6.7
			C395.7,107.9,395.4,107.9,394.9,107.9z M399.7,94.7c0-0.9,0-1.7-0.2-2.5c-0.2-1.4-0.5-2.8-1-4.1c-1.1-2.8-4.7-3-6.2-0.8
			c-0.7,1-1.1,2.1-1.3,3.3c-0.6,2.9-0.7,5.8-0.4,8.7c0.2,1.6,0.5,3.2,1.4,4.6c1.4,2.3,4.7,2.3,6,0c0.2-0.4,0.4-0.9,0.6-1.3
			C399.6,100,399.6,97.3,399.7,94.7z"/>
		<path class="st0" d="M242.8,104.9c-0.7,0.6-1.3,1.2-1.9,1.8c-1.1,0.8-2.3,1.2-3.7,1.2c-1.4,0-2.8,0-4.1-0.6
			c-2.6-1.2-3.6-3.9-3.4-6.3c0.3-2.7,1.8-4.5,4.3-5.4c1.9-0.7,3.9-1.1,5.9-1.7c0.6-0.2,1.2-0.5,1.8-0.7c0.5-0.3,0.8-0.7,0.9-1.3
			c0.3-2.5-1.5-4.5-4-4.5c-2.3-0.1-4.2,0.7-5.9,2.2c-0.1,0.1-0.3,0.2-0.6,0.4c-0.4-1-0.5-2-0.7-3.1c0.7-0.5,1.4-1,2.1-1.4
			c3.6-2,7.3-2.5,11.2-1.2c2.7,0.9,4.2,2.9,4.4,5.7c0.2,2.2,0,4.3,0,6.5c0,2.3,0,4.7,0,7c0,1.4,0.7,2,2,2.1c0.2,0,0.4,0.1,0.6,0.1
			c0,0.4,0,0.8,0,1.2c-1.4,0.7-2.9,1.2-4.6,1.2c-1.2,0-2.3-0.3-3.2-1.2C243.6,106.1,243.2,105.5,242.8,104.9z M242.7,95.1
			c-1.3,0.6-2.7,1.1-3.9,1.7c-0.4,0.2-0.8,0.6-1.2,1c-1.2,1.4-1.2,3.1-0.8,4.7c0.5,2.1,2.7,2.8,4.5,1.4c0.9-0.7,1.3-1.7,1.4-2.8
			c0.1-1.8,0.1-3.6,0.1-5.5C242.7,95.5,242.7,95.4,242.7,95.1z"/>
		<path class="st0" d="M226.8,95.8c-4.6,0-9.1,0-13.7,0c0,0.7,0.1,1.2,0.1,1.8c0.2,2.1,0.7,4,2.3,5.6c1,1,2.2,1.5,3.6,1.5
			c2.7,0,3.3-0.2,6.3-2.1c0.2,0.1,0.4,0.3,0.6,0.5c-0.4,0.9-0.7,1.8-1,2.6c-0.1,0.2-0.3,0.4-0.5,0.5c-1.4,0.9-2.9,1.5-4.5,1.6
			c-2.1,0.2-4.2,0.2-6.3-0.3c-3.6-1-6-3.3-7.1-6.8c-1.1-3.7-1-7.3,0.4-10.9c1.4-3.3,3.9-5.3,7.4-6c1.8-0.3,3.6-0.4,5.3,0
			c3.8,0.8,6,3.3,6.8,6.9c0.3,1.4,0.3,2.9,0.4,4.3C226.9,95.2,226.8,95.5,226.8,95.8z M220.3,93.7c-0.1-0.8,0-1.5-0.2-2.2
			c-0.2-1.3-0.5-2.6-0.9-3.9c-0.3-0.9-0.9-1.6-2-1.7c-1.1-0.1-2,0.3-2.6,1.2c-1,1.5-1.2,3.3-1.4,5c-0.1,0.5-0.1,1-0.1,1.6
			C215.5,93.7,217.8,93.7,220.3,93.7z"/>
		<path class="st0" d="M34.6,142c0.3-1,0.6-1.9,0.8-2.9c1-3.7,1.6-7.5,1.4-11.3c-0.3-6.1-2.5-11.4-6.7-15.8c-2-2.1-4.3-3.7-6.6-5.4
			c-1-0.8-2-1.7-2.9-2.6c-1.4-1.5-1.5-3.4-1.3-5.3c0.2-1.8,1.1-3.4,1.8-5.1c0.5-1.2,1.1-2.5,1.4-3.8c0.3-1.1,0.2-2.2,0.3-3.4
			c0.1,0.2,0.3,0.3,0.4,0.5c1.5,2.5,2.2,5.2,1.6,8.2c-0.1,0.5-0.2,1-0.2,1.6c0,1,0.4,1.8,1.2,2.5c4,3.3,7.4,7,10.1,11.5
			c2.3,3.7,3.7,7.8,4.2,12.1c0.5,4.8-0.3,9.4-2.2,13.8c-0.7,1.7-1.7,3.3-2.6,4.9c-0.2,0.3-0.4,0.5-0.6,0.8
			C34.7,142,34.6,142,34.6,142z"/>
		<path class="st0" d="M42.3,68.7c0.6,0.8,1.3,1.5,1.9,2.3c1.4,1.9,2.7,4,3.7,6.1c1.4,3,1,5.8-0.7,8.4c-1.2,1.9-2.7,3.4-4.4,4.8
			c-2.2,1.7-4.4,3.5-6.4,5.4c-1.5,1.5-2.7,3.2-4,4.9c-0.2,0.2-0.3,0.4-0.5,0.7c-1.2-1.2-2.4-2.4-3.6-3.6c0.3-0.6,0.5-1.2,0.8-1.8
			c2.3-4.7,5.1-9.1,8.3-13.3c1.1-1.4,2.2-2.7,3.2-4.1c1.3-1.6,1.9-3.3,2.1-5.3c0.2-1.5-0.1-3-0.6-4.5C42.2,68.8,42.2,68.8,42.3,68.7
			z"/>
		<path class="st0" d="M276,87.1c-1.1,0-2.2,0-3.2,0c0-0.9,0-1.7,0-2.6c1.1,0,2.1,0,3.3,0c-0.1-1.9-0.1-3.8-0.2-5.8
			c2.2-1,4.4-2,6.5-3c0.5,0.1,0.6,0.5,0.6,0.8c-0.1,1.8-0.2,3.6-0.3,5.4c0,0.8,0,1.6,0,2.5c1.4,0,2.7,0,4.1,0c0,0.9,0,1.6,0,2.5
			c-1.3,0-2.7,0-4,0c-0.1,0.6-0.2,1.1-0.2,1.7c-0.1,4.1-0.1,8.2-0.1,12.3c0,0.9,0.2,1.9,0.4,2.8c0.2,1,0.8,1.5,1.8,1.4
			c0.8,0,1.6-0.1,2.5-0.2c0,0.5,0,1.1,0,1.8c-0.3,0.1-0.7,0.3-1.1,0.4c-1.7,0.6-3.5,0.8-5.3,0.6c-2.9-0.3-4.6-2-4.9-5.4
			c-0.2-2-0.1-3.9,0-5.9c0.1-2.8,0.2-5.6,0.2-8.4C276,87.9,276,87.6,276,87.1z"/>
		<path class="st0" d="M172.3,84.5c1.4,0,2.7,0,4.1,0c0,0.9,0,1.6,0,2.5c-1.3,0-2.6,0-4,0c-0.1,0.7-0.2,1.3-0.2,1.9
			c-0.1,3.9-0.1,7.7-0.1,11.6c0,1,0.2,2.1,0.4,3.1c0.2,1.2,0.8,1.6,2,1.6c0.8,0,1.5-0.1,2.4-0.2c0,0.5,0,1.1,0,1.8
			c-0.2,0.1-0.4,0.2-0.7,0.3c-1.8,0.7-3.7,1-5.6,0.8c-2.4-0.3-3.8-1.4-4.6-3.7c-0.3-1-0.5-2-0.5-3c0-4,0.2-8,0.3-12.1
			c0-0.6,0.1-1.2,0.1-1.9c-1.2,0-2.2,0-3.3,0c0-0.9,0-1.8,0-2.6c1,0,2.1,0,3.3,0c-0.1-1.9-0.1-3.8-0.2-5.8c2.2-1,4.4-2,6.5-3
			c0.5,0.1,0.6,0.4,0.6,0.8c-0.1,1.8-0.2,3.6-0.3,5.4C172.3,82.8,172.3,83.5,172.3,84.5z"/>
		<path class="st0" d="M269.3,85.8c-0.4,1.4-0.8,2.8-1.1,4.3c-0.4,0-0.8,0-1.3,0c-0.2-0.5-0.4-0.9-0.6-1.4c-1.3-2.3-3-2.8-5.1-2.4
			c-1.5,0.2-2.3,1.3-2.3,2.9c0,0.9,0.6,1.5,1.2,1.8c1.2,0.6,2.4,1.2,3.7,1.7c1.4,0.6,2.8,1.1,4,2.1c1.4,1.2,2.2,2.8,2.3,4.6
			c0.1,1.8-0.2,3.5-1.3,5c-1,1.4-2.4,2.4-4,2.9c-3.5,1-6.9,0.8-10.2-1c-0.2-0.1-0.3-0.2-0.4-0.3c0.2-1.5,0.5-3,0.7-4.6
			c0.4,0,0.8,0,1.1,0c0.4,0.6,0.8,1.3,1.2,1.8c1.5,1.9,3.5,2.2,5.7,1.9c0.8-0.1,1.4-0.6,1.8-1.3c0.6-1,0.5-2.1-0.3-2.9
			c-1-1-2.3-1.4-3.6-1.9c-1.7-0.7-3.3-1.4-4.6-2.6c-1.6-1.5-2.2-3.5-2.1-5.7c0.1-1.6,0.6-3,1.6-4.3c1.4-1.8,3.4-2.6,5.6-2.9
			c2.7-0.3,5.2,0.3,7.5,1.9C269,85.6,269.2,85.7,269.3,85.8z"/>
		<path class="st0" d="M53.8,82.5c0.1,0.2,0.1,0.4,0.2,0.6c0.6,2.6,1,5.2,1,7.8c0,1.7-0.7,3.1-1.4,4.5c-1.8,3.3-4.4,5.8-7.6,7.8
			c-2.9,1.7-5.7,3.7-7.9,6.3c-0.1,0.1-0.1,0.1-0.2,0.2c-1.3-1.9-2.6-3.8-3.9-5.9c0.7-0.8,1.3-1.8,2.1-2.6c1.8-1.7,3.6-3.4,5.5-5.1
			c0.9-0.8,1.8-1.6,2.7-2.4c2.7-2.5,5.5-5,7.8-8.1c0.5-0.7,0.9-1.6,1.3-2.4c0.1-0.3,0.3-0.5,0.4-0.8C53.7,82.5,53.8,82.5,53.8,82.5z
			"/>
		<path class="st0" d="M145.4,84.2c2.1,0,4.3,0,6.5,0c0,1.8,0,3.7,0,5.5c0.4-0.9,0.9-1.7,1.4-2.6c0.8-1.4,2-2.6,3.6-3.2
			c1-0.4,2-0.4,3-0.3c-0.1,2.2-0.2,4.4-0.2,6.7c0,0-0.2,0.1-0.4,0.3c0-0.1,0-0.1,0-0.2c-0.9-0.1-1.7-0.3-2.6-0.4
			c-2.4-0.2-4.4,1.9-4.4,4.2c0,3.8,0.1,7.6,0.2,11.3c0,0.5,0,1,0,1.6c-2.3,0-4.7,0-7,0c0.1-3.8,0.2-7.7,0.2-11.5
			C145.5,91.9,145.4,88.1,145.4,84.2z"/>
		<path class="st0" d="M371.3,84.3c2.5,0,4.8,0,7.3,0c-0.5,7.6-0.5,15.2,0,22.9c-2.4,0-4.8,0-7.2,0C371.9,99.6,371.9,92,371.3,84.3z
			"/>
		<path class="st0" d="M17.9,103.6c0.1,0.1,0.2,0.1,0.2,0.2c1.3,2.5,3.5,4,5.6,5.7c1.9,1.5,3.9,2.9,5.8,4.4
			c3.3,2.7,5.2,6.2,5.5,10.6c0.3,3.5-0.4,6.7-1.7,9.9c0,0.1-0.1,0.2-0.2,0.2c0-0.3,0.1-0.6,0.1-0.9c0-0.3,0-0.7,0.1-1
			c0.6-7.1-2.6-13.4-9.7-16c-4.1-1.5-5.8-4.5-6.1-8.5c-0.1-1.4,0.2-2.8,0.3-4.1C17.8,104,17.9,103.8,17.9,103.6z"/>
		<path class="st0" d="M85.7,137.2c0,2.3,0,4.5,0,6.8c-1.3,0-2.5,0-3.7,0c0-4.2,0-8.3,0-12.6c0.5,0,1,0,1.5,0c2.4,0,1.7-0.4,3.3,1.6
			c0.8,1,1.6,2,2.5,3c1.3-1.6,2.6-3.1,3.8-4.6c1.2,0,2.3,0,3.5,0c0,4.2,0,8.4,0,12.6c-1.2,0-2.5,0-3.8,0c0-2.3,0-4.5,0-6.8
			c-0.1,0-0.1,0-0.2-0.1c-0.5,0.6-0.9,1.2-1.4,1.7c-0.5,0.6-0.9,1.2-1.4,1.8c-0.2,0.2-0.4,0.3-0.7,0.6c-1.1-1.4-2.2-2.7-3.3-4.1
			C85.8,137.1,85.8,137.1,85.7,137.2z"/>
		<path class="st0" d="M259.4,131.4c1.4,0,2.6,0,3.9,0c0,4.2,0,8.4,0,12.6c-1.2,0-2.3,0-3.3,0c-0.2,0-0.4-0.2-0.5-0.4
			c-1.8-1.9-3.6-3.9-5.4-5.8c-0.2-0.2-0.3-0.3-0.7-0.4c0,2.2,0,4.4,0,6.6c-1.3,0-2.5,0-3.8,0c0-4.2,0-8.3,0-12.6c0.5,0,1,0,1.5,0
			c2.4,0,1.7-0.3,3.2,1.4c1.5,1.6,3,3.1,4.4,4.7c0.2,0.2,0.3,0.4,0.4,0.6c0.1,0,0.2-0.1,0.3-0.1
			C259.4,135.8,259.4,133.6,259.4,131.4z"/>
		<path class="st0" d="M123.5,143.9c0-4.2,0-8.3,0-12.5c0.3,0,0.5-0.1,0.7-0.1c2,0,4-0.1,5.9,0c3.4,0.2,5.7,1.9,6.3,5.1
			c0.5,2.5-0.1,4.7-2.1,6.4c-0.8,0.7-1.8,1.1-2.9,1.1c-2.5,0.1-4.9,0-7.4,0C123.9,144,123.8,144,123.5,143.9z M127.5,141.3
			c1.2,0.1,2.2,0,3.3-0.3c0.9-0.3,1.5-0.9,1.6-1.9c0.1-0.6,0.2-1.2,0.1-1.8c-0.2-3-2.4-3.7-5.1-3.3
			C127.5,136.4,127.5,138.8,127.5,141.3z"/>
		<path class="st0" d="M332,138.4c1.6,1.6,2.1,3.6,3.2,5.6c-1.5,0-2.8,0-4.2,0c-0.2-0.4-0.4-0.9-0.7-1.4c-0.3-0.7-0.6-1.4-1-2
			c-0.5-1-1.2-1.5-2.5-1.3c0,1.6,0,3.2,0,4.8c-1.4,0-2.6,0-3.9,0c0-4.2,0-8.4,0-12.6c0.3,0,0.5-0.1,0.8-0.1c2,0,4,0,6.1,0
			c2.2,0,3.9,1.4,4.1,3.6c0.1,1.2-0.3,2.3-1.4,3C332.3,138.1,332.1,138.2,332,138.4z M326.8,136.8c0.8-0.1,1.5-0.1,2.2-0.2
			c0.5-0.1,0.8-0.5,0.8-1c0-0.6,0-1.1-0.6-1.3c-0.7-0.2-1.5-0.3-2.3-0.4C326.8,134.9,326.8,135.7,326.8,136.8z"/>
		<path class="st0" d="M240.8,131.4c0,0.3,0.1,0.6,0.1,0.9c0,1.9,0,3.8,0,5.7c0,3.9-2.3,5.7-5.7,6.1c-1.4,0.2-2.9,0.1-4.2-0.5
			c-2.3-0.9-3.5-2.6-3.6-5c-0.1-2.2,0-4.5,0-6.7c0-0.1,0-0.3,0.1-0.5c1.2,0,2.5,0,3.8,0c0,0.3,0.1,0.6,0.1,0.8c0,1.7,0,3.4,0,5.1
			c0,0.5,0.1,1.1,0.2,1.6c0.4,1.5,1.4,2,3.1,1.8c1.1-0.1,2-1.1,2.1-2.3c0.1-1.7,0.1-3.5,0.2-5.2c0-0.6,0-1.3,0-2
			C238.3,131.4,239.5,131.4,240.8,131.4z"/>
		<path class="st0" d="M41.9,119.9c-0.8-2.4-1.6-4.8-2.5-7.3c0.7-0.4,1.4-0.9,2.1-1.3c1.7-0.9,3.4-1.9,5.1-2.8
			c2.6-1.4,4.5-3.5,6.4-5.6c0.3-0.3,0.6-0.7,0.9-1.1c0.1,0.1,0.2,0.1,0.3,0.2c0,0.6,0.1,1.2,0,1.7c-0.5,4.5-2.4,8.5-5.8,11.5
			c-1.9,1.7-4.2,3.1-6.3,4.7C42,119.8,41.9,119.9,41.9,119.9z"/>
		<path class="st0" d="M181.3,131.4c1.5,0,2.9,0,4.4,0c1.8,4.2,3.7,8.3,5.6,12.6c-1.4,0-2.7,0-4,0c-0.4-0.8-0.7-1.6-1.1-2.4
			c-1.8,0-3.5,0-5.4,0c-0.4,0.8-0.7,1.6-1.1,2.4c-1.3,0-2.6,0-4,0C177.6,139.7,179.4,135.6,181.3,131.4z M185.3,139.2
			c-0.6-1.5-1.1-2.8-1.7-4.2c-0.1,0-0.1,0-0.2,0c-0.5,1.4-1.1,2.7-1.7,4.2C183,139.2,184,139.2,185.3,139.2z"/>
		<path class="st0" d="M109.7,141.5c1.9,0,3.7,0,5.5,0c0,0.9,0,1.6,0,2.5c-3.2,0-6.3,0-9.5,0c0-4.2,0-8.3,0-12.6c3.1,0,6.2,0,9.4,0
			c0,0.8,0,1.5,0,2.4c-1.8,0-3.5,0-5.4,0c0,0.8,0,1.5,0,2.4c1.7,0,3.4,0,5.1,0c0,0.9,0,1.7,0,2.6c-1.7,0-3.4,0-5.1,0
			C109.7,139.7,109.7,140.5,109.7,141.5z"/>
		<path class="st0" d="M305,131.4c3.2,0,6.2,0,9.4,0c0,0.8,0,1.6,0,2.5c-1.8,0-3.6,0-5.4,0c0,0.8,0,1.5,0,2.3c1.7,0,3.4,0,5.1,0
			c0,0.9,0,1.7,0,2.6c-1.7,0-3.4,0-5.1,0c0,1,0,1.8,0,2.8c1.9,0,3.7,0,5.5,0c0,0.9,0,1.6,0,2.5c-3.2,0-6.3,0-9.5,0
			C305,139.8,305,135.6,305,131.4z"/>
		<path class="st0" d="M169,139.8c0,1.2,0,2.2,0,3.2c-1,0.7-2.2,1-3.4,1.1c-1.3,0.1-2.7,0.1-4-0.2c-5-1.1-6.1-6.5-3.9-10
			c1.1-1.7,2.9-2.5,4.9-2.7c2-0.2,3.9,0,5.8,0.7c0.1,0,0.2,0.1,0.4,0.2c0,1.1,0,2.1,0,3.3c-0.3-0.1-0.5-0.2-0.7-0.3
			c-1.6-1-3.3-1.2-5.1-0.6c-1.7,0.6-2.6,2.1-2.3,3.8c0.3,1.5,1.7,2.7,3.4,2.8c1.5,0.1,2.8-0.2,4.1-0.9
			C168.5,140.1,168.7,140,169,139.8z"/>
		<path class="st0" d="M283.5,131.4c1.4,0,2.7,0,4.1,0c0.9,2.2,1.8,4.5,2.7,6.8c0.1,0,0.1,0,0.2,0c0.9-2.3,1.9-4.5,2.8-6.8
			c1.3,0,2.6,0,4.1,0c-1.9,4.3-3.8,8.5-5.7,12.7c-0.9,0-1.8,0-2.7,0C287.2,139.9,285.4,135.7,283.5,131.4z"/>
		<path class="st0" d="M342.2,143.2c0-1.1,0-2.1,0-3.2c0.5,0.3,1,0.5,1.4,0.7c0.9,0.5,2,0.6,3,0.5c0.3,0,0.7-0.4,0.9-0.7
			c0.1-0.2-0.2-0.7-0.4-0.8c-0.4-0.3-0.9-0.5-1.3-0.7c-1-0.5-2.1-0.9-2.9-1.8c-1.5-1.9-1-4.6,1.3-5.5c2.3-1,4.6-0.5,6.8,0.6
			c0,1,0,2,0,3.1c-0.5-0.3-1-0.5-1.4-0.7c-0.8-0.5-1.7-0.6-2.7-0.6c-0.5,0-0.8,0.1-1,0.6c-0.1,0.5,0.2,0.8,0.6,1
			c1,0.5,2.1,1.1,3.1,1.6c1,0.6,1.8,1.4,1.9,2.6c0.1,1.4-0.3,2.6-1.4,3.4c-0.8,0.6-1.8,0.9-2.8,0.9c-1.4,0.1-2.9-0.1-4.2-0.6
			C342.7,143.4,342.5,143.3,342.2,143.2z"/>
		<path class="st0" d="M384.9,131.4c0,1,0,1.9,0,3c-1.5,0-3,0-4.7,0c0,3.3,0,6.4,0,9.6c-1.3,0-2.5,0-3.8,0c0-3.2,0-6.3,0-9.5
			c-1.6,0-3.1,0-4.7,0c0-1.1,0-2,0-3C376.1,131.4,380.5,131.4,384.9,131.4z"/>
		<path class="st0" d="M405.2,131.4c-0.8,1.1-1.4,2-2.1,2.9c-0.8,1.1-1.6,2.2-2.4,3.3c-0.3,0.5-0.5,0.9-0.5,1.5c0,1.4,0,2.8,0,4.2
			c0,0.3-0.1,0.5-0.1,0.8c-1.3,0-2.5,0-3.8,0c0-0.3-0.1-0.5-0.1-0.8c0-1.4,0-2.7,0-4.1c0-0.6-0.2-1-0.5-1.5
			c-1.4-1.9-2.8-3.8-4.1-5.6c-0.1-0.2-0.2-0.3-0.4-0.6c1.4,0,2.7,0,4.1,0c0.9,1.2,1.8,2.4,2.8,3.7c1-1.3,1.9-2.5,2.8-3.8
			C402.3,131.4,403.7,131.4,405.2,131.4z"/>
		<path class="st0" d="M31.6,131.9c-1.2-2.5-3.4-3.8-5.4-5.3c-1.6-1.2-3.3-2.4-4.5-4.1c-1.4-2-2.1-4.3-2.6-6.7c0-0.1,0-0.1,0-0.3
			c0.2,0.2,0.3,0.3,0.5,0.4c1.1,1.1,2.3,1.9,3.8,2.5c2.8,1.1,5.2,2.8,6.8,5.4c1.4,2.3,1.9,4.9,1.5,7.6
			C31.8,131.5,31.7,131.6,31.6,131.9z"/>
		<path class="st0" d="M198.7,144c0-4.2,0-8.4,0-12.6c1.3,0,2.5,0,3.9,0c0,3.2,0,6.3,0,9.5c2,0,3.8,0,5.7,0c0,1.1,0,2,0,3
			C205.1,144,201.9,144,198.7,144z"/>
		<path class="st0" d="M272.2,131.4c1.3,0,2.5,0,3.8,0c0,4.2,0,8.4,0,12.6c-1.3,0-2.5,0-3.8,0C272.2,139.8,272.2,135.6,272.2,131.4z
			"/>
		<path class="st0" d="M359.9,131.4c1.3,0,2.5,0,3.8,0c0,4.2,0,8.4,0,12.6c-1.3,0-2.5,0-3.8,0C359.9,139.8,359.9,135.6,359.9,131.4z
			"/>
		<path class="st0" d="M148.7,144c-1.3,0-2.5,0-3.8,0c0-4.2,0-8.4,0-12.6c1.3,0,2.5,0,3.8,0C148.7,135.6,148.7,139.7,148.7,144z"/>
		<path class="st0" d="M374.9,78.9c-2.2,0-3.8-1.6-3.8-3.8c0-2.2,1.7-3.8,4-3.8c2.1,0,3.8,1.7,3.8,3.8
			C378.8,77.4,377.2,79,374.9,78.9z"/>
	</g>
</g>
</svg>
