<?xml version="1.0" encoding="utf-8"?>
<!-- Generator: Adobe Illustrator 18.0.0, SVG Export Plug-In . SVG Version: 6.00 Build 0)  -->
<!DOCTYPE svg PUBLIC "-//W3C//DTD SVG 1.1//EN" "http://www.w3.org/Graphics/SVG/1.1/DTD/svg11.dtd">
<svg version="1.1" id="Layer_1" xmlns="http://www.w3.org/2000/svg" xmlns:xlink="http://www.w3.org/1999/xlink" x="0px" y="0px"
	 viewBox="0 0 415 212" style="enable-background:new 0 0 415 212;" xml:space="preserve">
<style type="text/css">
	.st0{fill:#4D4D4F;}
	.st1{fill:#FFFFFF;}
	.st2{fill:#4D4D4F;stroke:#003DA6;stroke-width:0.6736;stroke-miterlimit:3.8637;}
	.st3{fill:#4E4E50;}
</style>
<g>
	<path class="st0" d="M119.1,113.9l-2.3-0.7c0.2-1.9,2.2-14-7.6-14c-4.9,0-8.5,4.5-8.5,9.3c0,9.9,18.6,16.2,18.6,28
		c0,10.3-10,16.3-19.3,16.3c-6.1,0-12.2-2.2-17.5-5.3l4.8-15.6l2.2,0.6c-2.2,9.4,2.5,17.4,11,17.4c5.6,0,8.9-5.9,8.9-10.9
		c0-9.9-18-13.9-18-28c0-9.5,9.6-14.7,18.2-14.7c4.9,0,10,1.8,14.3,4.3L119.1,113.9z"/>
	<path class="st0" d="M132.6,117.7c1.7-6.7-0.4-7.4-6.7-8.2l0.5-1.8c4.1,0.1,8.1,0.3,12.2,0.3c4.1,0,8.1-0.1,12.2-0.3l-0.5,1.8
		c-8.2,0.9-8.6,3.6-10.7,12.2l-2.9,11.6c-2.1,8.6-1.9,15.7,9.1,15.7c10,0,13.2-7.3,15.2-15.7l2.1-8.4c3.6-14.7,2.3-14.3-5.3-15.4
		l0.5-1.8c3.2,0.1,6.4,0.3,9.7,0.3c3.2,0,6.4-0.1,9.7-0.3l-0.5,1.8c-7,1.6-7.1,3.4-8.8,10l-4,15.6c-3,11.7-8.8,17.7-21.5,17.7
		c-7.6,0-15.4-2.5-15.4-11.5c0-2.5,0.7-5.6,1.3-8L132.6,117.7z"/>
	<path class="st0" d="M181.9,140.9c-2.8,7.6-1.2,8.2,6.2,9.5l-0.5,1.6c-3.2-0.1-6.3-0.3-9.5-0.3c-3.2,0-6.4,0.1-9.5,0.3l0.5-1.8
		c3.8-0.8,5.7-1.7,8.4-8.3l8.9-21.7c3-7.6,2.8-10.1-6-10.7l0.5-1.8h16.9l1,30.8l14.9-22.5c1.6-2.5,3.2-5.3,3.7-8.3h16.4l-0.5,1.8
		c-8.2,0.9-8.6,3.6-10.7,12.2l-5,20.3c-1.7,6.7,0.5,7.4,6.7,8.2l-0.5,1.8c-4.1-0.1-8.1-0.3-12.2-0.3c-4.1,0-8.1,0.1-12.2,0.3
		l0.5-1.8c8.2-0.9,8.6-3.6,10.7-12.2l5.1-19.7l-0.1-0.1L193.7,152l-2.2-0.8l-1.1-33h-0.1L181.9,140.9z"/>
	<path class="st0" d="M238.4,140.9c-2.8,7.6-1.2,8.2,6.2,9.5l-0.5,1.6c-3.2-0.1-6.3-0.3-9.5-0.3c-3.2,0-6.4,0.1-9.5,0.3l0.5-1.8
		c3.8-0.8,5.7-1.7,8.4-8.3l8.9-21.7c3-7.6,2.8-10.1-6-10.7l0.5-1.8h16.9l1,30.8l14.9-22.5c1.6-2.5,3.2-5.3,3.7-8.3h16.4l-0.5,1.8
		c-8.2,0.9-8.6,3.6-10.7,12.2l-5,20.3c-1.7,6.7,0.4,7.4,6.7,8.2l-0.5,1.8c-4.1-0.1-8.1-0.3-12.2-0.3c-4.1,0-8.1,0.1-12.2,0.3
		l0.5-1.8c8.2-0.9,8.6-3.6,10.7-12.2l5.1-19.7l-0.1-0.1L250.3,152l-2.2-0.8l-1.1-33h-0.1L238.4,140.9z"/>
	<path class="st0" d="M315.6,130.3h-11.1l10.2-15.9L315.6,130.3z M316.2,141.9c0,6.5-1.8,7.5-7.8,8.2l-0.5,1.8
		c4.3-0.1,8.2-0.3,12.2-0.3c4,0,7.9,0.1,12.1,0.3l0.5-1.8c-8.6-0.3-8.3-3.3-8.8-10.7c-0.9-11.5-1.4-22.2-1.4-32.7l-1.1-0.8
		c-2.1,1-4.5,1.6-6.9,1.7c-1.6,4.3-4.3,8.2-6.8,11.9l-13.4,20c-4.9,7.1-6.9,9.4-13.7,10.6l-0.5,1.8c3.6-0.1,7-0.3,10.4-0.3
		c3.4,0,6.7,0.1,10.3,0.3l0.5-1.8c-7.7-1.4-6.9-3.4-2.1-11.2l2.9-4.8h13.6L316.2,141.9z"/>
	<path class="st0" d="M234.1,28l-26.9,72l39.5-39.1c0,0,12.6-10.1-2.4-22.9C244,37.9,234.1,28,234.1,28z"/>
	<polygon class="st0" points="206.7,0.5 200.6,6.6 206.7,78 212.9,6.6 	"/>
	<polygon class="st0" points="216.5,10.3 206.7,92.3 196.9,10.3 182.3,24.9 206.7,96.4 231.2,24.9 	"/>
	<path class="st0" d="M179.4,28l-13.7,13.6c0,0-8.5,8.9,0.5,18.4c9,9.5,40.2,40,40.2,40L179.4,28z"/>
	<path class="st0" d="M216.4,98c0,0.6,0.3,1.7,2.2,1.7c0.4,0,2-0.1,2-1.7c0-0.9-0.6-1.2-1.3-1.4l-1.2-0.3c-0.2,0-0.5-0.1-0.5-0.5
		c0-0.5,0.5-0.6,0.9-0.6c0.9,0,1,0.5,1,0.8h1c0-0.6-0.4-1.6-2-1.6c-1.7,0-2,1-2,1.6c0,1.1,0.8,1.3,1.6,1.5l0.6,0.1
		c0.5,0.1,0.9,0.2,0.9,0.6c0,0.5-0.6,0.7-1.1,0.7c-0.9,0-1.1-0.5-1.1-0.8H216.4z"/>
	<path class="st0" d="M226.3,99.5h-1v-4.3h0l-1,4.3h-1l-0.9-4.3h0v4.3h-1v-5.1h1.6l0.9,4h0l0.9-4h1.5V99.5z"/>
	<path class="st0" d="M77.9,191.9c0,5.3,0.1,6.3,6.4,7.2v0.7H67.7v-0.7c5.8-0.8,5.8-2.2,6-7.2v-17c-0.1-5-0.2-6.4-6-7.2V167h16.7
		v0.7c-6.3,0.9-6.4,1.9-6.4,7.2v7h19.4v-7c0-5.3-0.1-6.3-6.4-7.2V167h16.6v0.7c-5.8,0.8-5.8,2.2-6,7.2v17c0.1,5,0.2,6.4,6,7.2v0.7
		H90.9v-0.7c6.3-0.9,6.4-1.9,6.4-7.2v-8H77.9V191.9z"/>
	<path class="st0" d="M109.8,184.2c0.5-2.4,2.2-5.1,4.9-5.1c2.6,0,3.9,2.5,4.3,4.7L109.8,184.2z M109.6,185.1h14
		c-0.2-4.3-3.1-7.1-7.4-7.1c-6.5,0-10.9,5.4-10.9,11.6c0,5.8,4.2,10.7,10.1,10.7c3.8,0,7-2.5,8.9-5.6l-0.7-0.5c-1.4,1.9-3.2,3-5.7,3
		c-5.5,0-8.9-4.7-8.5-9.7L109.6,185.1z"/>
	<path class="st0" d="M136.5,188.8v7.3c-0.9,0.9-2.2,1.8-3.5,1.8c-2.2,0-3.4-1.8-3.4-3.8c0-0.7,0.1-1.3,0.3-1.9L136.5,188.8z
		 M125.8,192.7c-0.2,0.7-0.3,1.4-0.3,2.1c0,2.9,1.7,5.5,4.8,5.5c2.5,0,4.6-1.5,6.1-3.3c0.2,1.9,1,3,3,3c1.4,0,3-0.5,4.9-1.1v-0.7
		c-4.5-0.9-4.2-1.9-4.2-6.2v-6.9c0-3.9-1.4-7.2-5.8-7.2c-3.9,0-9.2,5-9.2,6.3c0,0.5,0.7,0.5,1.1,0.5l2.4-0.1c0-2.7-0.3-4.2,3-4.2
		c3.8,0,5.2,2.2,4.8,7.4L125.8,192.7z"/>
	<path class="st0" d="M146.1,199.8v-0.7c3.6-0.5,3.7-1.1,3.8-4.9v-22.1c0-2,0-2.7-2.4-4.4v-0.5l5.6-2.1l0.5,0.2v28.9
		c0,4,0.2,4.3,3.8,4.9v0.7H146.1z"/>
	<path class="st0" d="M163.2,191.3c0,4.3,0.1,7,5.3,7c1,0,1.9-0.1,2.9-0.3l0.2,0.8c-2.4,0.9-5,1.5-7.6,1.5c-4.7,0-4.4-2.5-4.4-6.2
		V181h-3.2l-0.2-0.3l6.8-6.7h0.4v5h7.6v2h-7.6V191.3z"/>
	<path class="st0" d="M180.5,194.2c0,4,0.2,4.3,3.8,4.9v0.7H173v-0.7c3.6-0.5,3.7-1.1,3.8-4.9v-22.1c0-2,0-2.7-2.4-4.4v-0.5l5.6-2.1
		l0.5,0.2v15.8c2.6-1.5,5.2-3.2,8.3-3.2c5.8,0,6.1,4.8,6.1,7.6v8.6c0,4,0.2,4.3,3.8,4.9v0.7h-11.2v-0.7c3.6-0.5,3.7-1.1,3.8-4.9
		v-5.6c0-3.4,0.1-8.2-5.7-8.2c-2,0-3.3,0.6-4.9,1.6V194.2z"/>
	<path class="st0" d="M231.3,175.5h-0.8c-0.8-3.9-2-7.7-6.8-7.7c-3.1,0-5.6,2.1-5.6,5.3c0,8.3,15.2,8.1,15.2,17.8
		c0,6.2-6.2,9.5-11.7,9.5c-2.9,0-6-0.9-8.5-2.5l-1.4-8.2h0.9c1.2,4.6,4.4,9.2,9.7,9.2c3.6,0,6.4-2.1,6.4-5.9
		c0-8.6-14.8-7.8-14.8-17.5c0-5.7,5.6-9.2,10.8-9.2c2.5,0,4.9,0.7,7,1.9L231.3,175.5z"/>
	<path class="st0" d="M236.6,182.2c-0.9-2.2-1.1-2.7-3.5-3v-0.7h10v0.7c-3.7,0.2-2.7,2.4-1.7,4.9l4.7,12.3l3-8.7
		c2.2-6.3,2.6-8-1-8.5v-0.7h8.5v0.7c-2.1,0.2-2.8,1.1-3.7,2.9l-2,4.7l-7.4,18.7c-1.8,4.5-3,6-5,6c-1.3,0-2.4-1.1-2.4-2.4
		c0-1,0.6-1.9,1.5-2.3c0.5,0.3,2,1.4,2.6,1.4c1.1,0,1.9-2.6,2.3-3.3l1.6-3.7L236.6,182.2z"/>
	<path class="st0" d="M270,183.9l-1.1,0.2c-0.7-2.2-1.7-4.9-4.5-4.9c-2,0-3.2,1.4-3.2,3.4c0,5,10,4.8,10,11.1c0,4.3-4.1,6.7-8,6.7
		c-2.1,0-4.2-0.6-5.9-1.8l-0.4-5.4l1.1-0.2c0.7,2.9,2.3,6.1,5.7,6.1c2.2,0,3.7-1.6,3.7-3.8c0-5.5-10-4.4-10-11.3
		c0-3.8,3.5-5.9,6.9-5.9c1.9,0,3.8,0.5,5.4,1.6L270,183.9z"/>
	<path class="st0" d="M279.7,191.3c0,4.3,0.1,7,5.3,7c1,0,1.9-0.1,2.8-0.3l0.2,0.8c-2.4,0.9-5,1.5-7.6,1.5c-4.7,0-4.4-2.5-4.4-6.2
		V181h-3.2l-0.2-0.3l6.8-6.7h0.4v5h7.6v2h-7.6V191.3z"/>
	<path class="st0" d="M292.8,184.2c0.5-2.4,2.2-5.1,4.9-5.1c2.6,0,3.9,2.5,4.3,4.7L292.8,184.2z M292.7,185.1h14
		c-0.2-4.3-3.1-7.1-7.4-7.1c-6.5,0-10.9,5.4-10.9,11.6c0,5.8,4.1,10.7,10.1,10.7c3.8,0,7-2.5,8.9-5.6l-0.7-0.5c-1.4,1.9-3.2,3-5.7,3
		c-5.5,0-8.9-4.7-8.5-9.7L292.7,185.1z"/>
	<path class="st0" d="M315.9,194.2c0,4,0.2,4.3,3.4,4.9v0.7h-10.6v-0.7c3.3-0.5,3.5-1.1,3.5-4.9V185c0-2,0.1-2.7-2.4-4.4v-0.5
		l5.7-2.1l0.5,0.2l-0.4,3.7c2.2-1.9,4.9-3.9,8-3.9c2.5,0,5,1.4,5.9,3.9c2.3-1.9,4.9-3.9,8-3.9c7.1,0,6.3,7.3,6.3,9.9v6.3
		c0,4,0.2,4.3,3.4,4.9v0.7h-10.6v-0.7c3.3-0.5,3.5-1.1,3.5-4.9v-5.1c0-1.8,0.8-8.6-5.5-8.6c-2.1,0-3.4,0.9-4.8,2.4v11.3
		c0,4,0.2,4.3,3.4,4.9v0.7h-10.6v-0.7c3.3-0.5,3.5-1.1,3.5-4.9v-5.1c0-2.6,0.6-8.6-5.4-8.6c-2.1,0-3.5,1-4.9,2.4V194.2z"/>
</g>
</svg>
