<?xml version="1.0" encoding="utf-8"?>
<!-- Generator: Adobe Illustrator 18.0.0, SVG Export Plug-In . SVG Version: 6.00 Build 0)  -->
<!DOCTYPE svg PUBLIC "-//W3C//DTD SVG 1.1//EN" "http://www.w3.org/Graphics/SVG/1.1/DTD/svg11.dtd">
<svg version="1.1" id="Layer_1" xmlns="http://www.w3.org/2000/svg" xmlns:xlink="http://www.w3.org/1999/xlink" x="0px" y="0px"
	 viewBox="0 0 45 45" enable-background="new 0 0 45 45" xml:space="preserve">
<g>
	<path fill="#1A5EAB" d="M41.3,10.9c-1.1,1.6-2.3,2.9-3.9,4c0,0.2,0,0.6,0,1c0,2.1-0.3,4.1-0.9,6.2s-1.5,4-2.8,5.9
		c-1.2,1.9-2.7,3.6-4.4,5c-1.7,1.5-3.7,2.6-6.1,3.5c-2.4,0.9-5,1.3-7.7,1.3c-4.3,0-8.2-1.2-11.8-3.5c0.6,0.1,1.2,0.1,1.9,0.1
		c3.6,0,6.8-1.1,9.5-3.3c-1.7,0-3.2-0.5-4.5-1.5c-1.3-1-2.2-2.3-2.7-3.8c0.5,0.1,1,0.1,1.5,0.1c0.7,0,1.4-0.1,2-0.3
		C9.6,25.3,8.2,24.4,7,23s-1.8-3-1.8-4.9V18c1.1,0.6,2.2,0.9,3.5,1c-1-0.7-1.9-1.6-2.5-2.7s-0.9-2.3-0.9-3.7c0-1.4,0.3-2.7,1-3.9
		c1.9,2.4,4.3,4.3,7,5.7s5.7,2.2,8.8,2.4C22.1,16.1,22,15.5,22,15c0-2.1,0.8-3.9,2.3-5.4c1.5-1.5,3.3-2.3,5.4-2.3
		c2.2,0,4.1,0.8,5.6,2.4c1.7-0.3,3.4-1,4.9-1.9c-0.6,1.8-1.7,3.2-3.4,4.2C38.3,11.9,39.8,11.5,41.3,10.9z"/>
</g>
</svg>
