<?xml version="1.0" encoding="utf-8"?>
<!-- Generator: Adobe Illustrator 18.0.0, SVG Export Plug-In . SVG Version: 6.00 Build 0)  -->
<!DOCTYPE svg PUBLIC "-//W3C//DTD SVG 1.1//EN" "http://www.w3.org/Graphics/SVG/1.1/DTD/svg11.dtd">
<svg version="1.1" id="Layer_1" xmlns="http://www.w3.org/2000/svg" xmlns:xlink="http://www.w3.org/1999/xlink" x="0px" y="0px"
	 viewBox="0 0 415 212" style="enable-background:new 0 0 415 212;" xml:space="preserve">
<style type="text/css">
	.st0{fill:#4D4D4F;}
	.st1{fill:#FFFFFF;}
	.st2{fill:#4D4D4F;stroke:#003DA6;stroke-width:0.6736;stroke-miterlimit:3.8637;}
	.st3{fill:#4E4E50;}
</style>
<path class="st1" d="M332.2,108.7v-0.3c0-6.7-6.2-14-12.5-18.7c-1.7-7.4-6.2-14.8-14-23c-3.7-3.9-8.2-7.7-12.8-11.7
	c-4.3-3.6-18.5-13.5-22.3-18.8c0,0,2.6,5.8,3.4,7.6c-9.5-6.5-25.1-14.2-34.8-18L226,20.7c0,0,3.3,4.2,5.8,7.5
	c-10.9-3.5-23.1-6-27.7-6.7l0.1,0c-9.7-1.4-24.8-2.2-29.5-1.9c1.2,0.8,4.2,2.8,7.6,5.1C153,24.5,125.2,32,106,49.9
	c0-1.2-0.9-9.3-0.9-9.3l-8,10l-1.5,1.8c-6.7,8.5-14,18.9-16.8,32.2c-0.7,3.5-1.1,6.8-1.1,10.2c0,6.3,1.3,12.7,4.1,19.9
	c-2.2-0.4-4.8-0.9-5.1-1v0l3.7,7.1c11.4,21.9,31.5,37.6,58.4,46.6c10.8,3.6,16.9,4.1,20.3,4.4c-20.7-7.6-34.7-22.4-43.6-36.4
	c1.8,0.4,3.6,0.7,3.6,0.7l-2.6-6.7c-2.2-5.5-3.3-12.8-3.3-18.7c0-3,0.3-5.6,0.8-7.5c2.7-9.1,25.3-19.1,38.7-17.3
	c-1.2,0.1-4.2,0.7-4.2,0.7s11.6,0.5,21.5,2.9s21.7,5.9,32.1,10.5c4.6,2.1,18.5,9,28.7,15.9l-1.8-3c0,0,0.8,0.2,3,1.7
	c3.4,2.3,6.9,6.7,7.2,7.5c0,0.6-0.4,0.7-2.9,1.3c-3.3,0.7-6.7,1.3-6.7,1.3s3.3,3.3,8.4,5.1c5.1,1.7,8.5,1.8,11.7,1.5
	c2.8,4.2,7.9,8.8,17.4,11.2c14.2,3.7,26.1,0.5,34.6-3.1c1.8,3.8,2.7,7.4,2.7,10.4c0,1-0.1,1.9-0.3,2.7c-0.8,3.1-6.5,8-10.3,9.5
	s-4.8,1.8-6.1,2.2c1.4,1.2,5,2.9,6.6,3.5c2.1,0.8,4.8,1.3,6.2,1.5c6.5,1.1,13.1,0.6,18.8-1.3c7.4-2.4,12.8-7,15.7-13.5
	c2.2-4.9,3.1-9.7,3.1-14.2c0-11.6-5.8-21.2-8.8-25.4C331.2,113.3,332.1,111.2,332.2,108.7L332.2,108.7z M136.6,168
	c-27.2-10.4-45.6-27.4-55.9-47.2l0.1,0c0,0,0-0.1,0-0.1l-3.3-0.7c10.3,19.7,28.7,36.6,55.7,47c5.8,2.2,10.1,3.6,13.8,4.5
	C144,170.7,140.6,169.5,136.6,168"/>
<g>
	<path class="st3" d="M115.8,91.6c1.4-1,3-2,4.9-3l1.2-1.7C119.5,87.9,117.6,89.6,115.8,91.6L115.8,91.6z M83.7,122.1l4.5,0.9
		c-6.1-12.7-8.2-22.9-5.7-34.6c2.8-13.3,10.4-23.5,16.1-30.6l-0.4-4.8c-5.4,6.9-15.8,18.5-19.1,34.7c-2.4,11.7-0.2,21.8,5.9,34.5
		l-4.4-0.9c10.3,19.7,28.8,36.7,55.9,47.1c5.8,2.2,10.1,3.6,13.9,4.5c-3-0.9-6.4-2-10.4-3.6C112.5,158.9,94,141.9,83.7,122.1
		L83.7,122.1z"/>
</g>
<path class="st3" d="M112.9,131.1c-3.5-9.1-4.3-22.2-2.5-28.5c1.2-3.9,2.9-7.9,5.4-11c1.7-2.1,4.1-4,6.3-5.1l-1.4,2.1l-4.4,6.4
	c7-6.6,26.1-14.3,46.6-13c1.8,0.1,3.5,0.3,5.3,0.6l-8.1,1.8l-2,0.4c2-0.1,5.3,0.2,9.2,0.9c9.1,1.6,26.3,6.6,36.7,11.2
	c5.9,2.6,14.2,6.4,24.2,13.2c-1.1-2-2-4-3.1-5.8c5.1,3.9,11.5,9,13,10.6c3.5,3.7,6.6,7.3,6.4,9.5c-0.2,2.2-4.7,1.9-5,2.2
	c5.8,1.8,10.5,1.8,12.4,0.6c-2.6-3-3.6-6.1-4-10.2c-1.8-2.6-12.8-17-40.3-25.5c0,0,2.2,1.6,5.4,3.9c-4.9-2.3-10.9-4.8-16.5-6.7
	c-4.5-1.5-15.7-4.7-22.4-6.1l7.3-1.8c-13.1-6.4-40.8-4.1-53.5,2.1l5.5-7.3c-16.2,3.3-24.2,14.3-27,21.7c-3,8-3.5,19.8-0.1,30.7
	l-4.8-1.1c0.5,1.4,1.1,2.7,1.7,4.1c3.6,7.7,9.2,14.6,16.6,21.8c-9-5.4-17.6-13.6-23.9-21.8c-2.3-2.9-4.3-5.8-5.9-8.6l4.3,0.9
	c-6.7-12.3-10-21.8-6.6-34.9c0,0,0.1-0.6,0.2-0.6c1.7-6.7,7.2-16.3,11.6-22.1l1.4,8c28.5-35.1,64.4-43,107.1-35.5
	c-0.9-1-2.9-4.5-5.5-6.9c17.8,0,44.6,12.8,49.5,15.6l-3.9-6.3c13.3,5.9,27,13.4,35.7,21.2c-0.5-1.2-1.2-4.1-1.6-4.9
	c1.5,1.2,12.7,10.7,18.8,16.4c9.5,8.9,13.8,18.8,15.8,25c0.1-0.1-0.3-3.2-0.3-3.9c5.1,5.2,10.7,12.5,7.3,18.5
	c-0.1,0.3-0.3,0.5-0.5,0.7l-3-1.7l0.8,1.1c0.9,1.3,5.8,8.6,8,18c1.5,6.4,1.7,13.9-1.5,21c-3,6.6-9.7,10.6-16.7,12
	c-3.6,0.7-8.1,1-10.7,0.6c0.9,0.1,8-3.1,10.9-8.7c2.1-4.1,1.7-10.8-0.1-15.6c-1-2.8-2.4-5.7-3.9-8.2c-0.5-0.9-0.8-1.2-0.8-1.2
	c-8.5-12.5-22.4-18.7-29.1-20.3c-8.8-2.1-15.6,0.6-17.4,6.4c0,0-0.2,1.5-0.2,2.1l0.1-0.1c0.7-0.2,1.6-0.3,2.6-0.3
	c1.9,0,4.2,0.2,5.9,0.4c2.8,0.3,8.1,1.3,10.6,1.8c-2.2-1.2-8.6-3-11.2-3.3l-1.1-0.1c-1.5-0.1-2.9-0.2-4-0.1c0.1-0.1,0.3-0.1,0.3-0.1
	l0.7-0.9c2.9-3,8.2-3.3,12.9-2.1c5.4,1.3,15,5.5,22.3,13.4c-4.2,1.8-14.5,4.8-26.1,1c-9.8-3.2-10.3-9.2-10.3-9.4
	c0,0.3-2.4,7.8,8.6,11.8c0,0,0.3,0.1,0.9,0.3c10.4,3.5,18.7,1.5,23.5-0.3c1.5-0.6,2.7-1.1,3.5-1.5l1.1-0.5c0.6,0.6,1.1,1.3,1.6,2.1
	c0,0,0.3,0.4,1,1.5c-7.5,3.4-19.1,6.8-33.3,3.1c-4.3-1.1-7.7-2.8-10.3-4.5c-6.4-4.4-8.3-9.5-8.3-9.8l0,1.4c0,0.3,0.3,4.2,3.8,8.4
	c2.6,3.1,6.8,6.3,14,8.2c15.1,3.9,27.6-0.7,35.5-4.3c3.2,5.5,6,13,4.5,19.1c-0.9,3.9-5.6,8.3-10.9,10.9c0.7,0.3,2.7,0.8,3.9,1
	c10.5,1.8,25.2-0.4,30.6-12.5c3.6-8,3.2-15.8,1.3-22.4c-1.8-6.3-5-11.5-7.3-14.5c0-0.9-0.4-3-0.2-3.1c7-4.1,0-15.1-9.2-21.2
	c-1.2-7-5.3-14.2-13.4-22.7c-6.9-7.3-16.4-14-26.9-24.2c0.3,1,2.1,6.7,2,6.6c-5.4-5.5-27.8-17.4-40.3-22.4c1.1,1.3,3.4,4.6,5.2,7.2
	c-10.4-5.4-32.1-10.3-39.4-11.3c-4.9-0.9-9.9-0.9-15.3-1.2c2.2,1.5,5.2,3.9,6.9,5.2c-37.5-4.2-72.3,9-92.5,31.8L102,50.7
	c-1,1.2-2.1,2.7-3.3,4.2C93,62,85.4,72.3,82.5,85.6c-2.5,11.8-0.3,21.9,5.7,34.6l-4.4-0.9c2.1,4,4.5,8,7.3,11.8
	c10.9,14.7,27,27.2,48.7,35.5c4.1,1.5,7.5,2.7,10.4,3.6c3.4,1,6.3,1.6,9,2.1c-26.9-9.8-43-24.5-50.7-41.2c-0.1-0.3-0.3-0.5-0.4-0.8
	l3.9,0.8 M112.1,131.1l0.9,0.2l-0.1-0.2"/>
<path class="st3" d="M288.8,97.9c-0.3-1.3-1.8-4.9-5.9-5.4c-2.4-0.3-3.6,0.6-3.6,0.7c0,0,0.8-1.3,2.1-1.9c-1.3-0.7-4.5,0-4.6,0
	c0.1,0,3.2-2.9,7.8-1.5c0.9,0.3,1.8,0.8,2.5,1.2c-0.6-0.9-1.1-1.5-1.1-1.5c0.6,0,4,1,6,5c0.4,0.9,1.5,3.2,2.1,4.5
	c1.1,2.3,3.1,5.4,5.3,7.6c3,3,6.1,4.4,9.7,4.7c-1.9-0.5-3.2-1.6-2.9-2.8c2.7,1.1,5.3,1.6,6.7-1.6s0.6-14-11.9-27.8
	c0.1,0.8,0.5,2.1,0.5,3.5c-3.3-4.7-10-11.7-14.1-14.9c0.2,0.8,0.9,3.6,1.2,4.7c-2.2-2.3-8.4-7.6-8.4-7.6l1.3,3.9
	c0,0-0.7-0.9-1.4-1.8c-6.9-8.2-25.9-18.1-31.7-21.1l2.5,4.1c-0.4-0.3-1.1-0.6-1.9-1l2.6,4.4L238,47.1l7.2,0.2c-2-0.9-4.5-2-7.2-3.1
	c-6.7-2.3-13.9-4.2-22.5-5.8c-1.5-0.3-3.1-0.6-4.7-0.8c1.2,0.8,3.2,3.4,4.5,4.8c-13.4-1.9-25.8-2.5-37.2-2.1
	c21.4-0.1,60.2,11,75.9,21.8c13.1,8.9,10.9,11-3.1,4.8c-31.4-13.8-56.6-14.6-56.6-14.6l-17.3,10.5c0,0,29,3.8,49,14.5
	c17.3,9.2,11.3,9.7-5.8,3.6c-25.7-9.2-53.4-10.9-66.2-9.2c11.4,0.4,31.3,3,39,5.6c-2,0.6-7,2.8-9.4,3.4c4.3-0.3,52.4,14.5,65.6,31.8
	c0-0.6,0.1-1.1,0.3-1.8c1.5-7.1,10.7-11.3,18.4-11c6.5,0.2,12.9,2,19.2,5.8c-1.2-1.3-1.2-3.2-0.9-4.5c0.3-1.2,1.1-2.1,1.6-2.1
	C288.2,98.4,288.5,98.2,288.8,97.9"/>
<path class="st1" d="M282.6,83.1c-4.1-0.2-7.6,1.6-9.7,4.2c-1.7,2-1.9,5.1-0.9,7.3c-0.3-2.3,0.7-4.3,2-5.9c1.7-2,5.1-3.3,8.6-3.5
	c3.9-0.1,8.6,1.2,11.2,4.5C291.9,85.9,288.4,83.4,282.6,83.1"/>
<path class="st3" d="M190.7,27.6c-38.2-2.7-68.6,7.6-88,27.2l0.4,4.3c18.7-21.2,49.2-32.9,88-31.1C191,27.8,190.9,27.7,190.7,27.6"
	/>
<path class="st3" d="M86.7,143.2c0.3,2.2,5.2,7.9,13.7,13.7c10.9,7.5,16.6,8.5,18.7,8.7c-7.9-3.6-13.1-6.7-18.5-10.3
	C93.1,150,88.2,145.2,86.7,143.2"/>
<path class="st3" d="M309.3,121.3l-1.6-1.8c-2-2.2-4.2-4.6-9-8.2c0,0-1.5-1.1-1.6-1.2h0.3c1.3,0,2-0.6,2.7-1.3l0,0
	c-0.7-0.6-1.3-1.2-1.9-1.8c-0.4,0.2-0.8,0.3-1.2,0.3s-0.9-0.1-1.4-0.2c-1.7-0.6-2.4-2-2.3-3.1l2.1,0.3c0,0-0.5-0.9-1.3-1.8
	c0.3-0.3,0.7-0.4,1-0.4h0.2c-0.7-1.2-1.3-2.3-2-3.3c-0.5-0.3,0.6-0.4,0.9,0.3c1,2.1,3,5.3,5.3,7.6c3.2,3.3,6.8,4.8,11.5,4.8h0.1
	c4.5,0,6.1-3,6.1-3.1c0,0,0,0,0,0.1c0,1.5-0.4,2.7-1.2,3.6c1-0.6,2.2-1.8,2.5-2.7c0.4-1.2,0.1-3.6-0.3-4c0,0,0.1,0,0.1,0.1
	c2.4,2.4,2.6,4.1,2.4,5.1c-0.3,1.1-0.8,2.4-2.8,3.3c-1.6,0.8-3.3,1.2-5.3,1.2c-1.7,0-3.5-0.3-5.3-0.9c-0.1,0-0.2,0-0.2,0
	c0,0,0.1,0,0.2,0h0c0.4,0,1.8,0,3.5-0.3c-2.5-0.1-5.1-0.9-7.6-2.4h-1.5c-0.7,0-1.2,0-1.8-0.1C304.7,114.9,307.7,118.3,309.3,121.3"
	/>
<path class="st1" d="M309.8,101.1c-3-0.7-4.7-2.7-6.7-5.8l-1.5-2.2c-5-7.4-8.9-10-11.9-11.1c2,0.1,8.1,2.3,13.4,10.2l1.5,2.3
	C306.6,97.4,307.5,100.6,309.8,101.1"/>
<path class="st1" d="M254.1,102l2.6-0.6c-10.1-7.8-23.1-14.8-36.5-20c-4.2-1.6-11.3-4.1-15.6-5.4c3.8,1.2,8.1,2.8,10.9,3.9
	C230.5,85.7,243.3,92.9,254.1,102"/>
<path class="st3" d="M288.6,106.3c-1.8-1.8-2.4-4.3-0.7-7.6c-0.4,0.1-1.2,0.9-1.6,2.1c-0.4,1.3-0.3,3.2,0.9,4.5
	c-6.4-3.8-12.7-5.6-19.2-5.8c-7.6-0.3-16.8,3.9-18.4,11c-0.7,3.3-0.1,5.6-0.1,5.6s0.3-1.9,0.5-2.7c1.1-6,9.2-11.8,18.4-11.5
	c8.3,0.2,12,1.8,23.7,7.8l1.8,0.4C292.2,108.7,290.4,107.4,288.6,106.3"/>
<path class="st3" d="M244.5,61.3l1.4-1c-11.3-5.8-24.2-10.2-38.3-12.7c-4.4-0.8-11.9-2-16.3-2.4c3.9,0.6,8.4,1.2,11.5,1.8
	C218.5,49.8,232.3,54.4,244.5,61.3"/>
<path class="st3" d="M95.3,49.4C89.8,56.5,80.4,67.2,77.4,82l0.2,4.8C80.5,72.8,89.5,56.7,95.3,49.4"/>
<path class="st3" d="M250.7,165.8H129.1l7.4-27.5h5.1l12.3-53.9h-6.1l4.9-27.1h0.9L270.7,57h1.2l-0.2,1.2l-4.5,25l-0.2,0.9h-0.9
	l-16.7,0l-21.3,19.1c1.8,4.5,12,29.4,14.3,35.1h15.6l-7.2,26.7L250.7,165.8"/>
<path class="st1" d="M248.4,82.4l-22.7,20.3l0.3,0.7c0,0,0.2,0.5,0.6,1.4c2.5,6.2,12.7,31.2,14.3,35l0.3,0.6h14.3l-6.3,23.3H131.8
	l6.3-23.3h5.1l13.2-58h-6.2l4.2-23l115.1-0.3l-4.2,23l-16.6,0L248.4,82.4"/>
<path class="st3" d="M261.1,78.5h-13.2l-28,22.9l17.6,43H249l-4.2,15.4h-55.9l3.8-15.3h11.4l-8.8-21.3l-17.8,15.2l-1.5,6.2l8.1,0
	l-3.8,15.3h-42.9l4.1-15.1h5.3l16-66.2h-7.1l2.7-14.9h42.7l-3.7,14.9H192l-4.7,19.2l22.5-19.2h-5.1l3.7-14.9h55.4L261.1,78.5"/>
<path class="st3" d="M256,165.2c-0.3,0.3-0.7,0.5-1.2,0.5c-0.5,0-0.9-0.2-1.2-0.5c-0.3-0.3-0.5-0.7-0.5-1.2c0-0.5,0.2-0.9,0.5-1.2
	s0.7-0.5,1.2-0.5c0.5,0,0.9,0.2,1.2,0.5c0.3,0.3,0.5,0.7,0.5,1.2S256.3,164.9,256,165.2 M253.8,163.1c-0.3,0.3-0.4,0.6-0.4,1
	s0.1,0.7,0.4,1c0.3,0.3,0.6,0.4,1,0.4s0.7-0.1,1-0.4c0.3-0.3,0.4-0.6,0.4-1c0-0.4-0.1-0.7-0.4-1c-0.3-0.3-0.6-0.4-1-0.4
	S254.1,162.8,253.8,163.1z M254.8,163.1c0.2,0,0.4,0,0.5,0.1c0.2,0.1,0.3,0.2,0.3,0.5c0,0.2,0,0.3-0.2,0.3c0,0-0.1,0.1-0.3,0.1
	c0.1,0,0.3,0.1,0.3,0.2c0.1,0.1,0.1,0.2,0.1,0.3v0.4h-0.3v-0.2c0-0.2,0-0.3-0.2-0.4c-0.1,0-0.2,0-0.3,0h-0.3v0.7h-0.3v-1.8h0.6
	L254.8,163.1z M255.2,163.4c-0.1,0-0.2-0.1-0.4-0.1h-0.3v0.6h0.3c0.1,0,0.3,0,0.3,0c0.1,0,0.2-0.1,0.2-0.3
	C255.3,163.6,255.2,163.5,255.2,163.4L255.2,163.4z"/>
<path class="st3" d="M237.9,183.7h-4.5l3.9-7.7L237.9,183.7 M229,191.9l1.9-3.6h7.6l0.2,3.6h6.8l-3.1-21.5H235l-12.7,21.5H229z"/>
<path class="st3" d="M235.3,171.1l-12,20.3h5.3l1.9-3.6h8.5l0.2,3.6h5.5l-3-20.3H235.3L235.3,171.1z M232.4,184.3l5.4-10.4l0.8,10.4
	H232.4z"/>
<path class="st3" d="M245.3,175.6l1.2-5.1H283l-1,4.5h-11.1l-0.8,3.6h10.2l-1,4.2h-10.2l-0.8,4.2h11.5l-1.1,5h-17.9l3.6-16.3h-6
	l-3.4,16.3h-6.6l3.4-16.3H245.3"/>
<path class="st3" d="M249.1,191.3h5.4l3.4-16.3h7.2l-3.6,16.3h16.7l0.8-3.8h-11.5l1-5.4h10.3l0.7-3h-10.2l1-4.8h11.1l0.7-3.3H247
	L246,175h6.5L249.1,191.3z"/>
<path class="st3" d="M204.1,175.6c0-0.7-0.2-1-0.7-1.2c-0.4-0.3-1-0.4-1.7-0.4c-1.5,0-2.3,0.8-2.5,1.5c-1.1,3.6,12.2,0.9,10.4,9.4
	c-1.1,5-5.5,7.6-11.4,7.6c-5.7,0-8.8-3.5-8.1-7.4h6.7c0,0.8,0.3,2.1,0.8,2.4c0.5,0.3,1.2,0.5,1.9,0.5c1.8,0,3.2-0.6,3.5-1.6
	c1.5-5.4-11.9-1.9-10.1-10.1c1-4.5,5-6.3,10.4-6.3c4.5,0,6.4,1,7,3.1l0.6-2.6h19.7l-1.2,5.1h-6.5l-3.4,16.3h-6.6l3.4-16.3
	L204.1,175.6"/>
<path class="st3" d="M203.2,170.7c-5.7,0-9,2-9.8,5.8c-0.8,3.7,1.6,4.6,5.4,5.6c1.9,0.5,3.8,1,4.5,2.3c0.3,0.6,0.4,1.4,0.2,2.2
	c-0.3,1.2-1.9,2-4,2c-0.9,0-1.7-0.3-2.2-0.6c-0.6-0.4-0.9-1.5-1-2.3h-5.6c-0.1,1.3,0.3,2.7,1.2,3.7c1.3,1.6,3.6,2.5,6.4,2.5
	c5.9,0,9.9-2.6,10.9-7.1c0.9-4.2-2.2-5.3-6.3-6.3c-1.9-0.5-3.4-0.8-3.9-1.8c-0.2-0.4-0.3-0.9-0.1-1.3c0.4-1.2,1.5-1.9,3.1-1.9
	c0.8,0,1.5,0.2,2.1,0.5c0.4,0.3,0.8,0.5,0.9,1.2h5.4l-0.5-1.7C209.2,172,208.2,170.7,203.2,170.7L203.2,170.7z M213.4,191.3h5.4
	l3.4-16.3h6.6l0.9-3.9h-18.4l-0.9,3.9h6.5L213.4,191.3z"/>
<path class="st3" d="M162.3,170.5l-2.4,12l-5.7-12h-32.4l-7.7,7.3l1.8-7.3h-7l-4.9,21.5h7l1.2-5.6l4-3.2l2.4,8.8h31.2l2.5-11.9
	l5.6,11.9h6.2l3.6-16.3h5.8l-3.4,16.3h6.6l3.4-16.3h6.5l1.2-5.1H162.3 M126.2,190l-4.1-11.4l8.1-7L126.2,190z M144.5,187h-11.2
	l0.9-4.2h10.2l1-4.2h-10.2l0.8-3.6h11.2L144.5,187z"/>
<polygon class="st3" points="130,171.1 122,171.1 113,179.7 115.1,171.1 109.4,171.1 104.7,191.3 110.5,191.3 111.6,186 
	116.5,182.2 119,191.3 126.1,191.3 121.4,178.5 "/>
<path class="st3" d="M162.8,171.1l-2.7,13.3l-6.3-13.3h-22.9l-4.4,20.3h22.7l2.7-13.2l6.2,13.2h5.4l3.6-16.3h7l-3.4,16.3h5.4
	l3.4-16.3h6.5l0.9-3.9H162.8z M145,187.6h-12.4l1.1-5.4h10.2l0.7-3h-10.2l1-4.8h12.4L145,187.6z"/>
<path class="st3" d="M285.4,190.9c-0.3,0.3-0.7,0.5-1.2,0.5c-0.5,0-0.9-0.2-1.2-0.5c-0.3-0.3-0.5-0.7-0.5-1.2c0-0.5,0.2-0.9,0.5-1.2
	c0.3-0.3,0.7-0.5,1.2-0.5s0.9,0.2,1.2,0.5c0.3,0.3,0.5,0.7,0.5,1.2C285.9,190.2,285.7,190.6,285.4,190.9 M283.2,188.7
	c-0.3,0.3-0.4,0.6-0.4,1c0,0.4,0.1,0.7,0.4,1c0.3,0.3,0.6,0.4,1,0.4s0.7-0.1,1-0.4c0.3-0.3,0.4-0.6,0.4-1c0-0.4-0.1-0.7-0.4-1
	c-0.3-0.3-0.6-0.4-1-0.4S283.5,188.4,283.2,188.7z M284.2,188.8c0.2,0,0.4,0,0.5,0.1c0.2,0.1,0.3,0.2,0.3,0.5c0,0.2,0,0.3-0.2,0.3
	c0,0-0.2,0.1-0.3,0.1c0.1,0,0.3,0.1,0.3,0.2c0.1,0.1,0.1,0.2,0.1,0.3v0.4h-0.3v-0.2c0-0.2,0-0.3-0.2-0.4c-0.1,0-0.2,0-0.3,0h-0.3
	v0.7h-0.3v-1.8h0.6L284.2,188.8z M284.5,189.1c-0.1,0-0.2-0.1-0.4-0.1h-0.3v0.6h0.3c0.1,0,0.3,0,0.3,0c0.1,0,0.2-0.1,0.2-0.3
	C284.7,189.2,284.6,189.2,284.5,189.1L284.5,189.1z M221,58.7c0.4-0.3,1.5-1.2,2.1-1.5c-18.4-7.9-50.8-8.5-71.1-2.2
	c4.6-1.2,8.6-1.9,11.9-2.4C179.1,50.2,209.2,53.6,221,58.7"/>
</svg>
