<svg id="Layer_1" data-name="Layer 1" xmlns="http://www.w3.org/2000/svg" viewBox="0 0 272.85 48.34"><title>HRZNT logo 2 line CCI_Spot black</title><path d="M59,12.21A1.17,1.17,0,0,1,59.72,12a1.43,1.43,0,0,0,1.07-.55,6.83,6.83,0,0,1,.43-0.76,1.2,1.2,0,0,1,.72-0.4,1.69,1.69,0,0,0,.73-0.12L62.9,10a1.72,1.72,0,0,1-.37.07C62.32,10.11,62,10,61.81,10a1.41,1.41,0,0,0-.83.3,3.41,3.41,0,0,1-.69.66,1.4,1.4,0,0,1-.73.14A1.39,1.39,0,0,0,58.88,11a1,1,0,0,0-.33.08l2.69-3.46-3.6,2.58a1.08,1.08,0,0,1,.11-0.39A2.69,2.69,0,0,0,58.27,9a1.25,1.25,0,0,0-.1-0.89,1.25,1.25,0,0,1-.1-0.8,1.22,1.22,0,0,1,.32-0.59,0.94,0.94,0,0,0,.32-0.5l0-.16a0.78,0.78,0,0,1-.17.27,3.17,3.17,0,0,1-.5.37,1.45,1.45,0,0,0-.44.74,6.07,6.07,0,0,0,0,.82,1,1,0,0,1-.25.63,1.13,1.13,0,0,1-.49.37,0.87,0.87,0,0,0-.44.46L55.8,5.46,55.16,9.72a2.07,2.07,0,0,1-.24-0.48,1.57,1.57,0,0,0-.31-1,1.68,1.68,0,0,0-.78-0.47,1.34,1.34,0,0,1-.62-0.61,3.71,3.71,0,0,1-.13-0.81A2.62,2.62,0,0,0,52.88,6a1.18,1.18,0,0,1,.08.42,6.3,6.3,0,0,0-.09.72,1.13,1.13,0,0,0,.36.75,1.88,1.88,0,0,1,.65.65,0.9,0.9,0,0,1,.09.81,1,1,0,0,0-.08.61,0.8,0.8,0,0,1,.07.22l-3.6-2.58L53,11.07a1.08,1.08,0,0,1-.53-0.2,1.66,1.66,0,0,0-.73-0.42,1.19,1.19,0,0,0-.69,0,3.89,3.89,0,0,1-.61.2,1.37,1.37,0,0,1-.94-0.21A2.08,2.08,0,0,0,49,10.07,1.56,1.56,0,0,0,48.7,10a1.19,1.19,0,0,1,.44.3,1.93,1.93,0,0,0,.52.58,1.42,1.42,0,0,0,.8.21,1.94,1.94,0,0,1,.61,0,1.4,1.4,0,0,1,.64.27c0.24,0.29.39,0.58,0.51,0.68a1,1,0,0,0,.33.2L48.13,13l4.73-.3c0.55,0,2-.14,3-0.13s1.46,0.05,2.07.09L63.57,13Z" style="fill:#2e2a25"/><path d="M3.36,20.41c0-3.08,0-3.63,0-4.26A1,1,0,0,0,2.47,15,3.76,3.76,0,0,0,1.8,15a0.14,0.14,0,0,1-.16-0.12c0-.12.1-0.16,0.32-0.16,0.89,0,2.05.06,2.17,0.06S5.45,14.68,6,14.68c0.22,0,.31,0,0.31.16A0.14,0.14,0,0,1,6.2,15a3,3,0,0,0-.49.06A0.94,0.94,0,0,0,5,16.14c0,0.63,0,1.18,0,4.26v1.18H5c0.34-.38,3.9-4,4.62-4.77a3.39,3.39,0,0,0,1.06-1.42A0.39,0.39,0,0,0,10.44,15a0.22,0.22,0,0,1-.18-0.16c0-.1.1-0.14,0.24-0.14,0.39,0,1,.06,1.48.06,0.1,0,1.4-.06,1.89-0.06,0.22,0,.3,0,0.3.14s0,0.14-.2.14a2.9,2.9,0,0,0-1.11.28,7.3,7.3,0,0,0-2.13,1.7c-0.49.47-3.93,3.83-4.34,4.32,0.51,0.57,4.62,4.81,5.43,5.56,1.66,1.54,1.93,1.94,2.94,2.25a6,6,0,0,0,1.22.26c0.14,0,.26,0,0.26.12s-0.1.16-.43,0.16h-1c-0.55,0-.93,0-1.36,0a4.09,4.09,0,0,1-2.39-1.2c-0.89-.73-5.07-5.25-6-6.41H4.94v1.93c0,1.89,0,3.45.1,4.28a1,1,0,0,0,.77,1.09,6.85,6.85,0,0,0,.77.08,0.13,0.13,0,0,1,.16.12c0,0.1-.1.16-0.32,0.16-1,0-2.11-.06-2.27-0.06s-1.3.06-1.89,0.06c-0.22,0-.32,0-0.32-0.16a0.13,0.13,0,0,1,.16-0.12,3.11,3.11,0,0,0,.59-0.08,1.06,1.06,0,0,0,.57-1.09c0.1-.83.1-2.39,0.1-4.28V20.41Z" style="fill:#2e2a25"/><path d="M27.62,26.92c0,1.62.24,2.13,0.77,2.29a4.33,4.33,0,0,0,1,.12,0.13,0.13,0,0,1,.16.12c0,0.12-.12.16-0.36,0.16-1.12,0-1.91-.06-2.09-0.06s-1,.06-1.89.06c-0.2,0-.32,0-0.32-0.16A0.13,0.13,0,0,1,25,29.32a2.83,2.83,0,0,0,.81-0.12c0.49-.14.59-0.71,0.59-2.51l0-11.31c0-.77.06-1,0.22-1a2.44,2.44,0,0,1,.69.63c0.3,0.34,3.24,3.51,6.27,6.77,2,2.09,4.1,4.5,4.74,5.15l-0.22-10c0-1.28-.16-1.72-0.77-1.87a5.36,5.36,0,0,0-1-.1c-0.14,0-.16-0.06-0.16-0.14s0.16-.14.39-0.14c0.89,0,1.84.06,2.05,0.06s0.87-.06,1.68-0.06c0.22,0,.36,0,0.36.14a0.18,0.18,0,0,1-.22.14A1.72,1.72,0,0,0,40,15c-0.65.14-.73,0.57-0.73,1.76l0,11.56c0,1.3,0,1.4-.18,1.4s-0.39-.22-1.44-1.26c-0.22-.2-3.06-3.1-5.15-5.35-2.29-2.47-4.52-5-5.15-5.66Z" style="fill:#2e2a25"/><path d="M47.7,23.88c0,1.89,0,3.45.1,4.28a1,1,0,0,0,.77,1.09,8.68,8.68,0,0,0,.89.08,0.13,0.13,0,0,1,.16.12c0,0.1-.1.16-0.32,0.16-1.09,0-2.33-.06-2.43-0.06s-1.34.06-1.93,0.06c-0.22,0-.31,0-0.31-0.16a0.13,0.13,0,0,1,.16-0.12,3.11,3.11,0,0,0,.59-0.08,1.06,1.06,0,0,0,.57-1.09c0.1-.83.1-2.39,0.1-4.28V15.53l-2.92,0c-1.22,0-1.7.16-2,.63a3.23,3.23,0,0,0-.33.61,0.22,0.22,0,0,1-.2.2c-0.06,0-.1-0.06-0.1-0.18s0.39-1.89.43-2.05a0.66,0.66,0,0,1,.2-0.38,3.72,3.72,0,0,0,.87.24c0.57,0.06,1.32.1,1.56,0.1h7.4a9.56,9.56,0,0,0,2-.2c0.1,0,.1.12,0.1,0.24,0,0.59-.06,2-0.06,2.17s-0.06.26-.14,0.26-0.14-.06-0.16-0.34l0-.22c-0.08-.59-0.53-1-2.43-1.08l-2.49,0v8.34Z" style="fill:#2e2a25"/><path d="M73.27,23.88c0,1.89,0,3.45.1,4.28a1,1,0,0,0,.77,1.09,8.73,8.73,0,0,0,.89.08,0.13,0.13,0,0,1,.16.12c0,0.1-.1.16-0.32,0.16-1.09,0-2.33-.06-2.43-0.06s-1.34.06-1.93,0.06c-0.22,0-.32,0-0.32-0.16a0.13,0.13,0,0,1,.16-0.12,3.11,3.11,0,0,0,.59-0.08,1.06,1.06,0,0,0,.57-1.09c0.1-.83.1-2.39,0.1-4.28V15.53l-2.64,0c-1.22,0-1.7.16-2,.63a3.43,3.43,0,0,0-.34.61,0.22,0.22,0,0,1-.2.2c-0.06,0-.1-0.06-0.1-0.18s0.39-1.89.44-2.05a0.66,0.66,0,0,1,.2-0.38,3.71,3.71,0,0,0,.87.24c0.57,0.06,1.32.1,1.56,0.1h7.12a10.45,10.45,0,0,0,1.4-.1,4.69,4.69,0,0,1,.55-0.1c0.1,0,.1.12,0.1,0.24,0,0.59-.06,2-0.06,2.17s-0.06.26-.14,0.26-0.14-.06-0.16-0.34l0-.22c-0.08-.59-0.53-1-2.43-1.08l-2.49,0v8.34Z" style="fill:#2e2a25"/><path d="M94.17,23.88c0,1.89,0,3.45.1,4.28A1,1,0,0,0,95,29.25a8.8,8.8,0,0,0,.89.08,0.13,0.13,0,0,1,.16.12c0,0.1-.1.16-0.32,0.16-1.08,0-2.33-.06-2.43-0.06S92,29.6,91.4,29.6c-0.22,0-.32,0-0.32-0.16a0.13,0.13,0,0,1,.16-0.12,3.09,3.09,0,0,0,.59-0.08,1.06,1.06,0,0,0,.57-1.09c0.1-.83.1-2.39,0.1-4.28V15.53l-2.92,0c-1.22,0-1.7.16-2,.63a3.5,3.5,0,0,0-.33.61,0.22,0.22,0,0,1-.2.2c-0.06,0-.1-0.06-0.1-0.18s0.39-1.89.43-2.05a0.69,0.69,0,0,1,.2-0.38,3.77,3.77,0,0,0,.87.24c0.57,0.06,1.32.1,1.56,0.1h7.4a10.46,10.46,0,0,0,1.4-.1,4.63,4.63,0,0,1,.55-0.1c0.1,0,.1.12,0.1,0.24,0,0.59-.06,2-0.06,2.17s-0.06.26-.14,0.26-0.14-.06-0.16-0.34l0-.22c-0.08-.59-0.53-1-2.43-1.08l-2.48,0v8.34Z" style="fill:#2e2a25"/><path d="M16.48,20.41c0-3.08,0-3.63,0-4.26A1,1,0,0,0,15.59,15,3.76,3.76,0,0,0,14.92,15a0.14,0.14,0,0,1-.16-0.12c0-.12.1-0.16,0.32-0.16,0.89,0,2.13.06,2.23,0.06s5.6,0,6.05,0a5.39,5.39,0,0,0,.85-0.1,1.51,1.51,0,0,1,.28-0.1c0.06,0,.08.08,0.08,0.18s-0.1.38-.16,0.93c0,0.2-.06,1.06-0.1,1.3a0.23,0.23,0,0,1-.14.22c-0.12,0-.16-0.1-0.16-0.26a2.12,2.12,0,0,0-.12-0.71C23.75,15.87,22,15.63,21,15.51c-0.33,0-2.49-.06-2.7-0.06s-0.12.06-.12,0.2V21.1c0,0.14,0,.2.12,0.2,0.25,0,4.22,0,4.67,0A1.33,1.33,0,0,0,23.85,21a0.61,0.61,0,0,1,.3-0.26c0.06,0,.1,0,0.1.16s-0.1.45-.16,1.11c0,0.39-.08,1.12-0.08,1.26s0,0.38-.14.38a0.15,0.15,0,0,1-.14-0.18,2,2,0,0,0-.08-0.65c-0.08-.28-1.79-0.61-2.56-0.69C20.56,22,18.61,22,18.27,22a0.13,0.13,0,0,0-.14.14v1.73c0,0.67,0,3,0,3.37,0.06,1.36.36,1.62,2.29,1.62a18.25,18.25,0,0,0,3.43-.22,1.58,1.58,0,0,0,.89-1.42c0-.22.08-0.3,0.18-0.3s0.12,0.16.12,0.3-0.16,1.5-.25,1.92-0.3.51-1.07,0.51c-3,0-5.83-.12-6.41-0.12l-0.79,0c-0.39,0-.85,0-1.15,0s-0.32,0-.32-0.16a0.13,0.13,0,0,1,.16-0.12,3.07,3.07,0,0,0,.59-0.08,1.06,1.06,0,0,0,.57-1.09c0.1-.83.1-2.39,0.1-4.28V20.41Z" style="fill:#2e2a25"/><path d="M101.4,20.51c0-3.08,0-3.63,0-4.26a1,1,0,0,0-.85-1.12,3.54,3.54,0,0,0-.67-0.06,0.14,0.14,0,0,1-.16-0.12c0-.12.1-0.16,0.32-0.16,0.89,0,2.13.06,2.23,0.06s5.6,0,6.05,0a5.48,5.48,0,0,0,.85-0.1,1.48,1.48,0,0,1,.28-0.1c0.06,0,.08.08,0.08,0.18s-0.1.37-.16,0.93c0,0.2-.06,1.06-0.1,1.3a0.23,0.23,0,0,1-.14.22c-0.12,0-.16-0.1-0.16-0.25a2.13,2.13,0,0,0-.12-0.71c-0.14-.32-1.87-0.55-2.93-0.67-0.34,0-2.48-.06-2.7-0.06s-0.12.06-.12,0.2V21.2c0,0.14,0,.2.12,0.2,0.26,0,4.22,0,4.67,0a1.32,1.32,0,0,0,.93-0.28,0.6,0.6,0,0,1,.3-0.26c0.06,0,.1,0,0.1.16s-0.1.45-.16,1.1c0,0.39-.08,1.13-0.08,1.26s0,0.37-.14.37a0.15,0.15,0,0,1-.14-0.18,2,2,0,0,0-.08-0.65c-0.08-.28-1.79-0.61-2.56-0.69-0.53-.06-2.49-0.1-2.82-0.1a0.12,0.12,0,0,0-.14.14V24c0,0.67,0,3,0,3.37,0.06,1.36.35,1.62,2.29,1.62a18.13,18.13,0,0,0,3.43-.22,1.57,1.57,0,0,0,.89-1.42c0-.22.08-0.3,0.18-0.3s0.12,0.16.12,0.3a19.12,19.12,0,0,1-.26,1.91c-0.14.51-.3,0.51-1.06,0.51-3,0-5.83-.12-6.41-0.12,0,0-.37,0-0.79,0s-0.85,0-1.14,0-0.32,0-.32-0.16a0.13,0.13,0,0,1,.16-0.12,3.09,3.09,0,0,0,.59-0.08,1.05,1.05,0,0,0,.57-1.09c0.1-.83.1-2.39,0.1-4.28V20.51Z" style="fill:#2e2a25"/><path d="M58.2,29.38c-0.33-.14-0.35-0.22-0.35-0.75,0-1,.09-1.78.12-2.09s0.07-.32.19-0.32,0.16,0.06.16,0.22a3,3,0,0,0,.07.73c0.35,1.46,1.9,2,3.47,2,2.25,0,3.35-1.36,3.35-2.62s-0.77-2.61-2.79-4l-1.06-.73c-2.49-1.72-3-2.94-3-4.28,0-2.11,1.88-3.55,4.85-3.55a8.21,8.21,0,0,1,1.93.19,3.74,3.74,0,0,0,.8.07c0.19,0,.24,0,0.24.14a20.29,20.29,0,0,1,.49,2.26c0,0.31,0,.45-0.16.45s-0.16-.1-0.19-0.26a4.91,4.91,0,0,0-.61-1.12c-0.14-.22-0.77-1-2.93-1-1.62,0-2.88.85-2.88,2.29,0,1.13.66,1.8,2.86,3.32l0.66,0.43c2.77,1.84,3.51,3.51,3.51,5.09a3.89,3.89,0,0,1-2,3.28,7,7,0,0,1-3.54.83A8.29,8.29,0,0,1,58.2,29.38Z" style="fill:#2e2a25"/><path d="M80.12,23.07c-0.07,0-.11,0-0.07-0.14l2-5.33c0.11-.3.23-0.3,0.34,0l2.16,5.33c0,0.08,0,.14-0.09.14H80.12Zm-3.19,4.36c-0.41,1-.86,1.74-1.91,1.86l-0.66,0c-0.11,0-.2,0-0.2.12s0.14,0.16.43,0.16c1.07,0,2.32-.06,2.57-0.06s1.23,0.06,1.78.06c0.21,0,.34,0,0.34-0.16s-0.07-.12-0.23-0.12H78.82A0.76,0.76,0,0,1,78,28.75a3.68,3.68,0,0,1,.32-1.32l1.37-3.49a0.24,0.24,0,0,1,.23-0.16h4.89a0.2,0.2,0,0,1,.21.12l2.12,4.85c0.14,0.31,0,.49-0.14.53a0.16,0.16,0,0,0-.16.14c0,0.12.25,0.12,0.68,0.14,1.57,0,3.23,0,3.57,0s0.46,0,.46-0.16-0.09-.12-0.23-0.12a3.36,3.36,0,0,1-.91-0.12c-0.48-.12-1.14-0.43-2-2.19-1.39-3-5-11.15-5.31-11.9s-0.36-.71-0.5-0.71-0.23.12-.5,0.77Z" style="fill:#2e2a25;fill-rule:evenodd"/><path d="M10.25,34.5c0-1,0-1.16,0-1.37A0.31,0.31,0,0,0,10,32.77l-0.21,0a0,0,0,0,1-.05,0s0-.05.1-0.05l0.73,0,0.63,0c0.07,0,.1,0,0.1.05a0,0,0,0,1-.05,0l-0.16,0c-0.17,0-.22.14-0.23,0.36s0,0.38,0,1.37v0.89a2,2,0,0,0,.47,1.56,1.24,1.24,0,0,0,1,.35,1.33,1.33,0,0,0,1-.46,2.45,2.45,0,0,0,.37-1.55V34.5c0-1,0-1.16,0-1.37a0.31,0.31,0,0,0-.27-0.36l-0.21,0a0,0,0,0,1-.05,0s0-.05.1-0.05l0.67,0,0.53,0c0.07,0,.1,0,0.1.05a0,0,0,0,1-.05,0l-0.16,0a0.31,0.31,0,0,0-.23.36c0,0.2,0,.38,0,1.37v0.68a2.46,2.46,0,0,1-.58,1.89,1.85,1.85,0,0,1-1.3.47,1.94,1.94,0,0,1-1.3-.45,2.09,2.09,0,0,1-.55-1.66V34.5Z" style="fill:#2e2a25"/><path d="M21.63,36.59c0,0.52.08,0.68,0.25,0.73a1.39,1.39,0,0,0,.32,0,0,0,0,0,1,.05,0s0,0.05-.11.05c-0.36,0-.61,0-0.67,0l-0.61,0c-0.06,0-.1,0-0.1-0.05a0,0,0,0,1,.05,0,0.91,0.91,0,0,0,.26,0c0.16,0,.19-0.23.19-0.8V32.89c0-.25,0-0.32.07-0.32a0.78,0.78,0,0,1,.22.2l2,2.17c0.63,0.67,1.31,1.44,1.52,1.65L25,33.39c0-.41-0.05-0.55-0.25-0.6a1.68,1.68,0,0,0-.31,0s-0.05,0-.05,0,0.05,0,.13,0l0.66,0,0.54,0c0.07,0,.11,0,0.11,0a0.06,0.06,0,0,1-.07,0l-0.15,0c-0.21,0-.23.18-0.23,0.56V37c0,0.42,0,.45-0.06.45a1.42,1.42,0,0,1-.46-0.4c-0.07-.06-1-1-1.65-1.71s-1.45-1.59-1.65-1.81Z" style="fill:#2e2a25"/><path d="M33.57,35.61c0,0.61,0,1.11,0,1.37a0.31,0.31,0,0,0,.25.35l0.28,0a0,0,0,0,1,.05,0s0,0.05-.1.05l-0.78,0-0.62,0c-0.07,0-.1,0-0.1-0.05a0,0,0,0,1,.05,0l0.19,0A0.34,0.34,0,0,0,33,37c0-.27,0-0.77,0-1.37V34.5c0-1,0-1.16,0-1.37a0.31,0.31,0,0,0-.21-0.35,0.83,0.83,0,0,0-.2,0,0,0,0,0,1-.05,0s0-.05.1-0.05l0.64,0,0.62,0c0.07,0,.1,0,0.1.05a0,0,0,0,1-.05,0l-0.16,0a0.3,0.3,0,0,0-.23.36c0,0.2,0,.38,0,1.37v1.11Z" style="fill:#2e2a25"/><path d="M42.81,36.67c0.37-.85,1.21-3.05,1.35-3.51a0.91,0.91,0,0,0,.06-0.24,0.16,0.16,0,0,0-.08-0.15,0.8,0.8,0,0,0-.24,0s-0.07,0-.07,0,0-.05.14-0.05l0.62,0,0.49,0c0.07,0,.11,0,0.11,0s0,0-.08,0a0.57,0.57,0,0,0-.3.08,1.21,1.21,0,0,0-.35.59l-0.71,1.71c-0.39.92-.67,1.61-0.82,1.92a0.89,0.89,0,0,1-.27.48c-0.08,0-.11-0.09-0.23-0.39l-1.55-3.88a0.61,0.61,0,0,0-.46-0.49,1,1,0,0,0-.24,0,0,0,0,0,1-.05,0s0.06,0,.16,0l0.74,0,0.59,0c0.11,0,.17,0,0.17,0s0,0-.06,0a0.74,0.74,0,0,0-.24,0,0.13,0.13,0,0,0-.08.13,2.42,2.42,0,0,0,.17.52Z" style="fill:#2e2a25"/><path d="M51.71,34.5c0-1,0-1.16,0-1.37a0.31,0.31,0,0,0-.27-0.36l-0.21,0a0,0,0,0,1-.05,0s0-.05.1-0.05h2.16l0.27,0a0.5,0.5,0,0,1,.09,0s0,0,0,.06,0,0.12-.05.3,0,0.34,0,.42a0.07,0.07,0,0,1,0,.07s-0.05,0-.05-0.08a0.68,0.68,0,0,0,0-.23,0.43,0.43,0,0,0-.45-0.21c-0.11,0-.8,0-0.87,0s0,0,0,.06v1.74s0,0.06,0,.06,0.86,0,1,0a0.42,0.42,0,0,0,.3-0.09,0.19,0.19,0,0,1,.09-0.08s0,0,0,.05,0,0.15-.05.35,0,0.36,0,.4,0,0.12,0,.12a0,0,0,0,1,0-.06,0.65,0.65,0,0,0,0-.21A0.31,0.31,0,0,0,53.19,35c-0.17,0-.8,0-0.9,0a0,0,0,0,0,0,0v0.56c0,0.21,0,.95,0,1.08,0,0.44.11,0.52,0.73,0.52a1.81,1.81,0,0,0,.61-0.07,0.5,0.5,0,0,0,.28-0.45c0-.07,0-0.09.06-0.09s0,0.05,0,.09a6.17,6.17,0,0,1-.08.61c0,0.16-.09.16-0.34,0.16l-1.07,0-0.49,0H51.36c-0.07,0-.1,0-0.1-0.05a0,0,0,0,1,.05,0l0.19,0A0.34,0.34,0,0,0,51.68,37c0-.27,0-0.77,0-1.37V34.5Z" style="fill:#2e2a25"/><path d="M61.18,34.5c0-1,0-1.16,0-1.37a0.31,0.31,0,0,0-.27-0.36l-0.21,0a0,0,0,0,1-.05,0s0-.05.1-0.05l0.71,0,0.75,0a2,2,0,0,1,1.16.28,1.11,1.11,0,0,1,.44.86A2,2,0,0,1,63,35.26c0.52,0.66.95,1.23,1.31,1.62a1.31,1.31,0,0,0,.77.46l0.25,0a0.05,0.05,0,0,1,.06,0s0,0.05-.15.05H64.81a1.28,1.28,0,0,1-.68-0.12,3.3,3.3,0,0,1-.85-0.93C63,36,62.72,35.63,62.59,35.46a0.1,0.1,0,0,0-.08,0H61.73a0,0,0,0,0,0,.05v0.15c0,0.61,0,1.11,0,1.37a0.31,0.31,0,0,0,.25.35l0.28,0a0,0,0,0,1,.05,0s0,0.05-.1.05l-0.78,0-0.59,0c-0.07,0-.1,0-0.1-0.05a0,0,0,0,1,.05,0l0.19,0A0.34,0.34,0,0,0,61.15,37c0-.27,0-0.77,0-1.37V34.5ZM61.69,35a0.08,0.08,0,0,0,0,.08,1.74,1.74,0,0,0,.66.1,0.82,0.82,0,0,0,.47-0.12,1.15,1.15,0,0,0,.39-1,1.1,1.1,0,0,0-1.09-1.26,1.92,1.92,0,0,0-.42,0,0.08,0.08,0,0,0-.05.08V35Z" style="fill:#2e2a25"/><path d="M71.14,37.36c-0.09,0-.09-0.07-0.09-0.24s0-.57,0-0.67,0-.1.05-0.1,0,0,0,.07a1.11,1.11,0,0,0,0,.23,0.86,0.86,0,0,0,.94.64,0.84,0.84,0,0,0,.9-0.84,1.4,1.4,0,0,0-.73-1.14L72,35.09a1.69,1.69,0,0,1-.82-1.37,1.16,1.16,0,0,1,1.31-1.14,2.45,2.45,0,0,1,.59.06l0.22,0c0.05,0,.06,0,0.06,0s0,0.24,0,.67c0,0.1,0,.15,0,0.15s0,0-.05-0.08a1.1,1.1,0,0,0-.08-0.32,0.81,0.81,0,0,0-.79-0.34,0.72,0.72,0,0,0-.78.73,1.35,1.35,0,0,0,.77,1.06l0.18,0.14a1.78,1.78,0,0,1,.92,1.49,1.31,1.31,0,0,1-.54,1,1.66,1.66,0,0,1-1,.27A1.92,1.92,0,0,1,71.14,37.36Z" style="fill:#2e2a25"/><path d="M81.29,35.61c0,0.61,0,1.11,0,1.37a0.3,0.3,0,0,0,.25.35l0.28,0a0,0,0,0,1,.05,0s0,0.05-.1.05l-0.78,0-0.62,0c-0.07,0-.1,0-0.1-0.05a0,0,0,0,1,.05,0l0.19,0A0.34,0.34,0,0,0,80.73,37c0-.27,0-0.77,0-1.37V34.5c0-1,0-1.16,0-1.37a0.31,0.31,0,0,0-.21-0.35,0.83,0.83,0,0,0-.2,0,0,0,0,0,1-.05,0s0-.05.1-0.05l0.64,0,0.62,0c0.07,0,.1,0,0.1.05a0,0,0,0,1-.05,0l-0.16,0a0.3,0.3,0,0,0-.23.36c0,0.2,0,.38,0,1.37v1.11Z" style="fill:#2e2a25"/><path d="M90.49,35.61c0,0.61,0,1.11,0,1.37a0.31,0.31,0,0,0,.25.35l0.28,0a0,0,0,0,1,.05,0s0,0.05-.1.05l-0.78,0-0.62,0c-0.07,0-.1,0-0.1-0.05a0,0,0,0,1,.05,0l0.19,0A0.34,0.34,0,0,0,89.93,37c0-.27,0-0.77,0-1.37V32.94H89a0.68,0.68,0,0,0-.64.2,1.12,1.12,0,0,0-.11.2,0.07,0.07,0,0,1-.06.06s0,0,0-.06,0.13-.61.14-0.66a0.21,0.21,0,0,1,.06-0.12,1.17,1.17,0,0,0,.28.08l0.5,0h2.37a2.52,2.52,0,0,0,.45,0l0.18,0s0,0,0,.08c0,0.19,0,.63,0,0.7s0,0.08,0,.08,0,0-.05-0.11V33.3c0-.19-0.17-0.33-0.78-0.35h-0.8v2.67Z" style="fill:#2e2a25"/><path d="M99.81,35.81a1.34,1.34,0,0,0-.15-0.66c0-.1-0.89-1.49-1.11-1.82a1.77,1.77,0,0,0-.43-0.47,0.6,0.6,0,0,0-.27-0.1,0.05,0.05,0,0,1-.06,0s0,0,.08,0l0.63,0,0.53,0c0.07,0,.08,0,0.08,0a0.13,0.13,0,0,1-.09.06,0.13,0.13,0,0,0-.08.11,0.54,0.54,0,0,0,.08.25c0.1,0.18,1,1.81,1.16,2,0.12-.27.92-1.65,1-1.86a0.62,0.62,0,0,0,.11-0.32,0.16,0.16,0,0,0-.1-0.18,0.1,0.1,0,0,1-.09-0.06s0,0,.1,0l0.42,0,0.61,0s0.08,0,.08,0,0,0.05-.08.05a0.6,0.6,0,0,0-.29.09,1.2,1.2,0,0,0-.33.32,20.1,20.1,0,0,0-1.21,2,1.51,1.51,0,0,0-.09.63v0.54c0,0.1,0,.37,0,0.63a0.31,0.31,0,0,0,.26.35l0.28,0a0,0,0,0,1,.05,0s0,0.05-.1.05l-0.78,0-0.62,0c-0.07,0-.1,0-0.1-0.05a0,0,0,0,1,.05,0l0.19,0a0.33,0.33,0,0,0,.2-0.35c0-.27,0-0.53,0-0.63V35.81Z" style="fill:#2e2a25"/><path d="M111.91,28.17a0.94,0.94,0,1,1-.94.94,0.93,0.93,0,0,1,.94-0.94h0Zm0,1.8a0.85,0.85,0,1,0-.85-0.85,0.83,0.83,0,0,0,.85.85h0Zm0.24-.32a0.26,0.26,0,0,1-.05-0.12l0-.14a0.21,0.21,0,0,0-.23-0.15h-0.09v0.41h-0.23V28.54H112a0.34,0.34,0,0,1,.41.34,0.28,0.28,0,0,1-.31.29,0.25,0.25,0,0,1,.24.18l0,0.17a0.38,0.38,0,0,0,.07.14h-0.25Zm-0.41-.58h0.15c0.19,0,.24-0.06.24-0.17a0.18,0.18,0,0,0-.21-0.17h-0.18v0.34h0Z" style="fill:#2e2a25"/><path d="M138.6,20.46c-2,0-3.28-.75-3.28-3.49v-1c0-2.74,1.3-3.48,3.28-3.48a10.83,10.83,0,0,1,1.93.2v1.77h-1l-0.1-.68-0.78,0c-1.29,0-1.91.46-1.91,2.21v1c0,1.76.62,2.23,1.91,2.23l0.78,0,0.1-.7h1v1.78A10.92,10.92,0,0,1,138.6,20.46Z" style="fill:#2e2a25"/><path d="M144.27,20.45a2.36,2.36,0,0,1-2.63-2.7V17a2.63,2.63,0,1,1,5.27,0v0.71A2.37,2.37,0,0,1,144.27,20.45ZM145.54,17c0-1.12-.39-1.54-1.27-1.54S143,15.92,143,17v0.71c0,1.12.38,1.54,1.26,1.54s1.27-.42,1.27-1.54V17Z" style="fill:#2e2a25"/><path d="M147.92,20.31V19.22l0.51-.05V13.4l-0.51-.05V12.27h1.87v6.9l0.52,0.05v1.09h-2.39Z" style="fill:#2e2a25"/><path d="M151.22,20.31V19.22l0.51-.05V13.4l-0.51-.05V12.27h1.87v6.9l0.52,0.05v1.09h-2.39Z" style="fill:#2e2a25"/><path d="M156,17.83v0.09c0,0.86.11,1.41,1.54,1.41a19.41,19.41,0,0,0,2.1-.13v1a8.75,8.75,0,0,1-2.16.25c-2.09,0-2.84-.83-2.84-2.78V17.18c0-1.9.92-2.84,2.63-2.84,1.94,0,2.63,1.25,2.63,3v0.53H156Zm2.54-1a1.27,1.27,0,1,0-2.52,0v0.08h2.52V16.84Z" style="fill:#2e2a25"/><path d="M163.49,22.57c-1.86,0-2.66-.58-2.66-1.84a1.67,1.67,0,0,1,.54-1.2,1,1,0,0,1-.47-0.87,1,1,0,0,1,.52-0.92,1.88,1.88,0,0,1-.46-1.39c0-1.16.46-2,2.56-2h2.74v0.83l-0.57.1a1.76,1.76,0,0,1,.34,1.09c0,1.42-.88,2-2.54,2a3.91,3.91,0,0,1-1.26-.18,0.47,0.47,0,0,0-.22.36c0,0.26.15,0.31,0.51,0.31h1c1.71,0,2.73.26,2.73,1.82C166.22,22,165.35,22.57,163.49,22.57Zm0-2.71h-1a1.09,1.09,0,0,0-.31.86c0,0.6.21,0.89,1.35,0.89s1.41-.29,1.41-0.89S164.63,19.86,163.49,19.86Zm0-4.52c-1.05,0-1.2.4-1.2,1s0.19,1,1.2,1,1.22-.39,1.22-1S164.53,15.34,163.49,15.34Z" style="fill:#2e2a25"/><path d="M168.63,17.83v0.09c0,0.86.11,1.41,1.54,1.41a19.41,19.41,0,0,0,2.1-.13v1a8.75,8.75,0,0,1-2.16.25c-2.09,0-2.84-.83-2.84-2.78V17.18c0-1.9.92-2.84,2.63-2.84,1.94,0,2.63,1.25,2.63,3v0.53h-3.89Zm2.54-1a1.27,1.27,0,1,0-2.52,0v0.08h2.52V16.84Z" style="fill:#2e2a25"/><path d="M178.24,20.45a2.36,2.36,0,0,1-2.63-2.7V17a2.63,2.63,0,1,1,5.27,0v0.71A2.37,2.37,0,0,1,178.24,20.45ZM179.52,17c0-1.12-.39-1.54-1.27-1.54S177,15.92,177,17v0.71c0,1.12.38,1.54,1.26,1.54s1.27-.42,1.27-1.54V17Z" style="fill:#2e2a25"/><path d="M184.21,15.57v3.6l0.51,0.05v1.09h-2.39V19.22l0.52-.05v-3.6l-1-.08v-1h1V13.93c0-1.07.3-1.81,1.62-1.81a5.65,5.65,0,0,1,1.25.15v0.88c-0.29,0-.6,0-0.91,0-0.57,0-.6.23-0.6,0.83v0.54h1.49v1.09h-1.49Z" style="fill:#2e2a25"/><path d="M191.94,20.46c-2,0-3.28-.75-3.28-3.49v-1c0-2.74,1.3-3.48,3.28-3.48a10.83,10.83,0,0,1,1.93.2v1.77h-1l-0.1-.68-0.78,0c-1.29,0-1.91.46-1.91,2.21v1c0,1.76.62,2.23,1.91,2.23l0.78,0,0.1-.7h1v1.78A10.92,10.92,0,0,1,191.94,20.46Z" style="fill:#2e2a25"/><path d="M197.62,20.45a2.36,2.36,0,0,1-2.63-2.7V17a2.63,2.63,0,1,1,5.27,0v0.71A2.37,2.37,0,0,1,197.62,20.45ZM198.89,17c0-1.12-.39-1.54-1.27-1.54s-1.26.42-1.26,1.54v0.71c0,1.12.38,1.54,1.26,1.54s1.27-.42,1.27-1.54V17Z" style="fill:#2e2a25"/><path d="M208.34,20.31V16.49c0-.64,0-1-0.73-1a2.81,2.81,0,0,0-1.21.36,5,5,0,0,1,0,.66v3.82h-1.37V16.49c0-.65,0-1-0.68-1a3.05,3.05,0,0,0-1.24.38v3.32l0.52,0.05v1.09h-2.39V19.22l0.51-.05V15.62l-0.51-.05V14.48h1.82v0.46a2.84,2.84,0,0,1,1.74-.61,1.39,1.39,0,0,1,1.32.63,3.19,3.19,0,0,1,1.81-.63c1.63,0,1.75,1.08,1.75,2.13v2.7l0.52,0.05v1.09h-1.88Z" style="fill:#2e2a25"/><path d="M218.21,20.31V16.49c0-.64,0-1-0.73-1a2.81,2.81,0,0,0-1.21.36,5,5,0,0,1,0,.66v3.82h-1.37V16.49c0-.65,0-1-0.68-1a3.05,3.05,0,0,0-1.24.38v3.32l0.52,0.05v1.09h-2.39V19.22l0.51-.05V15.62l-0.51-.05V14.48H213v0.46a2.84,2.84,0,0,1,1.74-.61A1.39,1.39,0,0,1,216,15a3.19,3.19,0,0,1,1.81-.63c1.63,0,1.75,1.08,1.75,2.13v2.7l0.52,0.05v1.09h-1.88Z" style="fill:#2e2a25"/><path d="M225.27,20.31V19.84a4.23,4.23,0,0,1-2,.61c-1.51,0-1.75-1.07-1.75-2.27V15.62L221,15.57V14.48h1.87v3.7c0,0.83.16,1.12,0.84,1.12a4.39,4.39,0,0,0,1.51-.39V15.62l-0.51-.05V14.48h1.87v4.69l0.52,0.05v1.09h-1.83Z" style="fill:#2e2a25"/><path d="M232.23,20.31V16.62c0-.84-0.14-1.13-0.82-1.13a4.43,4.43,0,0,0-1.53.39v3.29l0.52,0.05v1.09H228V19.22l0.51-.05V15.62L228,15.57V14.48h1.82v0.46a3.9,3.9,0,0,1,1.91-.61c1.65,0,1.85,1,1.85,2.28v2.55l0.52,0.05v1.09h-1.88Z" style="fill:#2e2a25"/><path d="M235,20.31V19.22l0.51-.05V15.62L235,15.57V14.48h1.88v4.69l0.51,0.05v1.09H235Zm0.49-6.72V12.27h1.42v1.31H235.5Z" style="fill:#2e2a25"/><path d="M240.88,20.45c-1.68,0-2.45-.94-2.45-2.69V17c0-1.77.78-2.68,2.45-2.68a6.66,6.66,0,0,1,1.8.22V16h-0.92l-0.09-.51a5.66,5.66,0,0,0-.57,0c-0.83,0-1.3.27-1.3,1.52v0.75c0,1.25.48,1.53,1.31,1.53,0.33,0,.84,0,1.57-0.08v1A6.7,6.7,0,0,1,240.88,20.45Z" style="fill:#2e2a25"/><path d="M247.26,20.31V19.93a3.32,3.32,0,0,1-1.83.53,1.5,1.5,0,0,1-1.72-1.65V18.57c0-1.54,1.12-1.76,2.75-1.76h0.69V16.46c0-.83-0.18-1-1.21-1-0.27,0-.52,0-0.8,0l-0.09.52h-0.94V14.65a7,7,0,0,1,2.06-.31c1.86,0,2.36.63,2.36,2.12v2.71L249,19.22v1.09h-1.78Zm-0.06-2.65h-0.73c-1,0-1.43.11-1.43,0.87v0.26a0.66,0.66,0,0,0,.82.68,3,3,0,0,0,1.34-.35V17.66Z" style="fill:#2e2a25"/><path d="M252.63,20.45c-1.15,0-1.6-.44-1.6-1.67V15.57l-1.09-.08v-1H251V13h1.37v1.45h1.42v1.09H252.4v3.2c0,0.54,0,.64.54,0.64,0.3,0,.71,0,0.88,0V20.3A5.13,5.13,0,0,1,252.63,20.45Z" style="fill:#2e2a25"/><path d="M254.77,20.31V19.22l0.51-.05V15.62l-0.51-.05V14.48h1.88v4.69l0.51,0.05v1.09h-2.39Zm0.49-6.72V12.27h1.42v1.31h-1.42Z" style="fill:#2e2a25"/><path d="M260.8,20.45a2.36,2.36,0,0,1-2.63-2.7V17a2.63,2.63,0,1,1,5.27,0v0.71A2.37,2.37,0,0,1,260.8,20.45ZM262.07,17c0-1.12-.39-1.54-1.27-1.54s-1.26.42-1.26,1.54v0.71c0,1.12.38,1.54,1.26,1.54s1.27-.42,1.27-1.54V17Z" style="fill:#2e2a25"/><path d="M268.67,20.31V16.62c0-.84-0.14-1.13-0.82-1.13a4.43,4.43,0,0,0-1.53.39v3.29l0.52,0.05v1.09h-2.39V19.22l0.51-.05V15.62l-0.51-.05V14.48h1.82v0.46a3.9,3.9,0,0,1,1.91-.61c1.65,0,1.85,1,1.85,2.28v2.55l0.52,0.05v1.09h-1.88Z" style="fill:#2e2a25"/><path d="M138.83,32.72V32.33a3.31,3.31,0,0,1-1.83.53,1.51,1.51,0,0,1-1.72-1.66V31c0-1.54,1.12-1.76,2.75-1.76h0.69V28.87c0-.83-0.18-1-1.21-1-0.27,0-.52,0-0.8,0l-0.09.52h-0.94V27.06a7,7,0,0,1,2.06-.31c1.86,0,2.36.63,2.36,2.12v2.71l0.51,0.05v1.09h-1.78Zm-0.06-2.65H138c-1,0-1.43.11-1.43,0.87V31.2a0.66,0.66,0,0,0,.82.68,3,3,0,0,0,1.34-.35V30.07Z" style="fill:#2e2a25"/><path d="M145.74,32.72V29c0-.84-0.14-1.13-0.82-1.13a4.41,4.41,0,0,0-1.53.39v3.29l0.52,0.05v1.09h-2.39V31.63l0.51-.05V28L141.52,28V26.89h1.82v0.47a3.88,3.88,0,0,1,1.91-.61c1.65,0,1.85,1,1.85,2.28v2.56l0.52,0.05v1.09h-1.88Z" style="fill:#2e2a25"/><path d="M152.45,32.72v-0.3a3.06,3.06,0,0,1-1.63.45c-1.37,0-2.17-.82-2.17-2.6V29.44c0-2.06,1-2.69,2.51-2.69a6.5,6.5,0,0,1,1.21.11V25.68l-0.58-.05v-1h1.95v6.9l0.52,0.05v1.09h-1.8ZM152.38,28a7.82,7.82,0,0,0-1.09-.1c-0.83,0-1.28.23-1.28,1.55v0.83c0,1,.33,1.45,1.18,1.45a3,3,0,0,0,1.19-.26V28Z" style="fill:#2e2a25"/><path d="M157.25,32.72v-1.1l0.53-.05V26.18l-0.53-.05V25h2.49v1.1l-0.52.05v5.39l0.52,0.05v1.1h-2.49Z" style="fill:#2e2a25"/><path d="M164.94,32.72V29c0-.84-0.14-1.13-0.82-1.13a4.41,4.41,0,0,0-1.53.39v3.29l0.52,0.05v1.09h-2.39V31.63l0.51-.05V28L160.72,28V26.89h1.82v0.47a3.88,3.88,0,0,1,1.91-.61c1.65,0,1.85,1,1.85,2.28v2.56l0.52,0.05v1.09h-1.88Z" style="fill:#2e2a25"/><path d="M170,28v3.6l0.51,0.05v1.09h-2.39V31.63l0.52-.05V28l-1-.08v-1h1V26.33c0-1.06.3-1.81,1.62-1.81a5.65,5.65,0,0,1,1.25.16v0.88c-0.29,0-.6,0-0.91,0-0.57,0-.6.23-0.6,0.83v0.54h1.49V28H170Z" style="fill:#2e2a25"/><path d="M175.11,32.86a2.37,2.37,0,0,1-2.63-2.7V29.45a2.63,2.63,0,1,1,5.27,0v0.71A2.37,2.37,0,0,1,175.11,32.86Zm1.27-3.41c0-1.12-.39-1.54-1.27-1.54s-1.26.42-1.26,1.54v0.71c0,1.12.38,1.54,1.26,1.54s1.27-.42,1.27-1.54V29.45Z" style="fill:#2e2a25"/><path d="M180.63,28.34v3.24l0.52,0.05v1.09h-2.39V31.63l0.51-.05V28L178.76,28V26.89h1.8v0.48a3,3,0,0,1,2-.62V28A5.37,5.37,0,0,0,180.63,28.34Z" style="fill:#2e2a25"/><path d="M190.45,32.72V28.9c0-.64,0-1-0.73-1a2.82,2.82,0,0,0-1.21.36,5,5,0,0,1,0,.66v3.82h-1.37V28.9c0-.65,0-1-0.68-1a3.05,3.05,0,0,0-1.24.38v3.32l0.52,0.05v1.09h-2.39V31.63l0.51-.05V28L183.37,28V26.89h1.82v0.47a2.83,2.83,0,0,1,1.74-.61,1.39,1.39,0,0,1,1.32.63,3.19,3.19,0,0,1,1.81-.63c1.63,0,1.75,1.08,1.75,2.13v2.7l0.52,0.05v1.09h-1.88Z" style="fill:#2e2a25"/><path d="M196.85,32.72V32.33a3.31,3.31,0,0,1-1.83.53,1.51,1.51,0,0,1-1.72-1.66V31c0-1.54,1.12-1.76,2.75-1.76h0.69V28.87c0-.83-0.18-1-1.21-1-0.27,0-.52,0-0.8,0l-0.09.52H193.7V27.06a7,7,0,0,1,2.06-.31c1.86,0,2.36.63,2.36,2.12v2.71l0.51,0.05v1.09h-1.78Zm-0.06-2.65h-0.73c-1,0-1.43.11-1.43,0.87V31.2a0.66,0.66,0,0,0,.82.68,3,3,0,0,0,1.34-.35V30.07Z" style="fill:#2e2a25"/><path d="M202.22,32.86c-1.15,0-1.6-.45-1.6-1.67V28l-1.09-.08v-1h1.09V25.44H202v1.45h1.42V28H202v3.2c0,0.54,0,.64.54,0.64,0.3,0,.71,0,0.88,0v0.93A5,5,0,0,1,202.22,32.86Z" style="fill:#2e2a25"/><path d="M204.36,32.72V31.63l0.51-.05V28L204.36,28V26.89h1.88v4.69l0.51,0.05v1.09h-2.39ZM204.85,26V24.68h1.42V26h-1.42Z" style="fill:#2e2a25"/><path d="M210.39,32.86a2.37,2.37,0,0,1-2.63-2.7V29.45a2.63,2.63,0,1,1,5.27,0v0.71A2.37,2.37,0,0,1,210.39,32.86Zm1.27-3.41c0-1.12-.39-1.54-1.27-1.54s-1.26.42-1.26,1.54v0.71c0,1.12.38,1.54,1.26,1.54s1.27-.42,1.27-1.54V29.45Z" style="fill:#2e2a25"/><path d="M218.26,32.72V29c0-.84-0.14-1.13-0.82-1.13a4.41,4.41,0,0,0-1.53.39v3.29l0.52,0.05v1.09H214V31.63l0.51-.05V28L214,28V26.89h1.82v0.47a3.88,3.88,0,0,1,1.91-.61c1.65,0,1.85,1,1.85,2.28v2.56l0.52,0.05v1.09h-1.88Z" style="fill:#2e2a25"/><rect x="122.12" y="0.97" width="0.52" height="45.11" style="fill:#2e2a25"/></svg>