<?xml version="1.0" encoding="utf-8"?>
<!-- Generator: Adobe Illustrator 18.0.0, SVG Export Plug-In . SVG Version: 6.00 Build 0)  -->
<!DOCTYPE svg PUBLIC "-//W3C//DTD SVG 1.1//EN" "http://www.w3.org/Graphics/SVG/1.1/DTD/svg11.dtd">
<svg version="1.1" id="Layer_1" xmlns="http://www.w3.org/2000/svg" xmlns:xlink="http://www.w3.org/1999/xlink" x="0px" y="0px"
	 viewBox="0 0 45 45" enable-background="new 0 0 45 45" xml:space="preserve">
<g>
	<path fill="#1A5EAB" d="M36.6,35.1V19.7h-3.2c0.3,1,0.5,2,0.5,3.1c0,2-0.5,3.8-1.5,5.5s-2.4,3-4.1,4c-1.7,1-3.7,1.5-5.7,1.5
		c-3.1,0-5.8-1.1-8-3.2s-3.3-4.8-3.3-7.8c0-1.1,0.2-2.1,0.5-3.1H8.3v15.4c0,0.4,0.1,0.8,0.4,1c0.3,0.3,0.6,0.4,1,0.4h25.5
		c0.4,0,0.7-0.1,1-0.4C36.5,35.9,36.6,35.5,36.6,35.1z M29.9,22.4c0-2-0.7-3.6-2.2-5s-3.2-2.1-5.2-2.1c-2,0-3.7,0.7-5.2,2.1
		s-2.2,3.1-2.2,5s0.7,3.6,2.2,5c1.4,1.4,3.2,2.1,5.2,2.1c2,0,3.8-0.7,5.2-2.1C29.2,26.1,29.9,24.4,29.9,22.4z M36.6,13.9V9.9
		c0-0.4-0.2-0.8-0.5-1.2c-0.3-0.3-0.7-0.5-1.2-0.5h-4.1c-0.5,0-0.8,0.2-1.2,0.5c-0.3,0.3-0.5,0.7-0.5,1.2v3.9c0,0.5,0.2,0.8,0.5,1.2
		c0.3,0.3,0.7,0.5,1.2,0.5H35c0.5,0,0.8-0.2,1.2-0.5C36.5,14.7,36.6,14.3,36.6,13.9z M40.8,8.9v27.2c0,1.3-0.5,2.4-1.4,3.3
		c-0.9,0.9-2,1.4-3.3,1.4H8.9c-1.3,0-2.4-0.5-3.3-1.4c-0.9-0.9-1.4-2-1.4-3.3V8.9c0-1.3,0.5-2.4,1.4-3.3s2-1.4,3.3-1.4h27.2
		c1.3,0,2.4,0.5,3.3,1.4C40.3,6.5,40.8,7.6,40.8,8.9z"/>
</g>
</svg>
