<svg xmlns="http://www.w3.org/2000/svg" viewBox="0 0 52 45" x="0px" y="0px"><title>video</title><path d="M375,254H329a3,3,0,0,0-3,3v30a3,3,0,0,0,3,3h46a3,3,0,0,0,3-3V257A3,3,0,0,0,375,254Zm-17.3,18.7-11.1,6.6c-0.7.4-.5,0.1-0.5-0.7V265.4c0-.8-0.1-1.1.5-0.7l10.8,6.6C358,271.7,358.3,272.3,357.7,272.7Z" transform="translate(-326 -254)"/><text x="0" y="51" fill="#000000" font-size="5px" font-weight="bold" font-family="'Helvetica Neue', Helvetica, Arial-Unicode, Arial, Sans-serif">Created by Ismael Ruiz</text><text x="0" y="56" fill="#000000" font-size="5px" font-weight="bold" font-family="'Helvetica Neue', Helvetica, Arial-Unicode, Arial, Sans-serif">from the Noun Project</text></svg>