<?xml version="1.0" encoding="utf-8"?>
<!-- Generator: Adobe Illustrator 18.0.0, SVG Export Plug-In . SVG Version: 6.00 Build 0)  -->
<!DOCTYPE svg PUBLIC "-//W3C//DTD SVG 1.1//EN" "http://www.w3.org/Graphics/SVG/1.1/DTD/svg11.dtd">
<svg version="1.1" id="Layer_1" xmlns="http://www.w3.org/2000/svg" xmlns:xlink="http://www.w3.org/1999/xlink" x="0px" y="0px"
	 viewBox="0 0 415 212" style="enable-background:new 0 0 415 212;" xml:space="preserve">
<style type="text/css">
	.st0{fill:#4D4D4F;}
	.st1{fill:#FFFFFF;}
	.st2{fill:#4D4D4F;stroke:#003DA6;stroke-width:0.6736;stroke-miterlimit:3.8637;}
	.st3{fill:#4E4E50;}
</style>
<g>
	<path class="st0" d="M354.9,164.7c0.3,0.1,0.5,0.1,0.7,0.1c1.7,0,1.8,0.2,1.8,1.8c0,1.6,0,3.3,0,4.9c0,0.3-0.1,0.7-0.1,1h-7.9
		c0-2.2,0-4.5,0-6.7c0-0.7,0.4-0.9,1-1c0.5,0,1,0,1.6,0v-1.4h-9.6v1.3c0.3,0,0.5,0.1,0.8,0.1c1.5,0,1.7,0.2,1.7,1.8c0,3,0,5.9,0,8.9
		c0,2.1,0,4.2,0,6.2c0,0.8-0.3,1.2-1.2,1.2c-0.5-0.1-0.9-0.1-1.3-0.1v1.4h9.6c0-0.3,0.1-0.5,0.1-0.7c0-0.2-0.1-0.4-0.1-0.7
		c-0.4,0-0.7,0.1-1,0c-1.5,0-1.6-0.1-1.6-1.6c0-1.9,0-3.7,0-5.6v-1.2h7.9c0,2.5,0,5,0,7.5c0,0.7-0.4,1-1,1c-0.5-0.1-1-0.1-1.5-0.1
		v1.4h9.6v-1.4c-0.5,0-0.9,0-1.3,0.1c-0.9,0-1.2-0.4-1.2-1.2c-0.1-5.3,0-10.5-0.1-15.7c0-0.7,0.4-1.1,1.1-1.1c0.5,0,1,0,1.5,0v-1.4
		h-9.5V164.7z"/>
	<path class="st0" d="M182.7,175.5c-1-0.4-2.1-0.7-3.1-1c0.8-0.4,1.8-0.8,2.6-1.3c3.1-1.9,3-6-0.3-7.7c-1.1-0.6-2.4-0.8-3.7-0.9
		c-4-0.1-7.9-0.1-11.9-0.1c-0.3,0-0.6,0.1-0.9,0.1v1.4c0.6,0,1.2,0,1.8,0c0.8,0,1.2,0.4,1.1,1.2c0,2.2,0,4.5,0,6.7
		c0,2.9,0,5.7,0,8.6c0,1.2-0.3,1.6-1.6,1.6c-0.5,0-0.9,0-1.4,0v1.3c0.2,0.1,0.3,0.1,0.4,0.1c3.8,0,7.7,0,11.5,0
		c1.8,0,3.6-0.3,5.3-1.1c1.9-0.8,2.9-2.3,2.9-4.4C185.6,177.8,184.5,176.3,182.7,175.5z M173,166.9c0-0.3,0.5-0.8,0.8-0.8
		c1.4,0.1,2.8,0.2,4.1,0.3c0.3,0,0.7,0.3,0.9,0.5c1.1,1.3,1,2.8,0.7,4.3c-0.3,1.4-1.1,2.2-2.4,2.4c-1.4,0.2-2.8,0.3-4.2,0.4
		C173,171.5,172.9,169.2,173,166.9z M180.7,180.3c-0.2,2.2-1.5,3.5-3.6,3.6c-1,0.1-2,0.1-3,0.1c-0.6,0-1.1-0.3-1.1-0.9
		c-0.1-2.6,0-5.1,0-7.9c1.6,0.1,3.2,0,4.7,0.3C179.8,175.9,180.9,177.7,180.7,180.3z"/>
	<path class="st0" d="M207.5,182.3c-0.2,0.3-0.5,0.7-0.7,0.7c-0.3,0-0.7-0.4-0.8-0.7c-0.3-0.6-0.4-1.4-0.7-2
		c-0.5-1.1-0.9-2.3-1.6-3.4c-0.6-1.1-1.8-1.7-3-2c1.2-0.4,2.5-0.7,3.7-1.3c3.2-1.8,3.3-6,0.1-7.9c-1-0.6-2.3-1-3.5-1.1
		c-4.1-0.2-8.3-0.1-12.4-0.1c-0.1,0-0.3,0.1-0.3,0.1v1.2c0.6,0,1.1,0,1.6,0c0.8-0.1,1.2,0.4,1.2,1.2c0,5.2,0,10.4,0,15.6
		c0,0.8-0.4,1.2-1.2,1.2c-0.6,0.1-1.1,0.1-1.7,0.1v1.2h10.5l-0.1-1.3c-0.6,0-1.2,0-1.8-0.1c-1-0.1-1.2-0.4-1.3-1.4
		c0-0.9,0-1.7,0-2.6v-4.6c2.7-0.4,3.8,0.3,4.6,2.8c0.1,0.2,0.1,0.4,0.1,0.5c0.3,1.4,0.6,2.8,0.9,4.1c0.3,1.1,0.8,2,1.9,2.4
		c1.5,0.6,3,0.5,4.2-0.4c1.4-1,1.5-2.5,1.6-4.1h-1.1C207.7,181.3,207.7,181.8,207.5,182.3z M199,173.7c-1,0.2-2.1,0.2-3.2,0.3
		c0-2.4-0.1-4.7,0-7c0.1-0.3,0.6-0.9,0.8-0.8c1.2,0,2.5,0.1,3.7,0.3c0.5,0.1,1,0.6,1.2,1C203.2,169.9,201.8,173.2,199,173.7z"/>
	<path class="st0" d="M252.8,182.4c-0.1,0.3-0.4,0.7-0.6,0.6c-0.3,0-0.7-0.3-0.8-0.6c-0.3-0.7-0.5-1.5-0.7-2.3
		c-0.8-2.3-1.7-4.6-4.5-5.2c1.3-0.5,2.6-0.7,3.7-1.4c3.2-1.8,3.2-6.2-0.2-7.9c-1-0.6-2.2-0.9-3.4-1c-4.1-0.2-8.2-0.1-12.2-0.1
		c-0.1,0-0.2,0.1-0.3,0.1v1.3c0.3,0,0.5,0,0.8,0c1.9,0,2,0.1,2,2.1c0,4.4,0,8.8,0,13.2c0,0.6,0,1.1,0,1.7c-0.1,0.7-0.4,1-1.1,1.1
		c-0.6,0.1-1.1,0.1-1.7,0.1v1.2h10.4V184c-0.3,0-0.6,0-0.9,0c-0.3,0-0.6,0-0.8,0c-1-0.1-1.4-0.4-1.4-1.5c0-1.9,0-3.7,0-5.6v-1.6
		c2.9-0.4,3.9,0.3,4.6,3c0.4,1.5,0.7,3,1,4.5c0.3,1,0.7,1.9,1.7,2.3c1.5,0.6,3,0.6,4.4-0.4c1.3-1,1.5-2.5,1.6-4.1h-1.2
		C253.1,181.3,253,181.8,252.8,182.4z M243.5,173.9c-0.7,0.1-1.5,0-2.3,0c0-2.3,0-4.5,0-6.8c0.1-0.7,0.4-1.1,1.1-1.1
		c0.9,0,1.9,0,2.8,0.2c1.5,0.3,2.2,1.1,2.4,2.7C247.9,171.9,246.5,173.7,243.5,173.9z"/>
	<path class="st0" d="M118.6,179.6c-0.7,2.2-2.1,3.8-4.4,4.2c-1.8,0.3-3.7,0.2-5.5,0.2c-0.8,0-1.1-0.5-1.1-1.2c0.1-1.8,0-3.6,0-5.5
		v-1.8c3.4-0.4,4.5,0.6,5.3,4.2h1.2V170h-1.3c-0.8,3.3-2.2,4.4-5.3,3.8c0-2.1,0-4.4,0-6.6c0-1,0.3-1.4,1.4-1.4
		c1.2,0,2.4-0.1,3.6,0.1c3.1,0.1,4.6,1.4,5.4,4.3c0.1,0.2,0.1,0.4,0.2,0.7c0.3,1.1,0.4,1.2,1.7,0.8c-0.2-2.3-0.3-4.7-0.5-7.1H99.1
		v1.2c0.8,0,1.5,0,2.2,0.1c0.8,0,1.3,0.4,1.3,1.3c-0.1,5.1,0,10.2-0.1,15.3c0,1-0.4,1.5-1.4,1.5c-0.7,0-1.4,0-2,0v1.3h21.1
		c0.1-2.7,0.2-5.3,0.3-7.9h-1.4C118.9,178.2,118.8,178.9,118.6,179.6z"/>
	<path class="st0" d="M328.8,163.1c-5.1,1-8.4,5.3-8.4,10.8c0,7.3,6.3,12.3,13.4,10.5c5.6-1.5,8.9-7.3,7.6-13.3
		C340,165.5,334.6,162,328.8,163.1z M335.7,179.4c-0.7,2.4-2.4,3.7-4.6,3.7c-2.3,0-4.2-1.2-4.9-3.6c-0.9-2.5-0.9-5.1-0.7-7.8
		c0.2-1.4,0.4-2.7,0.8-4c0.8-2.3,2.6-3.5,4.8-3.4c2.3,0.1,4.1,1.4,4.7,3.7c0.5,1.8,0.6,3.6,0.9,5.6
		C336.4,175.5,336.2,177.5,335.7,179.4z"/>
	<path class="st0" d="M398.9,171.1c-1.3-5.7-6.8-9.3-12.6-8c-4.4,1-7.2,3.8-8,8.2c-0.9,4.6,0.2,8.6,4.2,11.4c3.4,2.5,7.3,2.7,11,0.8
		c3.9-2,5.8-5.4,5.7-9.8C399.1,172.9,399.1,172,398.9,171.1z M394,175.9c-0.1,1.2-0.3,2.5-0.7,3.7c-0.7,2.2-2.5,3.6-4.6,3.6
		c-2.3,0.1-4.2-1.1-4.9-3.5c-0.6-1.9-0.7-3.8-1-5.8c0.1-0.1,0.2-0.1,0.3-0.1c-0.1-2.1,0.1-4.2,0.9-6.2c0.9-2.2,2.6-3.4,4.8-3.3
		c2.2,0.1,4,1.3,4.7,3.6C394.2,170.6,394.2,173.2,394,175.9z"/>
	<path class="st0" d="M31.6,174.2c-1.4-0.4-2.8-0.6-4.1-0.9c-1.5-0.4-3-0.6-4.3-1.2c-2.3-1-2.5-3.5-0.4-5c1.1-0.8,2.4-1,3.8-0.9
		c3.3,0.4,5.4,2.3,6.6,5.2c0.4,0.9,0.9,1.1,1.7,0.9l-0.1-7.1c-0.1-0.1-0.2-0.2-0.2-0.2c-0.5,0.2-0.9,0.4-1.3,0.7
		c-0.4,0.3-0.7,0.8-1,1.2c-0.1,0-0.2,0-0.2,0c-0.2-0.2-0.4-0.3-0.6-0.4c-2.9-1.8-6-2.1-9.2-1c-2.7,0.9-4.3,3.2-4.3,5.8
		c0,2.6,1.3,4.3,4.2,5.3c1.5,0.5,3,0.8,4.5,1.2s3.1,0.6,4.5,1.2c2,0.9,2.2,3.5,0.5,4.9c-0.7,0.6-1.6,1-2.4,1.2
		c-4.5,0.9-8.3-1.1-9.8-5.4c-0.4-1-0.9-1.1-1.8-0.9v7.6c1.7,0.5,1.9-1.3,3.1-1.9c0.2,0.2,0.5,0.3,0.7,0.5c3.8,2.4,8.9,2.2,12.3-0.3
		c1.1-0.8,1.9-1.9,2.1-3.3C36.9,177.9,35.2,175.3,31.6,174.2z"/>
	<path class="st0" d="M268.4,165.9c0.3,0,0.5,0.1,0.8,0.1c1.6,0.1,2.1,1,1.6,2.4c-0.1,0.3-0.2,0.5-0.4,0.7c-0.9,1.9-1.9,3.7-2.9,5.7
		c-1.6-2.7-3-5.1-4.4-7.6c-0.4-0.7-0.1-1.1,0.8-1.2c0.6-0.1,1.2,0,1.8,0v-1.3h-10.3v1.4c1.8-0.3,2.7,0.7,3.4,2
		c1.6,2.9,3.3,5.6,4.8,8.4c0.2,0.4,0.4,0.8,0.4,1.2c0.1,1.7,0,3.4,0.1,5.1c0,0.8-0.3,1.2-1.1,1.2c-0.7,0-1.5,0-2.2,0v1.4h11.3V184
		c-0.6,0-1.2,0-1.9,0c-1.2-0.1-1.5-0.4-1.5-1.6c0-1.8,0-3.5,0-5.3c0-0.5,0.2-1,0.4-1.4c1.1-2.3,2.3-4.6,3.5-6.9c0.8-1.7,1.9-3,4-3
		v-1.3h-8V165.9z"/>
	<path class="st0" d="M56.7,164.7H38.4c-0.2,2.7-0.3,5.2-0.4,7.8h1.2c0.2-0.7,0.4-1.5,0.6-2.1c0.3-0.7,0.6-1.4,0.9-2.1
		c0.7-1.2,1.7-2.1,3.1-2.3c1-0.2,1.5,0.3,1.5,1.3c0.1,5.1,0.1,10.3,0,15.5c0,0.9-0.3,1.2-1.2,1.3c-0.7,0-1.4,0-2,0v1.2h11.1v-1.2
		c-0.6,0-1.2,0-1.8,0c-1.3,0-1.6-0.3-1.6-1.6c0-5,0-10,0-15c0-1.4,0.5-1.7,1.8-1.5c1.9,0.4,2.8,1.8,3.4,3.5c0.4,1,0.6,2,0.9,3h1.2
		C57,169.8,56.9,167.3,56.7,164.7z"/>
	<path class="st0" d="M79.5,164.7c-0.2,2.7-0.3,5.2-0.4,7.8h1.1c0.5-1.4,0.9-2.8,1.6-4.1c0.6-1.3,1.6-2.2,3.1-2.4
		c1-0.2,1.6,0.3,1.6,1.4c0,5.1,0,10.2,0,15.4c0,1-0.3,1.3-1.4,1.4c-0.6,0-1.3,0-2,0v1.3h11.1v-1.3c-0.6,0-1.2,0-1.8,0
		c-1.2,0-1.5-0.3-1.5-1.5c0-5,0-10.1,0-15.1c0-1.2,0.5-1.7,1.7-1.5c1.5,0.3,2.5,1.1,3.1,2.5c0.6,1.3,0.9,2.7,1.4,4h1.1
		c-0.2-2.7-0.3-5.3-0.4-7.8H79.5z"/>
	<path class="st0" d="M229.3,181.9c-2.3-5.7-4.7-11.3-7.1-17c-0.2-0.5-0.4-0.9-1.1-0.9c-0.6,0.1-0.9,0.2-1.2,0.8
		c-2.3,5.5-4.6,11-7,16.5c-0.6,1.5-1.4,2.7-3.1,2.7v1.2h7.8v-1.2c-0.4-0.1-0.7-0.1-1.1-0.1c-1.7-0.2-2.4-1.3-1.9-2.9
		c0.2-0.7,0.5-1.3,0.8-1.9c0.1-0.3,0.5-0.6,0.8-0.6c2.2,0,4.4,0,6.6,0c0.3,0,0.6,0.3,0.7,0.5c0.5,1.1,1,2.3,1.5,3.4
		c0.3,0.8,0,1.2-0.8,1.4c-0.6,0.1-1.1,0.1-1.8,0.2v1.2h9.7V184C230.4,184.3,229.8,183.2,229.3,181.9z M216.4,177.1
		c1.1-2.5,2.1-5,3.3-7.7c1.1,2.7,2.1,5.2,3.2,7.7H216.4z"/>
	<path class="st0" d="M149.1,178.2c-0.3,1.1-0.8,2.3-1.4,3.4c-0.8,1.4-2,2.3-3.8,2.4c-1.1,0-2.2-0.1-3.3-0.1c-0.9,0-1.2-0.4-1.2-1.3
		c0-5.1,0-10.3,0-15.5c0-0.9,0.4-1.2,1.3-1.2c0.6,0,1.2,0,1.8,0v-1.3h-10.7v1.3c0.6,0,1.2,0,1.8,0c0.8,0,1.3,0.4,1.3,1.2
		c0,5.2,0,10.4,0,15.6c0,0.8-0.4,1.2-1.2,1.2c-0.6,0.1-1.2,0.1-1.8,0.1v1.3h18.3c0.2-2.7,0.3-5.3,0.5-7.9
		C149.7,177.2,149.3,177.4,149.1,178.2z"/>
	<path class="st0" d="M298.3,167.4c0.6,0,1.1-0.1,1.7,0c0.6,0,1,0.3,1,1c-0.1,4.5-0.1,8.9,0,13.4c0,0.8-0.4,1.2-1.2,1.2
		c-0.5,0-1,0-1.5,0v1.1h9.4V183c-0.6,0-1.1,0-1.6,0c-0.6-0.1-1.1-0.3-1.2-0.9c0-2.2,0-4.4,0-6.6c2.7-0.4,3.3,0.2,4.4,3.6h1v-8.2
		h-1.1c-0.7,2.8-1.9,3.7-4.3,3.2c0-1.9-0.1-3.9,0-5.8c0-0.7,0.5-0.9,1-0.9c1,0,2,0,3,0c2.2,0.1,3.4,1,4,3.2c0.2,0.6,0.3,1.2,0.4,1.9
		c0.4,0,0.7,0,0.9,0v-6.2h-15.9V167.4z"/>
	<path class="st0" d="M375,182.8c-0.8,0-1.2-0.3-1.2-1.1c0-5.3,0-10.5,0-15.8c0-0.8,0.4-1.1,1.1-1.1c0.6,0,1.2,0,1.9,0v-1.4h-10.5
		v1.4c0.7,0,1.3,0,1.9,0c0.8,0.1,1.2,0.4,1.2,1.2c0,5.3,0,10.5,0,15.7c0,0.8-0.4,1.1-1.1,1.1c-0.6,0.1-1.2,0-1.9,0v1.4h10.6v-1.4
		C376.2,182.8,375.7,182.9,375,182.8z"/>
	<path class="st0" d="M152.6,165.9h1.1c1.8,0,1.9,0.2,1.9,1.9c0,3.1,0,6.2,0,9.3c0,1.8,0,3.5,0,5.3c0,1.3-0.2,1.6-1.6,1.7
		c-0.5,0-1,0-1.6,0v1.3h10.6v-1.2c-0.7-0.1-1.4-0.1-2-0.1c-0.7-0.1-1.1-0.4-1.1-1.2c0-5.3,0-10.5,0-15.8c0-0.8,0.4-1.1,1.1-1.1
		c0.6,0,1.2,0,1.9,0v-1.3h-10.6V165.9z"/>
	<path class="st0" d="M76.4,182.1c-2.3-5.8-4.8-11.5-7.1-17.2c-0.3-0.5-0.4-0.9-1.1-0.9c-0.8,0-1,0.4-1.2,0.9
		c-2.3,5.5-4.6,10.9-6.9,16.3c-0.6,1.5-1.4,2.9-3.2,2.9v1.3h3.9h3.9v-1.3c-0.4-0.1-0.6-0.1-0.9-0.1c-1.9-0.2-2.6-1.4-2-3.1
		c0.2-0.6,0.5-1.2,0.8-1.8c0.1-0.3,0.5-0.5,0.7-0.5c2.2-0.1,4.5,0,6.7,0c0.2,0,0.6,0.2,0.7,0.4c0.5,1.2,1,2.4,1.5,3.6
		c0.3,0.7,0,1.1-0.7,1.3c-0.6,0.1-1.3,0.1-1.9,0.2v1.2h9.7V184C77.6,184.3,77,183.4,76.4,182.1z M63.4,177.2c1.1-2.6,2.1-5,3.3-7.7
		c1.1,2.7,2.1,5.1,3.2,7.7H63.4z"/>
	<path class="st0" d="M289.2,165.8c-5.2,0-9.1,4-9.2,9.3c0,5.5,3.9,9.5,9.2,9.5c5.2,0,9.2-4.1,9.2-9.4
		C298.4,169.8,294.4,165.8,289.2,165.8z M293.2,180.3c-0.6,1.9-2.1,3-4,3c-1.9,0.1-3.5-1-4.1-2.9c-0.5-1.6-0.7-3.4-1-5.1
		c0.3-1.7,0.5-3.4,0.9-5c0.6-2.2,2.1-3.3,4.2-3.2c2,0.1,3.5,1.2,4.1,3.3C294.3,173.7,294.2,177,293.2,180.3z"/>
	<path class="st0" d="M173.5,79.6c0.8-1.1,1.7-2.1,2.6-3c-0.4-0.4-0.8-0.8-1.1-1.4c0.5-0.1,1.3-0.3,1.9-0.4c1.9-0.5,3.6-1.5,5.4-2.5
		c2.1-1.1,4-2.3,6-3.3c3.8-1.9,7.6-1.8,11.4,0.3c3.4,1.9,6.2,4.7,8.5,7.8c2.9,4.1,4.8,8.5,6,13.3c0.1,0.7,0.4,1.4,0.5,2.1h0
		c0,0,0,0,0.1,0c0,0,0-0.1,0-0.1c0-3.4,0.5-6.9,1.4-10.3c1-3.4,2.6-6.6,5.2-9.1c2.2-2.1,4.7-3.3,7.7-3.6c0.4,0,0.5-0.3,0.5-0.5
		c-0.1-14.1-0.1-28.1-0.1-42.2c0-0.1,0.1-0.3,0-0.4c0-0.4-0.1-0.7-0.4-0.8c-0.3,0-0.5-0.1-0.8-0.1c-17.8,0-35.7,0-53.7,0
		c-1,0-1.2,0.4-1.2,1.4c0,17.4,0,34.9,0,52.4C173.5,79.4,173.5,79.5,173.5,79.6z"/>
	<path class="st0" d="M213.4,135c1.4-0.3,2.4-0.8,2.9-2.3c0.1-0.5,0.4-1,0.7-1.5c0.3-0.5,0.8-0.8,1.5-0.7c0.4,0,0.7-0.3,0.7-0.7
		c-0.1-1.6-0.5-3.2-1.2-4.7c-0.1-0.4-0.1-0.5,0.3-0.7c0.3-0.3,0.7-0.4,1-0.4c0.5-0.3,1.2-0.5,1-1.4c0,0,0,0,0-0.1
		c0.4-1.5,1.2-2.9,2.5-3.8c0.1-0.1,0.4-0.3,0.7-0.3c0.3,0,0.7,0.1,1.1,0.3c1.2,0.3,1.5,0.8,1.1,2.1c-0.1,0.1-0.2,0.3-0.3,0.4
		c0,0.1-0.1,0.3-0.1,0.4c0,0.3,0.1,0.3,0.3,0.4c0.8,0,2.1-0.7,2.3-1.4c0.1-0.3,0.3-0.4,0.5-0.3c0.3,0.1,0.5,0.1,0.7,0.3
		c0.4,0.1,0.5,0.1,0.5-0.3c0.3-0.8-0.1-1.5-0.5-2.2c-0.4-0.5-0.9-0.8-1.2-1.4c-0.3-0.3-0.4-0.3-0.7-0.3c-17.4,0-34.9,0-52.3,0
		c-3.8,0-6.7-2.9-6.7-6.7c0-3.2,0-6.3,0-9.5c0-0.1,0-0.3-0.3-0.4c-4-1.2-7.9-2.6-11.8-3.8c-0.1,0-0.3,0-0.4,0
		c0,6.7-0.1,13.5-0.1,20.2h0c0.8-0.3,1.5-0.7,2.2-1.1c0.3-0.1,0.4-0.1,0.5,0.1c0.3,0.3,0.6,0.5,0.8,1c0.3,0.3,0.6,0.5,1.1,0.5
		c0.5-0.1,1.1-0.1,1.5-0.1c0.8-0.1,1.7-0.4,2.2-1.2c0.1-0.3,0.2-0.1,0.4,0c0,0.1,0.2,0.4,0.3,0.5c0.1,0.4,0.1,0.8,0.3,1.1
		c0.1,0.3,0.4,0.5,0.7,0.5c1.2,0.3,2.1,1.1,2.7,2.1c0.8,1.4,1.5,2.9,2.1,4.3c0.1,0.4,0.3,0.7,0.7,0.8c1.4,0.4,2.7,0.5,4.1,0
		c0.4-0.1,0.8-0.3,1.2-0.4c1.1,0,2.2,0,3.3,0.1c0.4,0,0.9,0.1,1.1,0.5c0,0.1,0.2,0.1,0.3,0.1c0.8,0,1.7,0,2.5,0
		c0.3,0,0.5,0.1,0.7-0.3c0.1,0,0.3,0,0.4,0.1c0.3,0.1,0.5,0.3,0.7,0.4c0.5,0.4,1,0.8,1.5,1.2c0.3,0.1,0.6,0.3,1,0.4
		c0.3,0.1,0.6,0.1,1,0.3c0.8,0.4,1.6,1,2.5,1.5c1,0.7,1.9,0.8,3,0.5c1.6-0.4,3.1-1,4-2.5c0-0.1,0.1-0.1,0.3-0.3
		c0.8-1.1,2.2-1.4,3.6-1c0.4,0.1,0.6,0.4,0.7,0.8c0,0.4,0,0.7,0.1,1c0.1,0.8,0.2,1.8,0.5,2.6c0.4,0.5,0.7,0.8,1.4,0.8
		c0.5-0.1,1-0.1,1.5-0.1c0,0,0.2,0.1,0.3,0.1c0.1,0.7,0.5,1.2,1,1.8c0.5,0.5,1,1,1.4,1.5c0.3,0.5,0.5,0.7,1,0.8
		C210.9,135.2,212.1,135.2,213.4,135z"/>
	<path class="st0" d="M235.5,68.8c0,0.1,0,0.3,0,0.5c1.9-0.4,3.7-1,4.9-2.6c0.8,0.8,1.6,1.5,2.5,2.3c0,0,0.2,0,0.3,0
		c1.5-0.3,3-0.5,4.5-0.5c0.7,0,1.5-0.1,2.2,0.3c0.1,0,0.2,0,0.4,0c1.1-0.5,2.3-1,3.4-1.5c1.8-0.7,3.2-1.8,4.4-3.3
		c0-0.1,0.1-0.1,0.1-0.3c0.3,0.1,0.6,0.4,0.9,0.5l0-28.6c-0.1,0-0.3,0.1-0.5,0.1c-2.9,1-5.9,1.9-8.8,2.9c-2.6,0.8-5.3,1.6-8,2.5
		c-0.1,0.1-0.4,0.1-0.5,0.3c-1.9,1.2-3.7,2.5-5.5,3.7c-0.3,0.1-0.3,0.3-0.3,0.5C235.5,53.4,235.4,61.1,235.5,68.8z"/>
	<path class="st0" d="M155.4,44.9c0,3.3,0.1,6.6,0.1,9.9c0,5.8-0.1,11.7-0.1,17.4c0,5.1,0.1,10.2,0,15.4l0,0.3
		c0.3,0,0.4,0.1,0.5,0.1c0.1,0,0.2,0,0.3,0c2.1,0,3.9-0.5,5.8-1.2c1.9-0.5,3.7-1.2,5.5-1.9c0.1,0,0.4-0.1,0.4-0.3
		c-0.1-0.4,0.2-1-0.1-1.4c0,0-0.1,0-0.1,0c-1.6-1-2.8-2.5-4.1-3.8c-0.1-0.1-0.2-0.3-0.3-0.4c0,0,0-0.1,0-0.1c1.5,0.8,3,1.8,4.7,2.3
		l0-0.5c0-12.4,0-24.9,0-37.3c0-0.3-0.1-0.4-0.4-0.4c-2.2,0-4.3,0-6.5,0.1c-1.8,0-3.5,0-5.2,0c-0.4,0-0.5,0.1-0.4,0.4
		C155.4,43.8,155.4,44.3,155.4,44.9z"/>
	<path class="st0" d="M257.6,78.4c0.1-0.1,0.2-0.3,0-0.4c-0.3-0.5-0.7-1-1.1-1.4c-0.1,0.1-0.2,0.1-0.3,0.3c-1.4,1.4-2.7,2.7-4.1,4.1
		c-3.6,3.7-7.1,7.4-10.7,11.1c-1.9,1.9-3.8,3.8-5.6,5.8c-0.3,0.3-0.3,0.4-0.3,0.7c0,3-0.1,6,0,9.2c0,0,0,0.1,0,0.3
		c0.3-0.3,0.6-0.4,1-0.7c0.4-0.1,0.7-0.1,1,0.3c0.3,0.4,0.5,0.7,0.7,1.1c0.3,0.3,0.5,0.4,0.8,0.1c0.1,0,0.4-0.1,0.5-0.1
		c1.1-0.5,2.1-1.1,3.2-1.6c0.1,0,0.3-0.3,0.5-0.4c0.1-0.3,0.2-0.5,0.4-0.7c0.8-0.5,1.6-1.2,2.5-1.8c1.5-1.1,3.1-2.1,4.7-3
		c0.8-0.7,1.3-1.5,1.2-2.6c-0.1-0.5-0.1-1.1,0-1.6c0.5-2.5,1.2-4.8,1.6-7.1c0.1-0.3,0.1-0.7,0.3-1.1c1.2-1.9,2.2-4.1,3.2-6.3
		c0.1-0.3,0.1-0.5,0-0.8c-0.3-0.3-0.3-0.7-0.4-1.1C256.5,79.6,256.7,78.9,257.6,78.4z"/>
	<polygon class="st0" points="256.5,76.6 256.5,76.6 256.5,76.6 	"/>
	<polygon class="st0" points="211,108.7 211,108.7 211,108.7 	"/>
	<path class="st0" d="M208.6,105.2c-1.5-2.3-3.3-4.4-5.5-6.2c-4-3.2-8.5-5.6-13.5-7.1c-3.4-1.1-7-1.8-10.7-1.6
		c-1.8,0.1-3.4,0.4-5.1,0.8c-0.1,0.1-0.3,0.3-0.3,0.4c0,1.8,0,3.4,0,5.2c0,0.3,0.1,0.3,0.3,0.4c3.6,1.1,7.2,2.2,10.8,3.4
		c8.1,2.5,16.1,5.1,24.2,7.7c0.7,0.1,1.4,0.4,2.2,0.5c-0.1-0.1-0.1-0.3-0.1-0.3C210.1,107.4,209.4,106.3,208.6,105.2z"/>
	<path class="st0" d="M212.9,107.8C212.9,107.8,212.9,107.8,212.9,107.8c0.1-0.1,0-0.1-0.1-0.3c-1.8-5.8-4.1-11.3-7.4-16.3
		c-1.8-2.6-3.6-5.1-6.2-7c-4.1-3.4-8.8-5.2-14.1-5.2c-1.5,0-3,0.3-4.3,1.4c-0.8,0.7-1.5,1.5-2.2,2.2c-0.5,0.5-1,1.2-1.5,1.8
		c0,0,0.1,0.1,0.1,0.1c2.1,0.3,4.2,0.7,6.2,1.4c4.5,1.5,8.7,3.7,12.6,6.5c5.5,3.8,10.5,8.5,15.1,13.5
		C211.7,106.4,212.3,107.1,212.9,107.8z"/>
	<path class="st0" d="M213.1,101.6C213.1,101.6,213.1,101.6,213.1,101.6C213.1,101.6,213.1,101.6,213.1,101.6L213.1,101.6z"/>
	<path class="st0" d="M213.2,101.5c-0.1-1.2-0.3-2.6-0.4-4c-0.7-5.2-1.9-10.3-3.6-15.1c-1.1-2.9-2.4-5.8-4.3-8.1
		c-0.5-0.7-0.9-1.2-1.5-1.6c-3.4-2.2-7-2.6-10.7-1c-2.3,1.1-4.6,2.5-7,3.6c0,0,0,0.1,0,0.1c0.1,0,0.2,0.1,0.3,0.1
		c3.3,0.8,6.2,2.2,8.9,4.1c2.9,1.9,5.4,4.3,7.7,6.9c3.7,3.8,6.9,8.1,9.3,12.9c0.4,0.7,0.8,1.4,1.1,2.2
		C213.2,101.5,213.2,101.5,213.2,101.5z"/>
	<path class="st0" d="M174.6,110.8c1.2,0,2.6,0,3.8,0c7.4,0,14.7,0,22.1,0h0.7h0c0-0.1,0-0.1,0-0.1c-9.2-3-18.5-5.9-27.7-8.9
		c0,0.1,0,0.3,0,0.4c0,2.5,0,4.9,0,7.6C173.5,110.4,173.9,110.8,174.6,110.8z"/>
	<path class="st0" d="M256.6,70c-0.7,0.3-1.3,0.5-1.9,0.7c-2.9,0.8-5.4,2.2-7.8,4c-4.1,3-7.8,6.6-11.3,10.4
		c-0.1,0.1-0.2,0.3-0.1,0.5c0,1.2-0.1,2.5-0.1,3.8v1.9h0.1C242.6,84.3,249.6,77.2,256.6,70z"/>
	<path class="st0" d="M229.8,72.9l-0.1-0.3c0,0,0-0.1,0-0.1c-0.1,0.1-0.2,0.1-0.3,0.1c-2.3,0.7-4.3,2.1-5.9,3.8
		c-2.2,2.5-3.6,5.4-4.5,8.5c-0.7,2.5-1,4.8-1.2,7.4c0,1.2-0.1,2.5-0.2,3.8h0c0-0.1,0.1-0.1,0.1-0.1c0-0.1,0-0.1,0-0.3
		c2.3-7.3,6.2-13.5,11.4-18.9c0.4-0.5,0.7-1,0.7-1.6C229.7,74.4,229.8,73.7,229.8,72.9z"/>
	<path class="st0" d="M229.8,80.7L229.8,80.7c-4.7,5.6-8.3,11.7-10.2,18.8c0.1-0.1,0.2-0.1,0.3-0.3c3-4.5,6.3-8.9,9.7-13
		c0.1-0.1,0.2-0.3,0.1-0.4C229.8,84.2,229.8,82.5,229.8,80.7z"/>
	<path class="st0" d="M229.7,92.4c0,0,0-0.1,0-0.3c-3.8,4.9-7.3,10-10.6,15.2h0.1c0.3-0.1,0.6-0.1,0.8-0.4c0.7-0.5,1.4-1.2,2.1-1.9
		c2.5-2.5,5-5.1,7.6-7.6c0.1-0.1,0.2-0.4,0.1-0.5C229.8,95.4,229.8,93.9,229.7,92.4z"/>
	<path class="st0" d="M245.2,71.1c-1,0.3-1.8,0.5-2.7,0.8c-2.3,0.8-4.7,1.8-6.7,3.3c-0.1,0-0.3,0.1-0.3,0.3c0,1.4-0.1,2.7-0.1,4.3
		h0.1C238.5,76.6,241.6,73.6,245.2,71.1z"/>
	<path class="st0" d="M229.7,104.1c-2.2,2.2-4.3,4.4-6.5,6.7h0.5c1.6,0,3.3,0,4.9,0c0.8,0,1.2-0.4,1.1-1.2c0-1.6,0.1-3.3,0-5.1
		C229.7,104.3,229.8,104.2,229.7,104.1L229.7,104.1z"/>
	<path class="st0" d="M164.2,93.9c1.2,0.4,2.4,0.8,3.7,1.2l0-1.9C166.7,93.5,165.4,93.6,164.2,93.9L164.2,93.9z"/>
	<path class="st0" d="M155.6,91.3c0.5,0.1,1.1,0.3,1.6,0.5c-0.5-0.7-1.1-1.2-1.8-1.9h0c0,0.4,0,0.8,0,1.1
		C155.4,91.2,155.5,91.2,155.6,91.3z"/>
</g>
</svg>
