<?xml version="1.0" encoding="utf-8"?>
<!-- Generator: Adobe Illustrator 18.0.0, SVG Export Plug-In . SVG Version: 6.00 Build 0)  -->
<!DOCTYPE svg PUBLIC "-//W3C//DTD SVG 1.1//EN" "http://www.w3.org/Graphics/SVG/1.1/DTD/svg11.dtd">
<svg version="1.1" id="Layer_1" xmlns="http://www.w3.org/2000/svg" xmlns:xlink="http://www.w3.org/1999/xlink" x="0px" y="0px"
	 viewBox="0 0 415 212" style="enable-background:new 0 0 415 212;" xml:space="preserve">
<style type="text/css">
	.st0{fill:#4D4D4F;}
	.st1{fill:#FFFFFF;}
	.st2{fill:#4D4D4F;stroke:#003DA6;stroke-width:0.6736;stroke-miterlimit:3.8637;}
	.st3{fill:#4E4E50;}
</style>
<g>
	<path class="st0" d="M92.1,117.5c0.4,0.5,0.8,1,1.4,1.4c0.5,0.4,1.2,0.8,1.9,1c0.7,0.3,1.5,0.4,2.4,0.4c0.9,0,1.8-0.2,2.5-0.5
		c0.7-0.3,1.4-0.8,1.9-1.3c0.5-0.5,0.9-1.2,1.2-1.9c0.3-0.7,0.4-1.5,0.4-2.4c0-1.3-0.3-2.3-1-3.1c-0.7-0.8-1.5-1.4-2.5-1.9
		c-1-0.5-2-1-3.2-1.4c-1.1-0.4-2.2-0.9-3.2-1.6c-1-0.6-1.8-1.4-2.5-2.4c-0.7-1-1-2.3-1-4c0-1.2,0.2-2.3,0.6-3.2c0.4-1,1-1.8,1.8-2.5
		c0.8-0.7,1.8-1.2,2.9-1.6c1.1-0.4,2.4-0.6,3.8-0.6c1.3,0,2.5,0.2,3.5,0.5c1,0.3,1.9,0.8,2.7,1.5c-0.3,0.5-0.5,1-0.6,1.5
		c-0.2,0.5-0.3,1.2-0.5,2h-0.5c-0.1-0.4-0.3-0.8-0.6-1.3c-0.2-0.5-0.6-0.9-1-1.3c-0.4-0.4-0.9-0.7-1.5-1c-0.6-0.3-1.2-0.4-2-0.4
		c-0.8,0-1.5,0.1-2.2,0.4c-0.7,0.3-1.2,0.6-1.7,1.1c-0.5,0.5-0.9,1-1.1,1.7c-0.3,0.6-0.4,1.3-0.4,2.1c0,1.3,0.3,2.4,1,3.1
		c0.7,0.8,1.5,1.4,2.5,1.9c1,0.5,2,1,3.2,1.4c1.1,0.4,2.2,0.9,3.2,1.5c1,0.6,1.8,1.3,2.5,2.3c0.7,0.9,1,2.2,1,3.7
		c0,1.3-0.2,2.5-0.7,3.7c-0.5,1.2-1.1,2.2-2,3c-0.9,0.9-2,1.5-3.2,2c-1.3,0.5-2.7,0.7-4.4,0.7c-1.7,0-3.1-0.2-4.2-0.7
		c-1.1-0.5-2-1-2.7-1.6c0.3-0.6,0.4-1.2,0.5-1.7c0.1-0.5,0.2-1.2,0.3-2h0.5C91.4,116.4,91.7,117,92.1,117.5z"/>
	<path class="st0" d="M121.7,103.6c2,3.8,4,7.6,6.2,11.6c0.3-0.5,0.7-1.3,1.2-2.3c0.5-1,1.2-2.1,1.9-3.4c0.7-1.3,1.5-2.7,2.3-4.2
		c0.8-1.5,1.6-3,2.4-4.6c0.8-1.5,1.6-3.1,2.5-4.5c0.8-1.5,1.6-2.9,2.3-4.2h0.5c0.3,2.7,0.6,5.3,0.9,7.8c0.3,2.5,0.5,5,0.8,7.4
		c0.3,2.4,0.6,4.8,0.8,7.2c0.3,2.4,0.6,4.7,0.9,7c-0.3-0.1-0.7-0.1-1-0.1c-0.3,0-0.7,0-1,0c-0.3,0-0.7,0-1,0c-0.3,0-0.7,0-1,0.1
		c-0.3-3.7-0.6-7.4-0.9-10.9c-0.3-3.5-0.7-7.1-1.1-10.7h-0.1c-1.9,3.5-3.8,7-5.7,10.5c-1.9,3.5-3.6,7.1-5.3,11h-0.4
		c-1.7-3.5-3.4-7.1-5.3-10.6c-1.8-3.5-3.7-7.2-5.5-10.9H116c-0.2,1.7-0.4,3.6-0.7,5.7c-0.2,2-0.5,4-0.7,6c-0.2,2-0.4,3.8-0.5,5.6
		c-0.1,1.8-0.2,3.2-0.2,4.3c-0.4-0.1-0.9-0.1-1.5-0.1c-0.5,0-1,0-1.5,0.1c0.4-2.3,0.7-4.7,1.1-7.2c0.4-2.5,0.8-5.1,1.1-7.6
		c0.4-2.6,0.7-5.1,1-7.6c0.3-2.5,0.6-4.8,0.8-7.1h0.7C117.8,95.9,119.7,99.8,121.7,103.6z"/>
	<path class="st0" d="M150.4,97.9c-0.1-1.8-0.1-3.6-0.2-5.5c0.4,0.1,0.7,0.1,1.1,0.1c0.3,0,0.7,0.1,1,0.1c0.3,0,0.7,0,1-0.1
		c0.3,0,0.7-0.1,1.1-0.1c-0.1,1.9-0.2,3.7-0.2,5.5c-0.1,1.8-0.1,3.6-0.1,5.5v7.2c0,1.9,0,3.7,0.1,5.5c0.1,1.8,0.1,3.6,0.2,5.3
		c-0.6-0.1-1.3-0.1-2.1-0.1c-0.7,0-1.4,0-2.1,0.1c0.1-1.7,0.2-3.5,0.2-5.3c0.1-1.8,0.1-3.6,0.1-5.5v-7.2
		C150.5,101.5,150.5,99.7,150.4,97.9z"/>
	<path class="st0" d="M168,94.7c-0.7,0-1.5,0-2.3,0c-0.8,0-1.6,0-2.4,0.1c-0.8,0-1.6,0.1-2.3,0.1c-0.7,0.1-1.4,0.1-2,0.2
		c0.1-0.5,0.2-1,0.2-1.3c0-0.3-0.1-0.7-0.2-1.3c1.9,0.1,3.7,0.1,5.4,0.1c1.8,0,3.6,0.1,5.4,0.1c1.9,0,3.7,0,5.4-0.1
		c1.8,0,3.6-0.1,5.4-0.1c-0.1,0.6-0.2,1-0.2,1.3c0,0.4,0.1,0.8,0.2,1.3c-0.6-0.1-1.3-0.2-2-0.2c-0.7-0.1-1.5-0.1-2.3-0.1
		c-0.8,0-1.6-0.1-2.4-0.1c-0.8,0-1.6,0-2.3,0c-0.1,2.9-0.1,5.8-0.1,8.7v7.2c0,1.9,0,3.7,0.1,5.5c0.1,1.8,0.1,3.6,0.2,5.3
		c-0.6-0.1-1.3-0.1-2.1-0.1c-0.7,0-1.4,0-2.1,0.1c0.1-1.7,0.2-3.5,0.2-5.3c0.1-1.8,0.1-3.6,0.1-5.5v-7.2
		C168.1,100.5,168.1,97.6,168,94.7z"/>
	<path class="st0" d="M206.6,97.9c-0.1-1.8-0.1-3.6-0.2-5.5c0.4,0.1,0.7,0.1,1.1,0.1c0.3,0,0.7,0.1,1,0.1c0.3,0,0.7,0,1-0.1
		c0.3,0,0.7-0.1,1.1-0.1c-0.1,1.9-0.2,3.7-0.2,5.5c-0.1,1.8-0.1,3.6-0.1,5.5v7.2c0,1.9,0,3.7,0.1,5.5c0.1,1.8,0.1,3.6,0.2,5.3
		c-0.6-0.1-1.3-0.1-2.1-0.1c-0.7,0-1.4,0-2.1,0.1c0.1-1.7,0.2-3.5,0.2-5.3c0.1-1.8,0.1-3.6,0.1-5.5v-3.8c-1.5,0-3,0-4.4-0.1
		c-1.4,0-2.9,0-4.4,0c-1.5,0-3,0-4.4,0c-1.4,0-2.9,0-4.4,0.1v3.8c0,1.9,0,3.7,0.1,5.5c0.1,1.8,0.1,3.6,0.2,5.3
		c-0.6-0.1-1.3-0.1-2.1-0.1c-0.7,0-1.4,0-2.1,0.1c0.1-1.7,0.2-3.5,0.2-5.3c0.1-1.8,0.1-3.6,0.1-5.5v-7.2c0-1.9,0-3.7-0.1-5.5
		c-0.1-1.8-0.1-3.6-0.2-5.5c0.4,0.1,0.7,0.1,1.1,0.1c0.3,0,0.7,0.1,1,0.1c0.3,0,0.7,0,1-0.1c0.3,0,0.7-0.1,1.1-0.1
		c-0.1,1.9-0.2,3.7-0.2,5.5c-0.1,1.8-0.1,3.6-0.1,5.5v1.5c1.5,0,3,0.1,4.4,0.1c1.4,0,2.9,0,4.4,0c1.5,0,3,0,4.4,0
		c1.4,0,2.9-0.1,4.4-0.1v-1.5C206.7,101.5,206.7,99.7,206.6,97.9z"/>
	<path class="st0" d="M218.3,97.9c-0.1-1.8-0.1-3.6-0.2-5.4c1.3,0.1,2.5,0.1,3.8,0.1c1.2,0,2.5,0.1,3.8,0.1c1.3,0,2.5,0,3.7-0.1
		c1.2,0,2.5-0.1,3.7-0.1c-0.1,0.4-0.1,0.8-0.1,1.3c0,0.4,0,0.8,0.1,1.3c-0.9-0.1-1.7-0.1-2.5-0.2c-0.7-0.1-1.5-0.1-2.4-0.2
		c-0.8-0.1-1.7-0.1-2.7-0.1c-1,0-2.2-0.1-3.5-0.1c0,0.9-0.1,1.8-0.1,2.6c0,0.8-0.1,1.7-0.1,2.8c0,1.1,0,2.2,0,3.2c0,1,0,1.8,0,2.4
		c1.2,0,2.3,0,3.3,0c1,0,1.9-0.1,2.7-0.1c0.8,0,1.6-0.1,2.3-0.1c0.7,0,1.3-0.1,2-0.1c-0.1,0.4-0.1,0.9-0.1,1.3c0,0.4,0,0.8,0.1,1.3
		c-0.7-0.1-1.6-0.2-2.5-0.2c-1-0.1-1.9-0.1-2.9-0.1c-1,0-1.9,0-2.7,0c-0.9,0-1.5,0-2,0c0,0.3,0,0.5,0,0.8c0,0.3,0,0.7,0,1.1v1.6v2.5
		c0,1.6,0,2.9,0,4c0,1,0,1.8,0.1,2.4c0.9,0,1.9,0,2.9,0c1.1,0,2.1,0,3.1-0.1c1,0,2-0.1,2.9-0.2c0.9-0.1,1.7-0.2,2.4-0.3
		c-0.1,0.2-0.1,0.4-0.1,0.7c0,0.2,0,0.5,0,0.7c0,0.4,0,0.8,0.1,1.1c-1.3-0.1-2.5-0.1-3.8-0.1c-1.2,0-2.5,0-3.8,0c-1.3,0-2.6,0-3.8,0
		c-1.3,0-2.5,0-3.8,0.1c0.1-1.8,0.2-3.6,0.2-5.4c0.1-1.8,0.1-3.6,0.1-5.5v-7.2C218.4,101.5,218.4,99.7,218.3,97.9z"/>
	<path class="st0" d="M239.3,97.9c-0.1-1.8-0.1-3.6-0.2-5.5c0.8,0.1,1.6,0.1,2.4,0.1c0.8,0,1.6,0.1,2.4,0.1c0.8,0,1.6,0,2.4-0.1
		c0.8-0.1,1.6-0.1,2.4-0.1c1.2,0,2.3,0.1,3.4,0.3c1.1,0.2,2,0.6,2.8,1.1c0.8,0.5,1.4,1.2,1.9,2c0.5,0.8,0.7,1.9,0.7,3.2
		c0,1.3-0.3,2.5-0.9,3.5c-0.6,1-1.3,1.8-2.2,2.4c-0.9,0.6-1.8,1.1-2.8,1.5c-1,0.4-1.9,0.6-2.7,0.7c0.3,0.4,0.8,1,1.4,1.8
		c0.6,0.8,1.2,1.6,2,2.5c0.7,0.9,1.5,1.9,2.3,2.9c0.8,1,1.5,2,2.3,2.9c0.7,0.9,1.4,1.7,2.1,2.5c0.6,0.8,1.2,1.3,1.6,1.7
		c-0.4-0.1-0.8-0.1-1.3-0.1c-0.4,0-0.8,0-1.3,0c-0.4,0-0.8,0-1.2,0c-0.4,0-0.8,0-1.2,0.1c-0.4-0.6-1.1-1.5-1.9-2.7
		c-0.9-1.2-1.8-2.4-2.8-3.8c-1-1.3-2.1-2.7-3.2-4c-1.1-1.3-2.1-2.5-3-3.4h-1.6v3.1c0,1.9,0,3.7,0.1,5.5c0.1,1.8,0.1,3.6,0.2,5.3
		c-0.6-0.1-1.3-0.1-2.1-0.1c-0.7,0-1.4,0-2.1,0.1c0.1-1.7,0.2-3.5,0.2-5.3c0.1-1.8,0.1-3.6,0.1-5.5v-7.2
		C239.4,101.5,239.4,99.7,239.3,97.9z M244.2,106c0.5,0,1,0,1.5,0c0.9,0,1.8-0.1,2.7-0.3c0.9-0.2,1.8-0.5,2.6-1c0.8-0.5,1.4-1.2,2-2
		c0.5-0.8,0.8-1.9,0.8-3.1c0-1.1-0.2-2-0.6-2.7c-0.4-0.7-0.9-1.3-1.6-1.7c-0.6-0.4-1.3-0.7-2.1-0.9c-0.8-0.2-1.5-0.2-2.2-0.2
		c-1,0-1.8,0-2.4,0.1c-0.6,0-1.2,0.1-1.6,0.1c-0.1,1.5-0.1,3.1-0.2,4.6c-0.1,1.5-0.1,3-0.1,4.5v2.4
		C243.3,105.9,243.7,105.9,244.2,106z"/>
	<path class="st0" d="M265.1,117.5c0.4,0.5,0.8,1,1.4,1.4c0.5,0.4,1.2,0.8,1.9,1c0.7,0.3,1.5,0.4,2.4,0.4c0.9,0,1.8-0.2,2.5-0.5
		c0.7-0.3,1.4-0.8,1.9-1.3c0.5-0.5,0.9-1.2,1.2-1.9c0.3-0.7,0.4-1.5,0.4-2.4c0-1.3-0.3-2.3-1-3.1c-0.7-0.8-1.5-1.4-2.5-1.9
		c-1-0.5-2-1-3.2-1.4c-1.1-0.4-2.2-0.9-3.2-1.6c-1-0.6-1.8-1.4-2.5-2.4c-0.7-1-1-2.3-1-4c0-1.2,0.2-2.3,0.6-3.2c0.4-1,1-1.8,1.8-2.5
		c0.8-0.7,1.8-1.2,2.9-1.6c1.1-0.4,2.4-0.6,3.8-0.6c1.3,0,2.5,0.2,3.5,0.5c1,0.3,1.9,0.8,2.7,1.5c-0.3,0.5-0.5,1-0.6,1.5
		c-0.2,0.5-0.3,1.2-0.5,2h-0.5c-0.1-0.4-0.3-0.8-0.6-1.3c-0.2-0.5-0.6-0.9-1-1.3c-0.4-0.4-0.9-0.7-1.5-1c-0.6-0.3-1.2-0.4-2-0.4
		c-0.8,0-1.5,0.1-2.2,0.4c-0.7,0.3-1.2,0.6-1.7,1.1c-0.5,0.5-0.9,1-1.1,1.7c-0.3,0.6-0.4,1.3-0.4,2.1c0,1.3,0.3,2.4,1,3.1
		c0.7,0.8,1.5,1.4,2.5,1.9c1,0.5,2,1,3.2,1.4c1.1,0.4,2.2,0.9,3.2,1.5c1,0.6,1.8,1.3,2.5,2.3c0.7,0.9,1,2.2,1,3.7
		c0,1.3-0.2,2.5-0.7,3.7c-0.5,1.2-1.1,2.2-2,3c-0.9,0.9-2,1.5-3.2,2c-1.3,0.5-2.7,0.7-4.4,0.7c-1.7,0-3.1-0.2-4.2-0.7
		c-1.1-0.5-2-1-2.7-1.6c0.3-0.6,0.4-1.2,0.5-1.7c0.1-0.5,0.2-1.2,0.3-2h0.5C264.4,116.4,264.7,117,265.1,117.5z"/>
	<path class="st0" d="M294.3,105.8v2.6h-10.5v-2.6H294.3z"/>
	<path class="st0" d="M299,100.6c0.8-1.9,1.9-3.4,3.2-4.7c1.4-1.3,3.1-2.3,5-2.9c1.9-0.7,4.1-1,6.4-1c2.3,0,4.5,0.3,6.4,1
		c1.9,0.7,3.6,1.7,5,2.9c1.4,1.3,2.5,2.9,3.2,4.7c0.8,1.9,1.2,4,1.2,6.4c0,2.4-0.4,4.5-1.2,6.4c-0.8,1.9-1.9,3.4-3.2,4.7
		c-1.4,1.3-3.1,2.3-5,2.9s-4.1,0.9-6.4,0.9c-2.3,0-4.4-0.3-6.4-0.9c-1.9-0.6-3.6-1.6-5-2.9c-1.4-1.3-2.5-2.9-3.2-4.7
		c-0.8-1.9-1.2-4-1.2-6.4C297.9,104.6,298.2,102.5,299,100.6z M324.4,101c-0.6-1.7-1.4-3.1-2.5-4.2c-1.1-1.1-2.3-1.9-3.7-2.5
		c-1.4-0.5-3-0.8-4.6-0.8c-1.6,0-3.1,0.3-4.6,0.8c-1.4,0.5-2.7,1.4-3.7,2.5c-1.1,1.1-1.9,2.5-2.5,4.2c-0.6,1.7-0.9,3.7-0.9,6
		c0,2.3,0.3,4.3,0.9,6c0.6,1.7,1.4,3.1,2.5,4.2c1.1,1.1,2.3,1.9,3.7,2.5c1.4,0.5,2.9,0.8,4.6,0.8c1.7,0,3.2-0.3,4.6-0.8
		c1.4-0.5,2.7-1.4,3.7-2.5c1.1-1.1,1.9-2.5,2.5-4.2c0.6-1.7,0.9-3.7,0.9-6C325.2,104.7,325,102.7,324.4,101z"/>
	<path class="st0" d="M356.9,121.4c-0.4-0.1-0.8-0.1-1.1-0.1c-0.4,0-0.7,0-1.1,0c-0.4,0-0.8,0-1.1,0c-0.4,0-0.7,0-1.1,0.1
		c-0.2-0.6-0.5-1.4-0.8-2.3c-0.3-0.9-0.7-1.9-1.1-2.9c-0.4-1-0.8-2-1.2-3c-0.4-1-0.8-2-1.2-2.9c-0.9,0-1.8,0-2.7-0.1
		c-0.9,0-1.9,0-2.8,0c-0.9,0-1.7,0-2.6,0c-0.8,0-1.7,0-2.6,0.1c-0.9,2.2-1.7,4.3-2.4,6.2c-0.7,2-1.3,3.6-1.6,4.9
		c-0.5-0.1-1-0.1-1.6-0.1c-0.6,0-1.1,0-1.6,0.1c2.3-4.9,4.5-9.8,6.6-14.6c2.2-4.9,4.3-9.8,6.5-14.8h0.8c0.7,1.6,1.4,3.4,2.2,5.3
		c0.8,1.9,1.6,3.8,2.4,5.7c0.8,1.9,1.6,3.9,2.4,5.8c0.8,1.9,1.6,3.7,2.3,5.3c0.7,1.6,1.4,3.1,1.9,4.4
		C356.1,119.8,356.6,120.7,356.9,121.4z M338.3,108.3c0.7,0,1.5,0,2.3,0c0.8,0,1.5,0,2.3,0c0.8,0,1.6,0,2.4,0c0.8,0,1.6,0,2.4-0.1
		l-4.7-10.7L338.3,108.3z"/>
	<path class="st0" d="M361.8,117.5c0.4,0.5,0.8,1,1.4,1.4c0.5,0.4,1.2,0.8,1.9,1c0.7,0.3,1.5,0.4,2.4,0.4c0.9,0,1.8-0.2,2.5-0.5
		c0.7-0.3,1.4-0.8,1.9-1.3c0.5-0.5,0.9-1.2,1.2-1.9c0.3-0.7,0.4-1.5,0.4-2.4c0-1.3-0.3-2.3-1-3.1c-0.7-0.8-1.5-1.4-2.5-1.9
		c-1-0.5-2-1-3.2-1.4c-1.1-0.4-2.2-0.9-3.2-1.6c-1-0.6-1.8-1.4-2.5-2.4c-0.7-1-1-2.3-1-4c0-1.2,0.2-2.3,0.6-3.2c0.4-1,1-1.8,1.8-2.5
		c0.8-0.7,1.8-1.2,2.9-1.6c1.1-0.4,2.4-0.6,3.8-0.6c1.3,0,2.5,0.2,3.5,0.5c1,0.3,1.9,0.8,2.7,1.5c-0.3,0.5-0.5,1-0.6,1.5
		c-0.2,0.5-0.3,1.2-0.5,2H374c-0.1-0.4-0.3-0.8-0.6-1.3c-0.2-0.5-0.6-0.9-1-1.3c-0.4-0.4-0.9-0.7-1.5-1c-0.6-0.3-1.2-0.4-2-0.4
		c-0.8,0-1.5,0.1-2.2,0.4c-0.7,0.3-1.2,0.6-1.7,1.1c-0.5,0.5-0.9,1-1.1,1.7c-0.3,0.6-0.4,1.3-0.4,2.1c0,1.3,0.3,2.4,1,3.1
		c0.7,0.8,1.5,1.4,2.5,1.9c1,0.5,2,1,3.2,1.4c1.1,0.4,2.2,0.9,3.2,1.5c1,0.6,1.8,1.3,2.5,2.3c0.7,0.9,1,2.2,1,3.7
		c0,1.3-0.2,2.5-0.7,3.7c-0.5,1.2-1.1,2.2-2,3c-0.9,0.9-2,1.5-3.2,2c-1.3,0.5-2.7,0.7-4.4,0.7c-1.7,0-3.1-0.2-4.2-0.7
		c-1.1-0.5-2-1-2.7-1.6c0.3-0.6,0.4-1.2,0.5-1.7c0.1-0.5,0.2-1.2,0.3-2h0.5C361.1,116.4,361.4,117,361.8,117.5z"/>
	<path class="st0" d="M382.7,97.9c-0.1-1.8-0.1-3.6-0.2-5.5c0.4,0.1,0.7,0.1,1.1,0.1c0.3,0,0.7,0.1,1,0.1c0.3,0,0.7,0,1-0.1
		c0.3,0,0.7-0.1,1.1-0.1c-0.1,1.9-0.2,3.7-0.2,5.5c-0.1,1.8-0.1,3.6-0.1,5.5v7.2c0,1.9,0,3.7,0.1,5.5c0.1,1.8,0.1,3.6,0.2,5.3
		c-0.6-0.1-1.3-0.1-2.1-0.1c-0.7,0-1.4,0-2.1,0.1c0.1-1.7,0.2-3.5,0.2-5.3c0.1-1.8,0.1-3.6,0.1-5.5v-7.2
		C382.8,101.5,382.8,99.7,382.7,97.9z"/>
	<path class="st0" d="M394.5,117.5c0.4,0.5,0.8,1,1.4,1.4c0.5,0.4,1.2,0.8,1.9,1c0.7,0.3,1.5,0.4,2.4,0.4c0.9,0,1.8-0.2,2.5-0.5
		c0.7-0.3,1.4-0.8,1.9-1.3c0.5-0.5,0.9-1.2,1.2-1.9c0.3-0.7,0.4-1.5,0.4-2.4c0-1.3-0.3-2.3-1-3.1c-0.7-0.8-1.5-1.4-2.5-1.9
		c-1-0.5-2-1-3.2-1.4c-1.1-0.4-2.2-0.9-3.2-1.6c-1-0.6-1.8-1.4-2.5-2.4c-0.7-1-1-2.3-1-4c0-1.2,0.2-2.3,0.6-3.2c0.4-1,1-1.8,1.8-2.5
		c0.8-0.7,1.8-1.2,2.9-1.6c1.1-0.4,2.4-0.6,3.8-0.6c1.3,0,2.5,0.2,3.5,0.5c1,0.3,1.9,0.8,2.7,1.5c-0.3,0.5-0.5,1-0.6,1.5
		c-0.2,0.5-0.3,1.2-0.5,2h-0.5c-0.1-0.4-0.3-0.8-0.6-1.3c-0.2-0.5-0.6-0.9-1-1.3c-0.4-0.4-0.9-0.7-1.5-1c-0.6-0.3-1.2-0.4-2-0.4
		c-0.8,0-1.5,0.1-2.2,0.4c-0.7,0.3-1.2,0.6-1.7,1.1c-0.5,0.5-0.9,1-1.1,1.7c-0.3,0.6-0.4,1.3-0.4,2.1c0,1.3,0.3,2.4,1,3.1
		c0.7,0.8,1.5,1.4,2.5,1.9c1,0.5,2,1,3.2,1.4c1.1,0.4,2.2,0.9,3.2,1.5c1,0.6,1.8,1.3,2.5,2.3c0.7,0.9,1,2.2,1,3.7
		c0,1.3-0.2,2.5-0.7,3.7c-0.5,1.2-1.1,2.2-2,3c-0.9,0.9-2,1.5-3.2,2c-1.3,0.5-2.7,0.7-4.4,0.7c-1.7,0-3.1-0.2-4.2-0.7
		c-1.1-0.5-2-1-2.7-1.6c0.3-0.6,0.4-1.2,0.5-1.7c0.1-0.5,0.2-1.2,0.3-2h0.5C393.8,116.4,394.1,117,394.5,117.5z"/>
</g>
<path class="st0" d="M68.8,75.1v61.7H7.1V75.1H68.8 M70.5,73.5h-65v65h65V73.5z"/>
<g>
	<path class="st0" d="M43.1,87.3l8.4,4.8L43.1,97V87.3 M38.8,79.9v24.5L60,92.1L38.8,79.9z"/>
	<path class="st0" d="M32.8,87.3V97l-8.4-4.8L32.8,87.3 M37.2,79.9L15.9,92.1l21.2,12.3V79.9z"/>
	<path class="st0" d="M43.1,115l8.4,4.8l-8.4,4.8V115 M38.8,107.6v24.5L60,119.9L38.8,107.6z"/>
	<path class="st0" d="M19.5,101.1l8.4,4.8l-8.4,4.8V101.1 M15.1,93.6v24.5l21.2-12.3L15.1,93.6z"/>
	<path class="st0" d="M32.8,115v9.7l-8.4-4.8L32.8,115 M37.2,107.6l-21.2,12.3l21.2,12.3V107.6z"/>
	<path class="st0" d="M56.4,101.1v9.7l-8.4-4.8L56.4,101.1 M60.8,93.6l-21.2,12.3l21.2,12.3V93.6z"/>
</g>
</svg>
