<?xml version="1.0" standalone="no"?>
<!DOCTYPE svg PUBLIC "-//W3C//DTD SVG 20010904//EN"
 "http://www.w3.org/TR/2001/REC-SVG-20010904/DTD/svg10.dtd">
<svg version="1.0" xmlns="http://www.w3.org/2000/svg"
 width="120.000000pt" height="120.000000pt" viewBox="0 0 120.000000 120.000000"
 preserveAspectRatio="xMidYMid meet">
<metadata>
Created by potrace 1.11, written by Peter Selinger 2001-2013
</metadata>
<g transform="translate(0.000000,120.000000) scale(0.100000,-0.100000)"
fill="#000000" stroke="none">
<path d="M40 725 l0 -435 435 0 435 0 0 435 0 435 -435 0 -435 0 0 -435z m553
213 c4 -66 7 -168 7 -225 l0 -103 -230 0 -230 0 0 225 0 225 223 0 224 0 6
-122z"/>
<path d="M330 755 l0 -105 115 0 115 0 0 105 0 105 -115 0 -115 0 0 -105z"/>
<path d="M940 555 l0 -305 -305 0 -305 0 0 -105 0 -105 410 0 410 0 0 410 0
410 -105 0 -105 0 0 -305z"/>
</g>
</svg>
