<?xml version="1.0" encoding="utf-8"?>
<!-- Generator: Adobe Illustrator 18.0.0, SVG Export Plug-In . SVG Version: 6.00 Build 0)  -->
<!DOCTYPE svg PUBLIC "-//W3C//DTD SVG 1.1//EN" "http://www.w3.org/Graphics/SVG/1.1/DTD/svg11.dtd">
<svg version="1.1" id="Layer_1" xmlns="http://www.w3.org/2000/svg" xmlns:xlink="http://www.w3.org/1999/xlink" x="0px" y="0px"
xml:space="preserve">
<style type="text/css">
	.st0{fill:#4D4D4F;}
</style>
<path class="st0" d="M90.6,342.1c0,0-0.8-1.1-0.8-1.5c0-0.4-0.1-2.1-1-2.9c-0.8-0.8-1.2-1-2.4-1.4c-0.8-0.3-1.5-1.1-1.9-1.8
	c-0.3-0.8-0.3-2.2-0.4-2.5s-0.5-1.1-0.5-1.1s0.2,0.6,0.2,1.3s-0.3,1.7-0.2,2.2c0.1,0.4,0.1,1.4,1.1,2.3c1,0.9,1.4,0.8,1.9,1.9
	c0.6,1.2,0.5,1.8,0.3,2.5c-0.2,0.6-0.4,1.3-0.2,1.8c0.2,0.5,0.2,0.6,0.2,0.6l-11-7.9l8.2,10.6c0,0-1.1-0.1-1.6-0.6
	c-0.8-0.6-1.3-1.1-2.3-1.3c0,0-0.9-0.3-2.2,0.1c-1.3,0.3-1,0.4-1.8,0.6c-0.9,0.1-2.3-0.1-2.9-0.6c-0.6-0.5-1.2-1.1-1.7-1.2
	c-0.4-0.1-0.9-0.2-0.9-0.2s0.8,0.3,1.4,1c0.6,0.6,0.8,1.3,1.6,1.8c0.9,0.5,1.6,0.6,2.5,0.6c0.8-0.1,0.9-0.2,1.8-0.1
	c0.5,0.1,1.7,0.5,1.9,0.9c0.8,0.9,1.2,1.7,1.6,2.1c0.4,0.4,1,0.6,1,0.6L69,352.1c0,0,12.9-0.9,14.5-1c1.7-0.1,6.3-0.4,9.1-0.4
	s4.4,0.2,6.4,0.3c1.8,0.1,17.4,1.1,17.4,1.1l-13.9-2.4c0,0,0.6-0.5,2.1-0.8c1.7-0.1,2.6-0.9,3.2-1.7c0.6-0.8,0.6-1.6,1.3-2.4
	c0.8-0.6,1.3-1.1,2.2-1.2c0.9-0.1,1.5,0,2.3-0.3c0.4-0.3,0.6-0.4,0.7-0.4c-0.1,0-0.6,0.2-1.1,0.2c-0.6,0.1-1.6-0.2-2.2-0.2
	s-1.8,0.2-2.6,1c-0.8,0.6-1.4,1.7-2.2,2.1c-0.8,0.3-1.7,0.5-2.3,0.4c-1-0.3-1.3-0.5-2.1-0.4c-0.8,0.1-1,0.2-1,0.2l8.2-10.6l-11,7.9
	c0,0,0-0.5,0.3-1.2c0.3-0.6,1.4-1.4,1.6-2.6c0.1-1,0.2-1.6-0.3-2.7c-0.4-1-0.4-1.8-0.3-2.5c0.1-0.8,0.5-1.4,1-1.8
	c0.6-0.6,0.9-1.1,1-1.5l0.1-0.4c0,0.1-0.1,0.3-0.5,0.8c-0.5,0.6-0.9,0.5-1.5,1.1c-0.6,0.6-1.2,1.4-1.4,2.3c-0.2,1.1,0.2,1.4,0.1,2.5
	c-0.1,1-0.2,1.2-0.8,1.9c-0.4,0.6-0.8,0.8-1.5,1.2c-0.5,0.3-1.1,0.6-1.3,1.4l-2.1-13L90.6,342.1z"/>
<path class="st0" d="M114.2,343C114.3,343,114.3,342.9,114.2,343C114.3,342.9,114.3,342.9,114.2,343z"/>
<path class="st0" d="M101.4,330.8C101.4,330.7,101.4,330.7,101.4,330.8L101.4,330.8z"/>
<path class="st0" d="M-45.5,426.1c1.4,1.3,3.4,1.4,4,1.4c1.2,0,2.6-0.2,4-1.4c1.5-1.3,1.7-3.7,1.7-5.7v-2.1c0-3,0-3.6,0-4.2
	c0.1-0.6,0.2-1,0.8-1.1c0.2-0.1,0.3-0.1,0.4-0.1l0.1-0.1c0-0.1-0.1-0.1-0.3-0.1c-0.5,0-1.5,0.1-1.6,0.1s-1.2-0.1-2.1-0.1
	c-0.2,0-0.3,0-0.3,0.1l0.1,0.1h0.9c0.7,0.1,0.9,0.4,0.9,1.1c0,0.6,0,1.2,0,4.2v2.4c0,2.1-0.2,3.7-1.1,4.8c-0.7,0.9-1.8,1.4-3,1.4
	c-1.1,0-1.9-0.2-2.9-1.1c-0.8-0.8-1.4-1.9-1.4-4.8v-2.7c0-3,0-3.6,0-4.2c0.1-0.6,0.2-1,0.8-1.1c0.2-0.1,0.3-0.1,0.4-0.1l0.1-0.1
	c0-0.1-0.1-0.1-0.3-0.1c-0.6,0-1.7,0.1-1.9,0.1c-0.2,0-1.4-0.1-2.3-0.1c-0.2,0-0.3,0-0.3,0.1l0.1,0.1l0.6,0.1
	c0.6,0.1,0.9,0.4,0.9,1.1c0,0.6,0,1.2,0,4.2l0.1,0v2.8C-47.2,423.8-46.4,425.2-45.5,426.1z"/>
<path class="st0" d="M-2.5,426.3c1,1,1.3,1.2,1.4,1.2c0.2,0,0.2-0.1,0.2-1.4v-11.4c0-1.2,0.1-1.6,0.8-1.7c0.2-0.1,0.3-0.1,0.4-0.1
	l0.1-0.1c0-0.1-0.1-0.1-0.3-0.1c-0.8,0-1.4,0.1-1.6,0.1s-1.2-0.1-2.1-0.1c-0.3,0-0.4,0-0.4,0.1l0.1,0.1c0.2,0,0.7,0,1,0.1
	c0.7,0.1,0.8,0.5,0.8,1.8l0.2,9.9c-0.6-0.7-2.7-3-4.7-5.1c-3-3.1-5.8-6.3-6.2-6.6l-0.6-0.6c-0.1,0-0.2,0.2-0.2,1v11
	c0,1.8-0.1,2.4-0.5,2.5c-0.2,0.1-0.7,0.1-0.8,0.1L-15,427l0.3,0.1c0.9,0,1.6-0.1,1.8-0.1c0.2,0,1,0.1,2.1,0.1c0.2,0,0.3,0,0.3-0.1
	l-0.1-0.1c-0.2,0-0.7,0-1-0.1c-0.5-0.2-0.8-0.6-0.8-2.3l-0.3-9c0.6,0.6,2.8,3.1,5.1,5.5C-5.5,423.2-2.7,426.1-2.5,426.3z"/>
<path class="st0" d="M22.6,421.5c0,1.8,0,3.5-0.1,4.2c-0.1,0.5-0.1,1-0.5,1.1l-0.5,0.1l-0.1,0.1c0,0.1,0.1,0.1,0.3,0.1
	c0.5,0,1.7-0.1,1.8-0.1s1.3,0.1,2.4,0.1c0.2,0,0.3,0,0.3-0.1l-0.1-0.1c-0.2,0-0.5-0.1-0.9-0.1c-0.5-0.1-0.6-0.5-0.8-1.1
	c-0.1-0.9-0.1-2.4-0.1-4.2h0.1v-3.4c0-3,0-3.6,0-4.2c0.1-0.6,0.2-1,0.8-1.1c0.2-0.1,0.3-0.1,0.4-0.1l0.1-0.1c0-0.1-0.1-0.1-0.3-0.1
	c-0.6,0-1.8,0.1-1.9,0.1c-0.1,0-1.3-0.1-1.9-0.1c-0.2,0-0.3,0-0.3,0.1l0.1,0.1c0.2,0,0.4,0,0.6,0.1c0.4,0.1,0.6,0.4,0.6,1.1
	c0,0.7,0,1.2,0,4.2L22.6,421.5z"/>
<path class="st0" d="M45.4,412.8c0.6,0.2,1,0.4,1.4,1.5l4.8,11.9c0.3,0.9,0.4,1.2,0.6,1.2c0.2,0,0.3-0.3,0.9-1.5
	c0.4-1,1.3-3,2.5-5.8c1-2.4,1.9-4.7,2.2-5.2c0.5-1.3,0.9-1.6,1.1-1.8c0.4-0.2,0.9-0.2,1-0.2l0.2-0.1c0-0.1-0.1-0.1-0.3-0.1
	c-0.5,0-1.4,0.1-1.5,0.1c-0.3,0-1.2-0.1-1.9-0.1c-0.3,0-0.4,0-0.4,0.1l0.2,0.1c0.2,0,0.5,0,0.8,0.1l0.2,0.4c0,0.2-0.1,0.4-0.2,0.8
	c-0.4,1.4-3,8.1-4.1,10.7l-3.6-10c-0.3-0.8-0.5-1.4-0.5-1.6c0-0.2,0-0.3,0.2-0.4c0.2-0.1,0.5-0.1,0.8-0.1l0.2-0.1
	c0-0.1-0.2-0.1-0.5-0.1c-0.8,0-1.6,0.1-1.8,0.1s-1.3-0.1-2.3-0.1c-0.3,0-0.5,0-0.5,0.1l0.1,0.1C44.7,412.6,45,412.6,45.4,412.8z"/>
<path class="st0" d="M82.1,413.4c0.1,0,2.3,0.1,2.6,0.1c1.1,0.1,1.3,0.3,1.4,0.6c0.1,0.2,0.1,0.5,0.1,0.6l0.1,0.2l0.1-0.2
	c0-0.2,0.1-1.1,0.1-1.3c0-0.5,0.1-0.8,0.1-0.9l-0.1-0.2l-0.3,0.1c-0.2,0-0.5,0.1-0.9,0.1c-0.4,0-4.3,0-4.4,0c-0.1,0-1.3-0.1-2.2-0.1
	c-0.2,0-0.3,0-0.3,0.1l0.1,0.1l0.6,0.1c0.6,0.1,0.9,0.4,0.9,1.1c0,0.7,0,1.2,0,4.2l0.3,0v3.4c0,1.8,0,3.5-0.1,4.2
	c-0.1,0.5-0.1,1-0.5,1.1l-0.5,0.1l-0.1,0.1c0,0.1,0.1,0.1,0.3,0.1c0.2,0,0.6,0,1.1,0s0.8,0,0.8,0c0.5,0,1.8,0.1,4.8,0.1
	c0.8,0,1,0,1.1-0.5c0.1-0.3,0.2-1.7,0.2-1.8l-0.1-0.3c-0.1,0-0.2,0.1-0.2,0.3c-0.1,0.8-0.3,1.2-0.9,1.4c-0.4,0.2-1.3,0.2-1.8,0.2
	c-1.9,0-2.2-0.3-2.3-1.6c0-0.4,0-2.7,0-3.4v-1.7l0.1-0.1c0.3,0,2.3,0,2.8,0.1c0.8,0,0.9,0.3,1,0.6c0.1,0.2,0.1,0.4,0.1,0.6l0.1,0.2
	l0.1-0.3c0-0.1,0.1-0.8,0.1-1.2c0-0.6,0.1-1,0.1-1.1l-0.1-0.1l-0.3,0.2c-0.1,0.2-0.4,0.3-0.9,0.3s-2.8,0-3,0l-0.1-0.2v-5.3
	L82.1,413.4z"/>
<path class="st0" d="M142.5,426.7c-1.3,0-2.5-0.5-2.8-1.9c-0.1-0.3-0.1-0.5-0.1-0.8l-0.1-0.2c0,0-0.1,0.1-0.1,0.3
	c0,0.3-0.1,1.1-0.1,2.1c0,0.5,0,0.7,0.3,0.8c0.9,0.4,1.7,0.5,2.7,0.6c1.1,0,2.1-0.3,2.9-0.9c1.3-1,1.6-2.5,1.6-3.2
	c0-1.5-0.5-2.7-2.8-4.5l-0.5-0.4c-1.8-1.5-2.4-2.2-2.4-3.2c0-1.4,1.1-2.3,2.4-2.3c1.7,0,2.3,0.8,2.4,1c0.1,0.2,0.2,0.8,0.2,1
	l0.1,0.2c0.1,0,0.1-0.1,0.1-0.4c0-1.3,0.1-2,0.1-2.1l-0.2-0.1c-0.1,0-0.3,0-0.6-0.1c-0.5-0.1-1.1-0.2-1.8-0.2c-2.5,0-4,1.4-4,3.5
	c0,1.3,0.4,2.5,2.5,4.2l0.9,0.8c1.7,1.4,2.3,2.2,2.3,3.5C145.4,425.4,144.4,426.7,142.5,426.7z"/>
<path class="st0" d="M169,421.5c0,1.8,0,3.5-0.1,4.2c-0.1,0.5-0.1,1-0.5,1.1l-0.5,0.1l-0.1,0.1c0,0.1,0.1,0.1,0.3,0.1
	c0.6,0,1.8-0.1,1.9-0.1c0.1,0,1.3,0.1,2.4,0.1c0.2,0,0.3,0,0.3-0.1l-0.1-0.1c-0.2,0-0.5-0.1-0.9-0.1c-0.5-0.1-0.6-0.5-0.8-1.1
	c-0.1-0.9-0.1-2.4-0.1-4.2l0-3.4c0-3,0-3.6,0-4.2c0.1-0.6,0.2-1,0.8-1.1c0.2-0.1,0.3-0.1,0.4-0.1l0.1-0.1c0-0.1-0.1-0.1-0.3-0.1
	c-0.6,0-1.8,0.1-1.9,0.1s-1.3-0.1-1.9-0.1c-0.2,0-0.3,0-0.3,0.1l0.1,0.1c0.2,0,0.4,0,0.6,0.1c0.4,0.1,0.6,0.4,0.6,1.1
	c0,0.7,0,1.2,0,4.2L169,421.5L169,421.5z"/>
<path class="st0" d="M204,414.9l0.1-0.2c0-0.2,0.1-1.6,0.1-2.2l-0.1-0.2c-0.1,0-0.2,0-0.5,0.1c-0.3,0-0.8,0.1-1.4,0.1h-7.3
	c-0.2,0-1,0-1.5-0.1c-0.5,0-0.8-0.2-0.9-0.2l-0.2,0.3l-0.4,2.1l0.1,0.2l0.2-0.2c0-0.2,0.1-0.3,0.3-0.6c0.3-0.5,0.8-0.6,1.9-0.6h2.8
	v8.2c0,1.8,0,3.5-0.1,4.2c-0.1,0.5-0.1,1-0.5,1.1l-0.5,0.1L196,427c0,0.1,0.1,0.1,0.3,0.1c0.5,0,1.7-0.1,1.8-0.1s1.3,0.1,2.4,0.1
	c0.2,0,0.3,0,0.3-0.1l-0.1-0.1c-0.2,0-0.5-0.1-0.9-0.1c-0.5-0.1-0.7-0.5-0.8-1.1c-0.1-0.9-0.1-2.4-0.1-4.2h0.1v-8.2h2.4
	c1.8,0,2.3,0.5,2.4,1.1v0.2C203.9,414.8,203.9,414.9,204,414.9z"/>
<path class="st0" d="M228.8,420.1c-0.3-0.5-3.2-5.5-3.6-6.1c-0.1-0.3-0.2-0.5-0.2-0.8l0.2-0.3l0.3-0.2c0,0,0-0.1-0.2-0.1
	c-0.8,0-1.5,0.1-1.6,0.1c-0.1,0-1.6-0.1-1.9-0.1l-0.2,0.1l0.2,0.1c0.2,0,0.5,0.1,0.9,0.3c0.3,0.2,0.9,0.6,1.3,1.4
	c0.6,1,3.2,5.2,3.4,5.5c0.2,0.5,0.4,1,0.4,2.1l-0.1,0v1.6c0,0.3,0,1.2-0.1,1.9c-0.1,0.5-0.2,1-0.6,1.1l-0.5,0.1l-0.1,0.1
	c0,0.1,0.1,0.1,0.3,0.1c0.6,0,1.8-0.1,1.9-0.1c0.1,0,1.3,0.1,2.4,0.1c0.2,0,0.3,0,0.3-0.1l-0.1-0.1c-0.2,0-0.5-0.1-0.9-0.1
	c-0.5-0.1-0.8-0.5-0.8-1.1c-0.1-0.9-0.1-1.6-0.1-1.9v-1.6c0-0.6,0-1.3,0.3-1.9c0.3-0.9,3-5.4,3.7-6.2c0.3-0.5,0.5-0.8,1-1
	c0.3-0.2,0.6-0.3,0.9-0.3l0.2-0.1l-0.2-0.1c-0.3,0-1.7,0.1-1.8,0.1c-0.2,0-0.8-0.1-1.3-0.1l-0.3,0.1l0.3,0.2
	c0.2,0.1,0.3,0.2,0.3,0.5c0,0.2-0.1,0.5-0.3,1C231.6,415,229.1,419.3,228.8,420.1z"/>
<path class="st0" d="M111,421h2.4l0.2,0.1c0.4,0.5,1.3,1.8,2.1,2.8c1.1,1.4,1.7,2.4,2.6,2.8c0.5,0.3,1,0.3,2.1,0.3h1.4
	c0.3,0,0.4,0,0.4-0.1l-0.2-0.1c-0.1,0-0.4,0-0.8-0.1c-0.4-0.1-1.3-0.3-2.4-1.4c-1.1-1.2-2.5-2.9-4-5c1.7-1.6,2.4-3,2.4-4.4
	c0-1.3-0.9-2.3-1.3-2.6c-1-0.8-2.3-0.9-3.6-0.9c-0.6,0-2.1,0.1-2.3,0.1c-0.1,0-1.3-0.1-2.2-0.1c-0.2,0-0.3,0-0.3,0.1l0.1,0.1
	l0.6,0.1c0.6,0.1,0.8,0.4,0.9,1.1c0,0.6,0,1.2,0,4.2v3.5l0,0c0,1.8,0,3.4-0.1,4.2c-0.1,0.5-0.2,1-0.5,1.1l-0.5,0.1l-0.1,0.1
	c0,0.1,0.1,0.1,0.3,0.1c0.5,0,1.8-0.1,1.8-0.1c0.1,0,1.3,0.1,2.4,0.1c0.2,0,0.3-0.1,0.3-0.1l-0.1-0.1c-0.2,0-0.6,0-0.9-0.1
	c-0.5-0.1-0.6-0.5-0.8-1.1c-0.1-0.8-0.1-2.4-0.1-4.2v-0.4L111,421z M110.7,420.1l-0.1-0.2l0-6.4l0.1-0.2c0.2-0.1,0.8-0.1,1.3-0.1
	c2.1,0,3.4,1.4,3.4,3.9c0,1.5-0.5,2.5-1.2,3c-0.4,0.3-1,0.3-1.4,0.3C111.9,420.4,111.1,420.3,110.7,420.1z"/>
<path class="st0" d="M-73.2,358.1c0.5,0,1.6,0.1,2.1,0.2c1.9,0.4,2.5,1.4,2.6,3.5c0.1,1.9,0.1,3.7,0.1,13.1l0,10.7
	c0,5.7,0,10.5-0.3,13.1c-0.2,1.7-0.5,3.1-1.7,3.4c-0.5,0.1-1.3,0.2-1.8,0.2c-0.3,0-0.4,0.1-0.4,0.3c0,0.3,0.3,0.4,1,0.4
	c1.8,0,5.4-0.2,5.8-0.2c0.4,0,4,0.2,6.9,0.2c0.6,0,1-0.1,1-0.4c0-0.1-0.1-0.3-0.4-0.3c-0.5,0-1.5-0.1-2.4-0.2
	c-1.8-0.3-2.2-1.6-2.4-3.4c-0.3-2.5-0.3-7.3-0.3-13.1v-6h0.2c2.9,3.6,15.8,17.4,18.4,19.6c2.6,2.1,4.1,3.4,7.4,3.7
	c1.4,0.1,2.5,0.1,4.2,0.1h1.1c0.1,0.2,0.4,0.2,0.9,0.2c0.9,0,2.3,0,3.5-0.1c1.2,0,2.3-0.1,2.4-0.1c1.8,0,10.6,0.3,19.7,0.3
	c2.4,0,2.8,0,3.2-1.6c0.3-1.2,0.8-5.4,0.8-5.8c0-0.4,0-0.9-0.3-0.9s-0.4,0.2-0.5,0.9c-0.4,2.5-1.1,3.7-2.7,4.3
	c-1.5,0.6-8.9,0.6-10.5,0.6c-6,0-6.8-0.8-7-5c-0.1-1.3,0-8.3,0-10.4v-5.3c0-0.2,0.1-0.4,0.4-0.4c1,0,7,0.1,8.7,0.3
	c2.4,0.3,7.7,1.3,7.9,2.2c0.2,0.8,0.2,1.3,0.2,1.9c0,0.3,0.1,0.5,0.4,0.5c0.4,0,0.4-0.8,0.4-1.2c0-0.4,0.1-2.7,0.2-3.9
	c0.1-1.9,0.4-3,0.4-3.4c0-0.3-0.1-0.4-0.3-0.4c-0.2,0-0.4,0.3-0.9,0.8c-0.5,0.6-1.4,0.8-2.8,0.9c-1.3,0.1-13.5,0.1-14.3,0.1
	c-0.2,0-0.3-0.2-0.3-0.6v-16.7c0-0.4,0.1-0.6,0.3-0.6c0.6,0,7.4,0.1,8.3,0.2c3.2,0.3,8.6,1.1,9,2.1c0.2,0.8,0.3,1.7,0.3,2.2
	c0,0.4,0.1,0.8,0.4,0.8c0.2,0,0.3-0.3,0.4-0.6c0.1-0.8,0.2-3.4,0.3-4c0.1-1.6,0.4-2.4,0.4-2.8c0-0.3,0-0.5-0.2-0.5
	c-0.3,0-0.5,0.2-0.9,0.3c-0.4,0.1-1.4,0.2-2.6,0.3c-1.4,0.1-18.2,0.1-18.6,0.1c-0.3,0-4.1-0.2-6.8-0.2c-0.6,0-1,0.1-1,0.4
	c0,0.2,0.2,0.3,0.4,0.3c0.5,0,1.6,0.1,2.1,0.2c1.9,0.4,2.5,1.4,2.6,3.5c0.1,2,0.1,3.7,0.1,13.1l0.1,0v10.9c0,5.7,0,10.5-0.3,13.1
	c-0.2,1.7-0.5,3.1-1.7,3.3c-0.7-0.1-2.1-0.3-3.4-0.7c-3-1-3.9-2.2-9-6.9c-2.5-2.3-15-15.4-16.7-17.1c1.3-1.5,11.8-11.8,13.4-13.1
	c2.7-2.6,4-4.1,6.5-5.2c1.2-0.5,2.5-0.9,3.4-0.9c0.5,0,0.7-0.1,0.7-0.4c0-0.3-0.2-0.4-0.9-0.4c-1.5,0-5.5,0.2-5.8,0.2
	c-1.4,0-3.4-0.2-4.5-0.2c-0.4,0-0.8,0.1-0.8,0.4c0,0.2,0.2,0.3,0.5,0.4c0.4,0.2,0.8,0.5,0.8,1.3c0,1-1.5,2.6-3.2,4.3
	c-2.2,2.3-13.1,13.4-14.2,14.6h-0.2v-3.7c0-9.4,0-11.1,0.2-13.1c0.1-2.2,0.6-3.1,2.3-3.5c0.8-0.1,1.1-0.2,1.5-0.2
	c0.2,0,0.4-0.1,0.4-0.3c0-0.3-0.3-0.4-1-0.4c-1.8,0-5.3,0.2-5.8,0.2c-0.4,0-4-0.2-6.7-0.2c-0.6,0-1,0.1-1,0.4
	C-73.6,358-73.4,358.1-73.2,358.1z"/>
<path class="st0" d="M41.5,403.7c0.4,0,0.5-0.3,0.5-4.3l0.1-35.5c0-3.7,0.3-5,2.3-5.4c0.6-0.2,1.1-0.2,1.4-0.2
	c0.4,0,0.6-0.2,0.6-0.4c0-0.3-0.4-0.4-1.1-0.4c-2.5,0-4.5,0.2-5.2,0.2c-0.6,0-3.6-0.2-6.3-0.2c-0.8,0-1.2,0.1-1.2,0.4
	c0,0.2,0,0.4,0.4,0.4c0.4,0,1.8,0.1,2.9,0.3c1.9,0.4,2.3,1.8,2.4,5.7l0.6,30.7c-1.9-2-8.6-9.4-14.5-15.8
	c-9.3-10-18.4-19.8-19.3-20.8c-0.6-0.6-1.7-1.9-2.2-1.9s-0.6,0.6-0.6,3l-0.1,34.7c0,5.5-0.3,7.3-1.8,7.7c-0.9,0.2-2.1,0.3-2.5,0.3
	c-0.2,0-0.4,0.1-0.4,0.3c0,0.3,0.3,0.4,1,0.4c2.8,0,5.3-0.2,5.8-0.2s2.9,0.2,6.4,0.2c0.8,0,1.1-0.1,1.1-0.4c0-0.2-0.1-0.3-0.4-0.3
	c-0.5,0-1.8,0-3-0.3c-1.6-0.5-2.3-2.1-2.4-7l-0.7-29c1.9,2.3,8.8,9.9,15.8,17.4c6.4,6.9,15.2,15.8,15.8,16.5
	C40.3,403,41,403.7,41.5,403.7z"/>
<path class="st0" d="M83.3,356.9c-0.4,0-2.1,0.6-6,0.6H54.7c-0.7,0-3-0.1-4.8-0.3c-1.7-0.1-2.3-0.8-2.7-0.8c-0.3,0-0.5,0.9-0.6,1.2
	c-0.1,0.4-1.3,5.6-1.3,6.3c0,0.3,0.1,0.5,0.3,0.5c0.3,0,0.4-0.2,0.6-0.6c0.2-0.4,0.4-0.9,1.1-1.8c1-1.5,2.4-1.8,6.2-1.9l9-0.1v25.7
	c0,5.7,0,10.5-0.3,13.1c-0.2,1.7-0.5,3.1-1.7,3.4c-0.5,0.1-1.3,0.2-1.8,0.2c-0.3,0-0.4,0.1-0.4,0.3c0,0.3,0.3,0.4,1,0.4
	c1.8,0,5.6-0.2,6-0.2c0.3,0,4.1,0.2,7.5,0.2c0.6,0,1-0.1,1-0.4c0-0.1-0.1-0.3-0.4-0.3c-0.5,0-1.8-0.1-2.7-0.2
	c-1.8-0.3-2.2-1.6-2.4-3.4c-0.3-2.5-0.3-7.2-0.3-13.1l-0.3,0v-25.7L75,360c5.8,0.1,7.3,1.5,7.5,3.4l0.1,0.6c0,0.9,0.1,1.1,0.4,1.1
	c0.2,0,0.4-0.2,0.4-0.8c0-0.8,0.2-4.9,0.2-6.7C83.7,357.2,83.7,356.9,83.3,356.9z"/>
<path class="st0" d="M258.5,395.3c-0.3,0-0.4,0.2-0.5,0.9c-0.4,2.5-1.1,3.7-2.7,4.3c-1.5,0.6-8.9,0.6-10.5,0.6c-6,0-6.8-0.8-7-5
	c-0.1-1.3,0-8.3,0-10.4v-5.3c0-0.2,0.1-0.4,0.4-0.4c1,0,7,0.1,8.7,0.3c2.4,0.3,7.7,1.3,7.9,2.2c0.2,0.8,0.2,1.3,0.2,1.9
	c0,0.3,0.1,0.5,0.4,0.5c0.4,0,0.4-0.8,0.4-1.2c0-0.4,0.1-2.7,0.2-3.9c0.1-1.9,0.4-3,0.4-3.4c0-0.3-0.1-0.4-0.3-0.4
	c-0.2,0-0.4,0.3-0.9,0.8c-0.5,0.6-1.4,0.8-2.8,0.9c-1.3,0.1-13.5,0.1-14.3,0.1c-0.2,0-0.3-0.2-0.3-0.6v-16.7c0-0.4,0.1-0.6,0.3-0.6
	c0.8,0,7.4,0.1,8.3,0.2c3.2,0.3,8.5,1.1,9,2.1c0.2,0.8,0.3,1.7,0.3,2.2c0,0.4,0.1,0.8,0.4,0.8c0.2,0,0.3-0.3,0.4-0.6
	c0.1-0.8,0.2-3.4,0.3-4c0.1-1.6,0.4-2.4,0.4-2.8c0-0.3,0-0.5-0.2-0.5c-0.3,0-0.5,0.2-0.9,0.3c-0.4,0.1-1.4,0.2-2.6,0.3
	c-1.4,0.1-18.2,0.1-18.6,0.1c-0.3,0-4.1-0.2-6.8-0.2c-0.7,0-1,0.1-1,0.4c0,0.2,0.2,0.3,0.4,0.3c0.5,0,1.5,0.1,2.1,0.2
	c2,0.4,2.5,1.4,2.6,3.5c0.1,2,0.1,3.7,0.1,13.1l0.1,0v10.9c0,5.7,0,10.6-0.3,13.1c-0.2,1.7-0.5,3.1-1.7,3.4
	c-0.5,0.1-1.3,0.2-1.8,0.2c-0.3,0-0.4,0.1-0.4,0.3c0,0.3,0.3,0.4,1,0.4c0.9,0,2.3,0,3.5-0.1c1.2,0,2.3-0.1,2.4-0.1
	c1.8,0,10.5,0.3,19.7,0.3c2.4,0,2.8,0,3.2-1.6c0.3-1.2,0.8-5.4,0.8-5.8C258.8,395.8,258.8,395.3,258.5,395.3z"/>
<path class="st0" d="M111.1,401.9c-4.8,0-9.5-1.7-10.6-6.2c-0.2-0.9-0.2-1.7-0.2-2.3c0-0.4-0.1-0.6-0.5-0.6c-0.3,0-0.4,0.3-0.5,1
	c0,1-0.3,3.4-0.3,6.4c0,1.6,0.1,1.8,1.1,2.3c3,1.2,6.3,1.6,9.8,1.5c3.9,0,7.7-0.6,10.8-2.5c5-2.9,6.2-7.6,6.2-10.1
	c0-4.8-2.4-10-10.8-15.6l-2.1-1.3c-6.7-4.7-8.8-6.7-8.8-10.2c0-4.4,3.9-7,8.9-7c6.6,0,8.5,2.6,9,3.2c0.4,0.7,1.7,2.7,1.8,3.5
	c0,0.4,0.1,0.8,0.5,0.8c0.4,0,0.6-0.4,0.5-1.2c0.2-0.4,0.4-0.8,1-1.6c1-1.5,2.4-1.8,6.2-1.9l8.1-0.1v25.7c0,5.7,0,10.5-0.3,13.1
	c-0.2,1.7-0.5,3.1-1.7,3.4c-0.5,0.1-1.3,0.2-1.8,0.2c-0.3,0-0.4,0.1-0.4,0.3c0,0.3,0.3,0.4,1,0.4c1.8,0,5.6-0.2,6-0.2
	c0.3,0,2.7,0.1,5.4,0.2c0.2,0.1,0.5,0.1,1,0.1c3.2,0,7.1-0.2,7.9-0.2s3.8,0.2,5.4,0.2c0.6,0,1.1-0.1,1.1-0.4c0-0.2-0.2-0.3-0.6-0.3
	h-0.6c-1.2,0-2.7-0.5-2.7-1.7c0-1.1,0.3-2.6,1-4.1l4.2-10.7c0.1-0.3,0.3-0.4,0.6-0.4h15c0.3,0,0.4,0.1,0.6,0.3l6.5,14.9
	c0.4,1,0,1.5-0.4,1.6c-0.3,0.1-0.5,0.2-0.5,0.4c0,0.3,0.8,0.3,2.1,0.4c4.9,0.1,10,0.1,10.9,0.1c0.6,0,1-0.1,1.3-0.2
	c1.9,0,5.5-0.2,5.9-0.2c0.3,0,4.1,0.2,7.5,0.2c0.7,0,1-0.1,1-0.4c0-0.1-0.1-0.3-0.4-0.3c-0.5,0-1.8-0.1-2.7-0.2
	c-1.8-0.3-2.2-1.6-2.4-3.4c-0.3-2.5-0.3-7.3-0.3-13.1l-0.1,0v-25.7l7.6,0.1c5.8,0.1,7.3,1.5,7.5,3.4l0.1,0.6c0,0.9,0.1,1.1,0.4,1.1
	c0.2,0,0.4-0.2,0.4-0.8c0-0.8,0.2-4.9,0.2-6.7c0-0.4,0-0.8-0.3-0.8c-0.3,0-0.9,0.1-1.7,0.3c-1,0.1-2.4,0.3-4.3,0.3h-22.7
	c-0.8,0-3-0.1-4.8-0.3c-1.6-0.1-2.3-0.8-2.7-0.8c-0.3,0-0.5,0.9-0.6,1.2c-0.1,0.4-1.3,5.6-1.3,6.3c0,0.3,0.1,0.5,0.3,0.5
	c0.3,0,0.4-0.2,0.6-0.6c0.2-0.4,0.4-0.9,1.1-1.8c1-1.5,2.4-1.8,6.2-1.9l9-0.1v25.7c0,5.7,0,10.5-0.3,13.1c-0.2,1.7-0.5,3.1-1.7,3.4
	c-0.5,0.1-1.3,0.2-1.8,0.2c-0.3,0-0.4,0.1-0.4,0.2c-0.6,0-1.5-0.1-2.3-0.3c-1.5-0.3-3.5-1.3-6.1-6.7c-4.2-9.2-15.3-34.2-16.2-36.5
	c-0.9-1.8-1.1-2.2-1.5-2.2c-0.4,0-0.6,0.3-1.5,2.4l-15.8,37.3c-1.3,3-2.6,5.3-5.8,5.7c-0.6,0-1.8-0.1-2.6-0.2
	c-1.8-0.3-2.2-1.6-2.4-3.4c-0.3-2.5-0.3-7.2-0.3-13.1l0,0v-25.7l7.6,0.1c5.9,0.1,7.3,1.5,7.5,3.4l0.1,0.6c0,0.9,0.1,1.1,0.4,1.1
	c0.2,0,0.4-0.2,0.4-0.8c0-0.8,0.2-4.9,0.2-6.7c0-0.4,0-0.8-0.3-0.8c-0.3,0-0.9,0.1-1.7,0.3c-1,0.1-2.4,0.3-4.3,0.3h-21.9
	c-0.8,0-3-0.1-4.8-0.3c-1.7-0.1-2.3-0.8-2.7-0.8c-0.3,0-0.5,0.9-0.6,1.2c-0.1,0.2-0.4,1.6-0.7,3c-0.5-2.4-1.1-4-1.1-4.2
	c0-0.3-0.2-0.4-0.8-0.4c-0.6,0-1.1,0-2.5-0.2c-1.8-0.3-3.1-0.5-6-0.5c-9.2,0-14.9,4.4-14.9,10.9c0,4.1,1.7,7.8,9.3,13.1l3.2,2.3
	c6.2,4.3,8.6,8.1,8.6,12.3C121.3,397.7,118,401.9,111.1,401.9z M167,382.7l6.2-16.3c0.3-0.9,0.6-0.9,1.1,0l6.6,16.3
	c0.1,0.2,0.1,0.4-0.3,0.4h-13.3C167,383.1,166.9,383,167,382.7z"/>
<path class="st0" d="M261.1,402.7c0.1,0,0.2,0,0.2-0.2c0-0.2-0.2-0.2-0.3-0.2h-0.3v0.4H261.1 M261.5,403.4h-0.3l-0.3-0.5h-0.2v0.5
	h-0.2v-1.3h0.6c0.1,0,0.2,0,0.3,0.1c0.1,0.1,0.1,0.2,0.1,0.3c0,0.2-0.1,0.3-0.3,0.3L261.5,403.4z M261.9,402.8c0-0.5-0.4-1-1-1
	c-0.5,0-1,0.4-1,1s0.4,1,1,1C261.5,403.8,261.9,403.3,261.9,402.8 M259.7,402.8c0-0.6,0.5-1.2,1.3-1.2c0.6,0,1.2,0.5,1.2,1.2
	c0,0.6-0.5,1.3-1.2,1.3C260.2,404,259.7,403.4,259.7,402.8"/>
<g>
	<path class="st0" d="M-75.5,448c0.1,0.2,0.2,0.7,0.5,1.6c0.1,0.4,0.2,0.8,0.2,1.3h-0.9c-0.6-0.9-1.2-1.5-1.9-1.8
		c-0.6-0.4-1.4-0.6-2.2-0.6c-1,0-1.8,0.4-2.4,1.1c-0.8,1-1.2,2.5-1.2,4.3c0,1.1,0.1,1.8,0.2,2.3c0.2,0.7,0.5,1.3,0.9,1.8
		c0.3,0.4,0.6,0.6,1,0.8c0.6,0.3,1.1,0.4,1.8,0.4c0.7,0,1.4-0.2,2-0.6c0.6-0.4,1.3-1.1,1.9-1.9c0.2,0,0.5-0.1,0.9-0.1
		c0,0.2-0.1,0.5-0.1,0.7c0,0.1-0.1,0.5-0.2,1.2l-0.1,0.3l-0.1,0.4c-0.4,0.3-0.9,0.5-1.6,0.7c-0.7,0.1-1.6,0.2-2.6,0.2
		c-0.8,0-1.5-0.1-2.2-0.2c-0.7-0.1-1.3-0.4-1.8-0.7c-0.7-0.5-1.3-0.9-1.7-1.5c-0.4-0.5-0.7-1.1-0.9-1.7c-0.2-0.6-0.3-1.3-0.3-2.1
		c0-1.9,0.6-3.4,1.9-4.6c1.2-1.2,2.8-1.8,4.7-1.8c0.8,0,1.5,0,2.2,0.1C-76.7,447.7-76.1,447.9-75.5,448z"/>
	<path class="st0" d="M-65.8,453.2c0.4,0.4,0.7,0.8,0.9,1.3c0.2,0.5,0.3,1,0.3,1.4c0,0.8-0.1,1.5-0.4,2c-0.4,0.8-0.9,1.4-1.6,1.7
		c-0.7,0.4-1.4,0.6-2.3,0.6c-1,0-1.8-0.2-2.5-0.7c-0.7-0.4-1.2-0.9-1.5-1.5c-0.3-0.6-0.4-1.3-0.4-2.1c0-0.4,0.1-0.8,0.2-1.3
		c0.1-0.4,0.3-0.8,0.6-1.1c0.2-0.3,0.5-0.6,0.8-0.8c0.4-0.3,0.8-0.5,1.3-0.6c0.4-0.1,0.9-0.2,1.5-0.2
		C-67.6,452-66.5,452.4-65.8,453.2z M-71,456.4c0.1,0.8,0.1,1.2,0.1,1.4c0.1,0.4,0.2,0.8,0.4,1.1c0.1,0.2,0.3,0.4,0.6,0.5
		c0.3,0.2,0.6,0.2,1,0.2c0.5,0,0.8-0.1,1.2-0.4c0.3-0.3,0.5-0.8,0.7-1.4c0.1-0.4,0.1-1.1,0.1-2c0-1.1-0.2-2-0.6-2.4
		c-0.4-0.5-0.9-0.7-1.5-0.7c-0.5,0-0.9,0.1-1.2,0.4c-0.3,0.3-0.5,0.7-0.7,1.2C-70.9,454.6-71,455.3-71,456.4z"/>
	<path class="st0" d="M-63.8,459.6c0.1-0.1,0.3-0.2,0.6-0.2c0.4,0,0.7-0.1,0.8-0.2c0.1-0.2,0.2-0.5,0.2-1v-2.7l0-0.6v-1.9l0-2.2
		v-0.4c0-0.5,0-0.9-0.1-1.1c-0.2-0.1-0.5-0.2-0.7-0.2c-0.2,0-0.3,0-0.4,0c0-0.2,0-0.3,0-0.4c0-0.1,0-0.1,0-0.2
		c0.5-0.1,1-0.2,1.5-0.4c0.5-0.2,0.9-0.4,1.2-0.6l0.3,0c0.1,0,0.1,0,0.2,0c0,2.2,0.1,3.7,0.1,4.5c0,0.2,0,0.4,0,0.6v0.1l0,0.2v4.2
		l0,1.4v0.2c0,0.3,0,0.5,0.1,0.6c0.1,0.1,0.2,0.1,0.5,0.2c0.1,0,0.4,0,0.8,0.1c0,0.1,0,0.2,0,0.3c0,0.1,0,0.2,0,0.3l-0.7,0
		c-0.4,0-0.9,0-1.6,0l-0.3,0c-0.4,0-0.9,0-1.6,0.1h-0.7L-63.8,459.6z"/>
	<path class="st0" d="M-58.8,459.6c0.1-0.1,0.3-0.2,0.6-0.2c0.4,0,0.7-0.1,0.8-0.2c0.1-0.2,0.2-0.5,0.2-1v-2.7l0-0.6v-1.9l0-2.2
		v-0.4c0-0.5,0-0.9-0.1-1.1c-0.2-0.1-0.5-0.2-0.7-0.2c-0.2,0-0.3,0-0.4,0c0-0.2,0-0.3,0-0.4c0-0.1,0-0.1,0-0.2
		c0.5-0.1,1-0.2,1.5-0.4s0.9-0.4,1.2-0.6l0.3,0c0.1,0,0.1,0,0.2,0c0,2.2,0.1,3.7,0.1,4.5c0,0.2,0,0.4,0,0.6v0.1l0,0.2v4.2l0,1.4v0.2
		c0,0.3,0,0.5,0.1,0.6c0.1,0.1,0.2,0.1,0.5,0.2c0.1,0,0.4,0,0.8,0.1c0,0.1,0,0.2,0,0.3c0,0.1,0,0.2,0,0.3l-0.7,0c-0.4,0-0.9,0-1.6,0
		l-0.3,0c-0.4,0-0.9,0-1.6,0.1h-0.7L-58.8,459.6z"/>
	<path class="st0" d="M-53,455c0.2-0.5,0.3-0.9,0.4-1.1c0.4-0.5,0.7-0.9,1.1-1.2c0.4-0.3,0.8-0.5,1.1-0.6c0.4-0.1,0.8-0.2,1-0.2
		c0.6,0,1.1,0,1.4,0.1c0.4,0.1,0.7,0.2,0.9,0.4c0.4,0.2,0.6,0.5,0.9,0.7c0.2,0.3,0.4,0.5,0.5,0.9c0.1,0.3,0.2,0.8,0.2,1.2l-1,0
		c-0.3,0-0.9,0-1.9-0.1c-0.4,0-0.6,0-0.8,0c0,0-0.4,0-1,0H-51c0,0.1,0,0.2,0,0.2c0,0.3,0,0.7,0.1,1.1c0.1,0.4,0.2,0.7,0.4,1
		c0.2,0.3,0.4,0.5,0.6,0.7c0.2,0.2,0.5,0.4,0.8,0.4l0.5,0.2c0.5,0,0.8,0,1,0c0.3-0.1,0.6-0.1,0.8-0.2c0.2-0.1,0.5-0.3,0.8-0.5
		c0.2,0.2,0.4,0.3,0.6,0.4c-0.6,0.6-1.1,1.1-1.7,1.3c-0.6,0.3-1.3,0.4-2,0.4c-0.5,0-0.9,0-1.2-0.1c-0.4-0.1-0.8-0.3-1.1-0.5
		c-0.3-0.2-0.6-0.5-0.9-0.9c-0.2-0.3-0.4-0.7-0.5-1.1c-0.2-0.5-0.2-0.9-0.2-1.2C-53.2,456-53.1,455.5-53,455z M-47.5,454.6
		c0-0.4-0.1-0.7-0.2-1c-0.1-0.3-0.3-0.6-0.6-0.8c-0.3-0.2-0.6-0.3-0.8-0.3c-0.4,0-0.8,0.2-1.1,0.6c-0.3,0.4-0.5,0.9-0.6,1.5l2.2,0
		c0.1,0,0.3,0,0.6,0c0.2,0,0.3,0,0.4,0C-47.7,454.6-47.7,454.6-47.5,454.6z"/>
	<path class="st0" d="M-42,461.3c-0.9-0.2-1.4-0.5-1.7-0.8c-0.3-0.3-0.4-0.6-0.4-1c0-0.3,0.1-0.5,0.2-0.7c0.2-0.2,0.8-0.6,2.1-1.3
		c-0.6-0.4-1.1-0.7-1.3-1.1c-0.3-0.5-0.5-0.9-0.5-1.3c0-0.4,0.1-0.8,0.2-1.3c0.4-0.6,0.8-1.1,1.5-1.4c0.6-0.3,1.4-0.5,2.4-0.5
		c0.4,0,0.7,0,1,0.1c0.1,0,0.4,0.1,0.7,0.2l0.4,0.1c0.3,0.2,0.6,0.4,0.8,0.6c0.5-0.1,1-0.2,1.3-0.3c0.2-0.1,0.4-0.1,0.6-0.1
		c0.1,0,0.2,0.1,0.3,0.2c0.1,0.1,0.1,0.4,0.1,0.8c0,0.3,0,0.6-0.1,0.7c-0.1,0.1-0.2,0.2-0.3,0.2c0,0-0.1,0-0.3-0.1
		c-0.4-0.2-0.8-0.3-1-0.3c0.2,0.4,0.2,0.8,0.2,1.2c0,0.5-0.1,0.9-0.4,1.3c-0.3,0.4-0.6,0.8-1.1,1c-0.6,0.3-1.3,0.5-1.9,0.5
		c-0.4,0-0.7,0-0.8,0c-0.2,0-0.5-0.1-0.9-0.2c-0.5,0.3-0.9,0.5-1.1,0.8c-0.1,0.1-0.2,0.2-0.2,0.4c0,0.1,0.1,0.2,0.2,0.3
		c0.1,0.1,0.3,0.2,0.6,0.2c0.1,0,0.1,0,0.2,0c0.3,0,0.8,0,1.3,0c0.1,0,0.3,0,0.7,0c0.1,0,0.2,0,0.3,0c1.5,0,2.6,0.2,3.2,0.7
		c0.6,0.5,0.9,1.1,0.9,1.8c0,0.4-0.1,0.7-0.3,1.1s-0.5,0.6-0.9,0.9c-0.4,0.2-0.9,0.4-1.6,0.6c-0.7,0.2-1.4,0.3-2.2,0.3
		c-0.8,0-1.6-0.1-2.3-0.2c-0.7-0.2-1.2-0.4-1.6-0.8c-0.3-0.3-0.4-0.6-0.4-0.9c0-0.3,0.1-0.6,0.4-0.8
		C-43.7,461.9-43.1,461.7-42,461.3z M-39.1,464.3c0.9-0.1,1.7-0.4,2.2-0.8c0.3-0.3,0.5-0.5,0.5-0.8c0-0.1,0-0.3-0.1-0.4
		c-0.1-0.1-0.2-0.3-0.4-0.4c-0.2-0.1-0.4-0.2-0.6-0.3c-0.3-0.1-0.7-0.1-1.3-0.1l-1.2,0c-1,0-1.7,0.1-2.1,0.4c-0.3,0.3-0.5,0.6-0.5,1
		c0,0.2,0.1,0.4,0.3,0.7c0.2,0.2,0.5,0.4,1,0.5s1,0.2,1.5,0.2C-39.7,464.4-39.4,464.3-39.1,464.3z M-39.7,457.5
		c0.4,0,0.8-0.2,1.1-0.5c0.3-0.4,0.4-0.9,0.4-1.7c0-1-0.1-1.7-0.4-2c-0.3-0.3-0.6-0.5-1.1-0.5c-0.1,0-0.2,0-0.5,0
		c-0.3,0.1-0.6,0.3-0.8,0.6c-0.2,0.4-0.4,0.9-0.4,1.5c0,0.2,0,0.5,0.1,1c0,0.2,0.1,0.4,0.1,0.6c0.1,0.2,0.2,0.4,0.4,0.6
		c0.1,0.1,0.3,0.2,0.5,0.3C-40.1,457.5-39.9,457.5-39.7,457.5z"/>
	<path class="st0" d="M-33.5,455c0.2-0.5,0.3-0.9,0.4-1.1c0.4-0.5,0.7-0.9,1.1-1.2c0.4-0.3,0.8-0.5,1.1-0.6c0.4-0.1,0.8-0.2,1-0.2
		c0.6,0,1.1,0,1.4,0.1c0.4,0.1,0.7,0.2,0.9,0.4c0.4,0.2,0.6,0.5,0.9,0.7c0.2,0.3,0.4,0.5,0.5,0.9c0.1,0.3,0.2,0.8,0.2,1.2l-1,0
		c-0.3,0-0.9,0-1.9-0.1c-0.4,0-0.6,0-0.8,0c0,0-0.4,0-1,0h-0.8c0,0.1,0,0.2,0,0.2c0,0.3,0,0.7,0.1,1.1c0.1,0.4,0.2,0.7,0.4,1
		c0.2,0.3,0.4,0.5,0.6,0.7c0.2,0.2,0.5,0.4,0.8,0.4l0.5,0.2c0.5,0,0.8,0,1,0c0.3-0.1,0.6-0.1,0.8-0.2c0.2-0.1,0.5-0.3,0.8-0.5
		c0.2,0.2,0.4,0.3,0.6,0.4c-0.6,0.6-1.1,1.1-1.7,1.3c-0.6,0.3-1.3,0.4-2,0.4c-0.5,0-0.9,0-1.2-0.1c-0.4-0.1-0.8-0.3-1.1-0.5
		c-0.3-0.2-0.6-0.5-0.9-0.9c-0.2-0.3-0.4-0.7-0.5-1.1c-0.2-0.5-0.2-0.9-0.2-1.2C-33.6,456-33.6,455.5-33.5,455z M-28,454.6
		c0-0.4-0.1-0.7-0.2-1c-0.1-0.3-0.3-0.6-0.6-0.8c-0.3-0.2-0.6-0.3-0.8-0.3c-0.4,0-0.8,0.2-1.1,0.6c-0.3,0.4-0.5,0.9-0.6,1.5l2.2,0
		c0.1,0,0.3,0,0.6,0c0.2,0,0.3,0,0.4,0C-28.2,454.6-28.1,454.6-28,454.6z"/>
	<path class="st0" d="M-12.2,453.2c0.4,0.4,0.7,0.8,0.9,1.3c0.2,0.5,0.3,1,0.3,1.4c0,0.8-0.1,1.5-0.4,2c-0.4,0.8-0.9,1.4-1.6,1.7
		c-0.7,0.4-1.4,0.6-2.3,0.6c-1,0-1.8-0.2-2.5-0.7c-0.7-0.4-1.2-0.9-1.5-1.5c-0.3-0.6-0.4-1.3-0.4-2.1c0-0.4,0.1-0.8,0.2-1.3
		c0.1-0.4,0.3-0.8,0.6-1.1c0.2-0.3,0.5-0.6,0.8-0.8c0.4-0.3,0.8-0.5,1.3-0.6c0.4-0.1,0.9-0.2,1.5-0.2C-14,452-12.9,452.4-12.2,453.2
		z M-17.4,456.4c0.1,0.8,0.1,1.2,0.1,1.4c0.1,0.4,0.2,0.8,0.4,1.1c0.1,0.2,0.3,0.4,0.6,0.5c0.3,0.2,0.6,0.2,1,0.2
		c0.5,0,0.8-0.1,1.2-0.4c0.3-0.3,0.5-0.8,0.7-1.4c0.1-0.4,0.1-1.1,0.1-2c0-1.1-0.2-2-0.6-2.4c-0.4-0.5-0.9-0.7-1.5-0.7
		c-0.5,0-0.9,0.1-1.2,0.4c-0.3,0.3-0.5,0.7-0.7,1.2C-17.3,454.6-17.4,455.3-17.4,456.4z"/>
	<path class="st0" d="M-9.8,460.1l0-0.5c0.1,0,0.3-0.1,0.7-0.2c0.3-0.1,0.5-0.2,0.6-0.2c0.1-0.1,0.1-0.2,0.1-0.3v-0.2
		c0-0.6,0-0.9,0-1c0-0.1,0-0.1,0-0.2l0-0.1l0-0.1V457l-0.1-1.6l0-1.8l0-0.2c-0.1,0-0.3,0-0.5,0h-0.6c0,0-0.1,0-0.2,0
		c0-0.2,0-0.3,0-0.4c0-0.2,0-0.3,0.1-0.4c0.2,0,0.6,0,1.1-0.1c0-0.8,0.1-1.5,0.4-2.1c0.2-0.7,0.5-1.2,0.8-1.6l0.2-0.3
		c0.4-0.4,0.8-0.6,1.1-0.7c0.3-0.1,0.8-0.2,1.2-0.2c0.5,0,0.9,0.1,1.2,0.2c0.3,0.2,0.5,0.3,0.6,0.6c0.1,0.2,0.2,0.5,0.2,0.7
		c0,0.3-0.1,0.5-0.3,0.7c-0.2,0.2-0.4,0.3-0.7,0.3c-0.2,0-0.4-0.1-0.6-0.2c-0.1-0.1-0.3-0.3-0.5-0.6c-0.2-0.3-0.3-0.5-0.4-0.6
		c-0.1-0.1-0.2-0.1-0.4-0.1c-0.2,0-0.4,0.1-0.5,0.2c-0.1,0.2-0.2,0.4-0.3,0.7c-0.1,0.3-0.1,0.8-0.1,1.7l0,1l0,0.3l0.2,0l1.1,0
		c0.1,0,0.1,0,0.3,0c0.1,0.1,0.1,0.1,0.1,0.2l0,0.2v0.3c0,0,0,0.1,0,0.2c-0.1,0-0.1,0-0.2,0h-0.1l-0.7,0c-0.1,0-0.2,0-0.3,0h-0.1
		c-0.1,0-0.2,0-0.3,0l0,0.5c0,0,0,0.1,0,0.2c0,0.4,0,0.6,0,0.7l0,1.4l0,1l0,0.8c0,0.6,0,0.9,0.2,1c0.2,0.2,0.6,0.3,1.1,0.4
		c0.1,0,0.2,0,0.3,0.1c0,0.2,0,0.2,0,0.3c0,0.1,0,0.2,0,0.3h-0.7c-0.1,0-0.4,0-1.1-0.1l-0.5,0c-0.5,0-0.9,0-1.1,0
		C-8.4,460-8.9,460-9.8,460.1z"/>
	<path class="st0" d="M15,448c0.1,0.2,0.2,0.7,0.5,1.6c0.1,0.4,0.2,0.8,0.2,1.3h-0.9c-0.6-0.9-1.2-1.5-1.9-1.8
		c-0.6-0.4-1.4-0.6-2.2-0.6c-1,0-1.8,0.4-2.4,1.1c-0.8,1-1.2,2.5-1.2,4.3c0,1.1,0.1,1.8,0.2,2.3c0.2,0.7,0.5,1.3,0.9,1.8
		c0.3,0.4,0.6,0.6,1,0.8c0.6,0.3,1.1,0.4,1.8,0.4c0.7,0,1.4-0.2,2-0.6c0.6-0.4,1.3-1.1,1.9-1.9c0.2,0,0.5-0.1,0.9-0.1
		c0,0.2-0.1,0.5-0.1,0.7c0,0.1-0.1,0.5-0.2,1.2l-0.1,0.3l-0.1,0.4c-0.4,0.3-0.9,0.5-1.6,0.7c-0.7,0.1-1.6,0.2-2.6,0.2
		c-0.8,0-1.5-0.1-2.2-0.2c-0.7-0.1-1.3-0.4-1.8-0.7c-0.7-0.5-1.3-0.9-1.7-1.5c-0.4-0.5-0.7-1.1-0.9-1.7c-0.2-0.6-0.3-1.3-0.3-2.1
		c0-1.9,0.6-3.4,1.9-4.6c1.2-1.2,2.8-1.8,4.7-1.8c0.8,0,1.5,0,2.2,0.1C13.7,447.7,14.4,447.9,15,448z"/>
	<path class="st0" d="M24.7,453.2c0.4,0.4,0.7,0.8,0.9,1.3c0.2,0.5,0.3,1,0.3,1.4c0,0.8-0.1,1.5-0.4,2c-0.4,0.8-0.9,1.4-1.6,1.7
		c-0.7,0.4-1.4,0.6-2.3,0.6c-1,0-1.8-0.2-2.5-0.7c-0.7-0.4-1.2-0.9-1.5-1.5c-0.3-0.6-0.4-1.3-0.4-2.1c0-0.4,0.1-0.8,0.2-1.3
		c0.1-0.4,0.3-0.8,0.6-1.1c0.2-0.3,0.5-0.6,0.8-0.8c0.4-0.3,0.8-0.5,1.3-0.6c0.4-0.1,0.9-0.2,1.5-0.2
		C22.9,452,23.9,452.4,24.7,453.2z M19.5,456.4c0.1,0.8,0.1,1.2,0.1,1.4c0.1,0.4,0.2,0.8,0.4,1.1c0.1,0.2,0.3,0.4,0.6,0.5
		c0.3,0.2,0.6,0.2,1,0.2c0.5,0,0.8-0.1,1.2-0.4c0.3-0.3,0.5-0.8,0.7-1.4c0.1-0.4,0.1-1.1,0.1-2c0-1.1-0.2-2-0.6-2.4
		c-0.4-0.5-0.9-0.7-1.5-0.7c-0.5,0-0.9,0.1-1.2,0.4c-0.3,0.3-0.5,0.7-0.7,1.2C19.6,454.6,19.5,455.3,19.5,456.4z"/>
	<path class="st0" d="M27,459.4c0.1,0,0.1,0,0.2,0c0.4,0,0.7-0.1,0.9-0.2c0,0,0.1-0.1,0.1-0.1c0-0.1,0-0.6,0.1-1.7v-0.5l0-1l0-1
		v-0.2c0-0.3-0.1-0.5-0.2-0.7c-0.1-0.1-0.5-0.3-1.1-0.5v-0.4c0.1,0,0.3-0.1,0.4-0.1c0.6-0.1,1.1-0.3,1.4-0.5
		c0.3-0.2,0.6-0.4,0.9-0.8h0.5v0.2l0,0.8l0,0.3l0,0.2c0.6-0.5,1.1-0.8,1.5-0.9s0.9-0.2,1.4-0.2c0.5,0,1,0.1,1.4,0.3
		c0.5,0.2,0.8,0.6,1.2,1.1c0.4-0.4,0.8-0.7,1.1-0.9c0.2-0.1,0.5-0.2,0.9-0.3c0.4-0.1,0.7-0.1,1-0.1c0.9,0,1.6,0.3,2.1,0.8
		c0.5,0.5,0.8,1.3,0.8,2.2v1.5c0,0.3,0,0.8,0,1.6v0.7c0,0.1,0,0.2,0.1,0.4c0.2,0.1,0.5,0.2,0.6,0.2c0.1,0,0.2,0.1,0.4,0.1
		c0,0.1,0,0.2,0,0.3l0,0.2c-0.2,0-0.3,0-0.4,0c-0.1,0-0.2,0-0.5,0c-0.3,0-0.6,0-1,0c-1,0-1.7,0-2.3,0.1c0-0.2-0.1-0.3-0.1-0.4l0-0.1
		c0.1,0,0.4-0.2,0.8-0.3c0.1-0.1,0.1-0.2,0.1-0.2c0-0.2,0-0.5,0-1l0-2.7c0-0.4,0-0.8-0.1-1.1c-0.1-0.3-0.2-0.5-0.3-0.7
		c-0.1-0.2-0.3-0.3-0.5-0.4c-0.2-0.1-0.4-0.2-0.7-0.2c-0.4,0-0.7,0.1-1.1,0.3c-0.4,0.2-0.7,0.5-1,0.9l0,0.3l0,1.2l0,1v0.9l0,0.8
		c0,0.4,0,0.7,0.1,0.7c0.1,0.1,0.4,0.2,0.9,0.3l0.3,0.1c0.1,0.1,0.1,0.3,0.1,0.3c0,0,0,0.1,0,0.2l-0.3,0h-0.4l-0.2,0
		c-0.4,0-0.9-0.1-1.4-0.1l-1,0c-0.2,0-0.7,0-1.3,0.1l-0.2,0l0-0.6c0.2-0.1,0.5-0.1,1-0.1c0,0,0.1,0,0.1,0c0.1-0.1,0.1-0.1,0.1-0.2
		c0-0.1,0-0.4,0-0.8l0-1.9l0-0.5c0-1,0-1.6-0.1-1.8c-0.1-0.3-0.3-0.5-0.6-0.7c-0.3-0.2-0.6-0.3-1-0.3c-0.5,0-1,0.1-1.3,0.4
		c-0.4,0.2-0.6,0.5-0.7,0.6c0,0.1,0,0.1,0,0.2l0,0.1v0.1c0,0.1,0,0.1-0.1,0.3l0,2.7l0,1.4c0,0.1,0,0.1,0,0.2l0,0.1
		c0.2,0.1,0.3,0.1,0.4,0.1c0.2,0.1,0.4,0.1,0.5,0.2c0,0.1,0,0.2,0,0.2c0,0.1,0,0.2-0.1,0.3c-0.1,0-0.2,0-0.2,0c-0.1,0-0.4,0-0.9-0.1
		l-1,0c-0.5,0-1.1,0-1.8,0.1l-0.3,0c0-0.1,0-0.2,0-0.3C27,459.6,27,459.5,27,459.4z"/>
	<path class="st0" d="M43.3,459.4c0.1,0,0.1,0,0.2,0c0.4,0,0.7-0.1,0.9-0.2c0,0,0.1-0.1,0.1-0.1c0-0.1,0-0.6,0.1-1.7v-0.5l0-1l0-1
		v-0.2c0-0.3-0.1-0.5-0.2-0.7c-0.1-0.1-0.5-0.3-1.1-0.5v-0.4c0.1,0,0.3-0.1,0.4-0.1c0.6-0.1,1.1-0.3,1.4-0.5
		c0.3-0.2,0.6-0.4,0.9-0.8h0.5v0.2l0,0.8l0,0.3l0,0.2c0.6-0.5,1.1-0.8,1.5-0.9s0.9-0.2,1.4-0.2c0.5,0,1,0.1,1.4,0.3
		c0.5,0.2,0.8,0.6,1.2,1.1c0.4-0.4,0.8-0.7,1.1-0.9c0.2-0.1,0.5-0.2,0.9-0.3c0.4-0.1,0.7-0.1,1-0.1c0.9,0,1.6,0.3,2.1,0.8
		c0.5,0.5,0.8,1.3,0.8,2.2v1.5c0,0.3,0,0.8,0,1.6v0.7c0,0.1,0,0.2,0.1,0.4c0.2,0.1,0.5,0.2,0.6,0.2c0.1,0,0.2,0.1,0.4,0.1
		c0,0.1,0,0.2,0,0.3l0,0.2c-0.2,0-0.3,0-0.4,0c-0.1,0-0.2,0-0.5,0c-0.3,0-0.6,0-1,0c-1,0-1.7,0-2.3,0.1c0-0.2-0.1-0.3-0.1-0.4l0-0.1
		c0.1,0,0.4-0.2,0.8-0.3c0.1-0.1,0.1-0.2,0.1-0.2c0-0.2,0-0.5,0-1l0-2.7c0-0.4,0-0.8-0.1-1.1c-0.1-0.3-0.2-0.5-0.3-0.7
		c-0.1-0.2-0.3-0.3-0.5-0.4c-0.2-0.1-0.4-0.2-0.7-0.2c-0.4,0-0.7,0.1-1.1,0.3c-0.4,0.2-0.7,0.5-1,0.9l0,0.3l0,1.2l0,1v0.9l0,0.8
		c0,0.4,0,0.7,0.1,0.7c0.1,0.1,0.4,0.2,0.9,0.3l0.3,0.1c0.1,0.1,0.1,0.3,0.1,0.3c0,0,0,0.1,0,0.2l-0.3,0H53l-0.2,0
		c-0.4,0-0.9-0.1-1.4-0.1l-1,0c-0.2,0-0.7,0-1.3,0.1l-0.2,0l0-0.6c0.2-0.1,0.5-0.1,1-0.1c0,0,0.1,0,0.1,0c0.1-0.1,0.1-0.1,0.1-0.2
		c0-0.1,0-0.4,0-0.8l0-1.9l0-0.5c0-1,0-1.6-0.1-1.8c-0.1-0.3-0.3-0.5-0.6-0.7c-0.3-0.2-0.6-0.3-1-0.3c-0.5,0-1,0.1-1.3,0.4
		c-0.4,0.2-0.6,0.5-0.7,0.6c0,0.1,0,0.1,0,0.2l0,0.1v0.1c0,0.1,0,0.1-0.1,0.3l0,2.7l0,1.4c0,0.1,0,0.1,0,0.2l0,0.1
		c0.2,0.1,0.3,0.1,0.4,0.1c0.2,0.1,0.4,0.1,0.5,0.2c0,0.1,0,0.2,0,0.2c0,0.1,0,0.2-0.1,0.3c-0.1,0-0.2,0-0.2,0c-0.1,0-0.4,0-0.9-0.1
		l-1,0c-0.5,0-1.1,0-1.8,0.1l-0.3,0c0-0.1,0-0.2,0-0.3C43.3,459.6,43.3,459.5,43.3,459.4z"/>
	<path class="st0" d="M59.7,452.4c0.1,0,0.1,0,0.2-0.1h2.8l0.2,0l0,0.6l0,0.9l0,0.5l0,1.4v1c0,0.6,0,1.1,0.1,1.5
		c0.1,0.3,0.2,0.5,0.5,0.6c0.2,0.1,0.5,0.2,0.8,0.2c0.3,0,0.5,0,0.7-0.1c0.2-0.1,0.4-0.2,0.6-0.3c0.2-0.2,0.4-0.3,0.4-0.3
		c0.2-0.2,0.3-0.4,0.4-0.6l0.1-2.4c0-0.2,0-0.4,0-0.6c0-0.2,0-0.4,0-0.6c0-0.2,0-0.4,0-0.4l0-0.3l0-0.2c-0.2-0.1-0.4-0.2-0.6-0.2
		l-0.6,0c0,0-0.1,0-0.1-0.1c0-0.1,0-0.2,0-0.3c0-0.1,0-0.2,0-0.3c0.2,0,0.4,0,0.5,0l1.5,0c0.4,0,0.9,0,1.4,0l0,0.7l0,0.9l0,1.1
		l0,1.6l0,0.7l0,0.5c0,0.3,0,0.5,0,0.6c0,0.2,0,0.3,0.1,0.4c0.1,0.1,0.1,0.1,0.2,0.1l0.9,0l0.1,0c0,0.2,0,0.3,0,0.4c0,0,0,0.1,0,0.2
		c-0.3,0-0.6,0-0.7,0.1c-0.7,0.2-1.4,0.4-2.2,0.7l-0.4,0l0-1.5c-0.1,0.1-0.2,0.2-0.3,0.3c-0.6,0.5-1,0.8-1.4,1
		c-0.4,0.2-0.8,0.3-1.2,0.3c-0.5,0-1-0.1-1.3-0.3c-0.4-0.2-0.7-0.5-0.8-0.8c-0.1-0.2-0.2-0.6-0.3-1.1c0-0.1,0-0.7,0-1.8l0-0.3
		c0-0.6,0-1.1,0-1.4c0-0.5,0-0.8,0-1c0-0.1,0-0.2-0.1-0.3c-0.1,0-0.2-0.1-0.3-0.1c-0.4-0.1-0.7-0.1-0.8-0.2c0,0,0-0.1,0-0.1
		c0,0,0-0.1,0-0.2C59.6,452.7,59.6,452.6,59.7,452.4z"/>
	<path class="st0" d="M70.3,459.6c0.2-0.1,0.3-0.1,0.5-0.2c0.3-0.1,0.5-0.1,0.6-0.1c0.1-0.1,0.2-0.1,0.2-0.2c0-0.1,0.1-0.4,0.1-0.8
		v-0.8l0-0.7l0-1v-0.6c0-0.4,0-0.7-0.1-1c0-0.1-0.1-0.2-0.2-0.3c-0.2-0.1-0.5-0.2-0.9-0.4l0-0.5c0.1,0,0.2,0,0.2-0.1
		c0.1,0,0.3-0.1,0.8-0.2c0.3-0.1,0.6-0.2,0.7-0.3c0,0,0.1,0,0.2-0.1c0.1-0.1,0.2-0.1,0.3-0.2c0.2-0.1,0.4-0.4,0.7-0.7l0.5,0l0,1.1
		c0,0.1,0,0.2,0,0.3c0,0,0,0.2,0,0.4c0.5-0.5,1-0.8,1.4-0.9c0.6-0.2,1.1-0.4,1.6-0.4c0.6,0,1.1,0.1,1.6,0.4c0.4,0.3,0.7,0.6,0.9,1
		c0.1,0.4,0.2,1.2,0.2,2.3l0,3.1c0,0.1,0,0.3,0.1,0.4c0.1,0,0.2,0.1,0.5,0.1l0.5,0.1c0.1,0.1,0.1,0.2,0.1,0.3c0,0.1,0,0.2,0,0.3
		l-1.9-0.1l-0.5,0h-0.4l-1.2,0.1h-0.3c0-0.1,0-0.1,0-0.2c0-0.1,0-0.2,0-0.4c0.1,0,0.3-0.1,0.7-0.1c0.1,0,0.2,0,0.3-0.1
		c0.1-0.1,0.2-0.1,0.2-0.2c0.1-0.1,0.1-0.3,0.1-0.6c0-0.5,0-0.9,0-1.2l0-1.1c0-1.3-0.1-2.2-0.3-2.5c-0.2-0.5-0.6-0.7-1.1-0.7
		c-0.4,0-0.7,0.1-1.1,0.3c-0.4,0.2-0.8,0.5-1.2,0.8l0,0.2l0,0.6l0,0.6l0,1.5l0,0.2c0,1,0,1.6,0.1,1.7c0.1,0.1,0.4,0.3,0.9,0.4
		c0,0.1,0,0.2,0,0.2c0,0.1,0,0.2-0.1,0.4c-0.2,0-0.4,0-0.5,0s-0.3,0-0.6-0.1l-1,0c-0.5,0-1.2,0-2.2,0.1c0-0.1,0-0.1,0-0.2
		C70.3,459.8,70.3,459.7,70.3,459.6z"/>
	<path class="st0" d="M80.9,460.1l0-0.6l1.1-0.1c0.2,0,0.3-0.1,0.3-0.2c0.1-0.1,0.1-0.3,0.1-0.6v-0.1c0-0.1,0-0.2,0-0.4
		c0-0.2,0-0.4,0-0.5c0-0.1,0-0.3,0-0.7l0-0.5l0-0.4l0-1.5c0-0.2,0-0.4-0.1-0.6c-0.1-0.1-0.2-0.2-0.4-0.2c-0.2-0.1-0.5-0.1-1-0.2
		v-0.5c0.6,0,1.2-0.2,1.7-0.4c0.3-0.2,0.7-0.4,1.1-0.8h0.6c0,0.8,0,1.8,0,3l-0.1,3.9c0,0.3,0,0.5,0,0.7c0.2,0.1,0.5,0.1,1,0.2
		c0.2,0,0.3,0.1,0.4,0.1l0,0.5c-0.2,0-0.3,0-0.4,0c-0.1,0-0.2,0-0.4,0c-0.6,0-1.5,0-2.6,0c-0.3,0-0.6,0-0.9,0
		C81.2,460,81,460.1,80.9,460.1z M82.2,448.8c0-0.3,0.1-0.6,0.3-0.8c0.2-0.2,0.5-0.3,0.9-0.3c0.4,0,0.7,0.1,0.9,0.3
		c0.2,0.2,0.4,0.5,0.4,0.8c0,0.2,0,0.4-0.1,0.6c-0.1,0.2-0.3,0.4-0.5,0.5c-0.2,0.1-0.4,0.2-0.6,0.2c-0.3,0-0.6-0.1-0.8-0.4
		C82.3,449.5,82.2,449.1,82.2,448.8z"/>
	<path class="st0" d="M94.1,457.6c0.1,0.1,0.2,0.1,0.2,0.1c0.1,0.1,0.3,0.1,0.4,0.2c-0.2,0.6-0.6,1.2-1.2,1.6
		c-0.7,0.5-1.5,0.7-2.5,0.7c-0.6,0-1.3-0.1-1.9-0.4c-0.6-0.3-1.1-0.6-1.5-1c-0.3-0.3-0.5-0.7-0.6-1.2c-0.1-0.5-0.2-0.9-0.2-1.2
		c0-0.4,0.1-0.9,0.3-1.4c0.2-0.5,0.5-1,0.9-1.5c0.4-0.5,0.9-0.8,1.6-1.1c0.6-0.3,1.3-0.4,2.1-0.4c1.1,0,1.8,0.2,2.3,0.5
		c0.4,0.3,0.6,0.7,0.6,1c0,0.3-0.1,0.6-0.3,0.8c-0.2,0.2-0.4,0.3-0.7,0.3c-0.3,0-0.5-0.1-0.7-0.3c-0.2-0.2-0.4-0.5-0.5-0.9
		c-0.1-0.3-0.3-0.5-0.4-0.6c-0.2-0.1-0.4-0.2-0.6-0.2c-0.6,0-1.1,0.3-1.6,0.8c-0.5,0.5-0.7,1.2-0.7,2.1c0,1.1,0.3,1.9,0.9,2.5
		c0.6,0.6,1.2,0.9,1.9,0.9c0.4,0,0.7,0,0.9-0.1c0.2-0.1,0.4-0.2,0.6-0.4c0.1-0.1,0.2-0.2,0.4-0.4C93.9,457.8,94.1,457.7,94.1,457.6z
		"/>
	<path class="st0" d="M103.8,458.3l0.2,0.1c0.1,0,0.1,0.1,0.1,0.2l0,0c-0.2,0.6-0.4,0.9-0.6,1.2c-0.2,0.2-0.6,0.3-0.9,0.3
		c-0.4,0-0.7-0.1-1-0.3c-0.3-0.2-0.5-0.6-0.7-1.1c-0.3,0.5-0.7,0.8-1.1,1.1s-1.1,0.4-1.8,0.4c-0.7,0-1.1-0.1-1.4-0.4
		c-0.3-0.3-0.5-0.6-0.5-1.1c0-0.2,0-0.4,0.1-0.6c0.1-0.2,0.2-0.4,0.4-0.6c0.2-0.2,0.5-0.4,1-0.7c0.1,0,0.3-0.1,0.7-0.3l2.4-0.9
		c0-0.2,0-0.5,0-0.7c0-0.9-0.1-1.4-0.3-1.7c-0.1-0.2-0.3-0.3-0.7-0.3c-0.3,0-0.6,0.1-0.9,0.2c-0.3,0.1-0.5,0.3-0.6,0.5
		c-0.1,0.1-0.2,0.4-0.2,0.8c0,0.3-0.1,0.4-0.1,0.5c-0.1,0.1-0.3,0.2-0.5,0.3c-0.2,0.1-0.4,0.2-0.5,0.2c-0.3,0.2-0.6,0.2-0.8,0.2
		c-0.1-0.1-0.1-0.2-0.1-0.3c0-0.4,0.1-0.7,0.2-0.9c0.2-0.4,0.6-0.7,1-1.1c0.5-0.3,0.9-0.6,1.3-0.7c0.5-0.2,1.2-0.3,2-0.3
		c0.5,0,0.9,0.1,1.3,0.3c0.4,0.2,0.6,0.5,0.8,0.8c0.1,0.4,0.2,1,0.2,2l0,1.6l0,1.1v0.3c0,0.3,0,0.4,0.1,0.5c0.1,0.1,0.2,0.1,0.3,0.1
		c0.1,0,0.1,0,0.2-0.1l0.3-0.4L103.8,458.3z M100.7,456.1c-0.4,0.1-0.8,0.3-1.2,0.6c-0.4,0.3-0.8,0.6-0.9,0.8
		c-0.1,0.2-0.2,0.5-0.2,0.8c0,0.3,0.1,0.5,0.2,0.7c0.2,0.2,0.4,0.3,0.6,0.3c0.4,0,0.6-0.1,0.9-0.3c0.3-0.3,0.5-0.5,0.6-0.6
		c0.1-0.2,0.1-0.6,0.1-1.4C100.8,456.6,100.8,456.4,100.7,456.1z"/>
	<path class="st0" d="M104.9,452.9c0.7-0.3,1.3-0.6,1.6-0.9s0.7-0.8,1.1-1.5h0.5c0.1,0.2,0.1,0.3,0.1,0.5c0,0.3,0,0.6,0,0.8l0,0.6
		c0,0,0,0.1,0,0.2l0.2,0c0,0,0.3,0,0.9,0c0,0,0.3,0,0.7,0c0,0.2,0.1,0.3,0.1,0.4c0,0.1,0,0.3-0.1,0.5c-0.2,0-0.4,0.1-0.5,0.1
		c-0.1,0-0.1,0-0.3,0h-0.5l-0.2,0l-0.5,0l0,3.6c0,0.7,0,1.1,0,1.3c0,0.2,0.1,0.3,0.2,0.5c0.1,0.1,0.3,0.1,0.5,0.1c0.2,0,0.3,0,0.4,0
		c0.1,0,0.2-0.1,0.4-0.3c0,0,0.1-0.1,0.2-0.1c0.2,0.1,0.3,0.2,0.4,0.4l0,0.1c-0.2,0.3-0.5,0.6-0.9,0.8c-0.4,0.2-0.8,0.3-1.3,0.3
		c-0.6,0-1.1-0.2-1.4-0.6c-0.4-0.4-0.5-0.9-0.5-1.7l0-1.7v-2.7l-0.3,0l-0.7,0l-0.1,0c0-0.1-0.1-0.1-0.1-0.2
		C104.9,453.3,104.9,453.1,104.9,452.9z"/>
	<path class="st0" d="M110.7,460.1l0-0.6l1.1-0.1c0.2,0,0.3-0.1,0.3-0.2c0.1-0.1,0.1-0.3,0.1-0.6v-0.1c0-0.1,0-0.2,0-0.4
		c0-0.2,0-0.4,0-0.5c0-0.1,0-0.3,0-0.7l0-0.5l0-0.4l0-1.5c0-0.2,0-0.4-0.1-0.6c-0.1-0.1-0.2-0.2-0.4-0.2c-0.2-0.1-0.5-0.1-1-0.2
		v-0.5c0.6,0,1.2-0.2,1.7-0.4c0.3-0.2,0.7-0.4,1.1-0.8h0.6c0,0.8,0,1.8,0,3l-0.1,3.9c0,0.3,0,0.5,0,0.7c0.2,0.1,0.5,0.1,1,0.2
		c0.2,0,0.3,0.1,0.4,0.1l0,0.5c-0.2,0-0.3,0-0.4,0c-0.1,0-0.2,0-0.4,0c-0.6,0-1.5,0-2.6,0c-0.3,0-0.6,0-0.9,0
		C111,460,110.8,460.1,110.7,460.1z M112,448.8c0-0.3,0.1-0.6,0.3-0.8c0.2-0.2,0.5-0.3,0.8-0.3c0.4,0,0.7,0.1,0.9,0.3
		c0.2,0.2,0.4,0.5,0.4,0.8c0,0.2,0,0.4-0.1,0.6c-0.1,0.2-0.3,0.4-0.5,0.5c-0.2,0.1-0.4,0.2-0.6,0.2c-0.3,0-0.6-0.1-0.8-0.4
		C112.2,449.5,112,449.1,112,448.8z"/>
	<path class="st0" d="M124.1,453.2c0.4,0.4,0.7,0.8,0.9,1.3c0.2,0.5,0.3,1,0.3,1.4c0,0.8-0.1,1.5-0.4,2c-0.4,0.8-0.9,1.4-1.6,1.7
		c-0.7,0.4-1.4,0.6-2.3,0.6c-1,0-1.8-0.2-2.5-0.7c-0.7-0.4-1.2-0.9-1.5-1.5c-0.3-0.6-0.4-1.3-0.4-2.1c0-0.4,0.1-0.8,0.2-1.3
		c0.1-0.4,0.3-0.8,0.6-1.1c0.2-0.3,0.5-0.6,0.8-0.8c0.4-0.3,0.8-0.5,1.3-0.6c0.4-0.1,0.9-0.2,1.5-0.2
		C122.3,452,123.3,452.4,124.1,453.2z M118.9,456.4c0.1,0.8,0.1,1.2,0.1,1.4c0.1,0.4,0.2,0.8,0.4,1.1c0.1,0.2,0.3,0.4,0.6,0.5
		c0.3,0.2,0.6,0.2,1,0.2c0.5,0,0.8-0.1,1.2-0.4c0.3-0.3,0.5-0.8,0.7-1.4c0.1-0.4,0.1-1.1,0.1-2c0-1.1-0.2-2-0.6-2.4
		c-0.4-0.5-0.9-0.7-1.5-0.7c-0.5,0-0.9,0.1-1.2,0.4c-0.3,0.3-0.5,0.7-0.7,1.2C118.9,454.6,118.9,455.3,118.9,456.4z"/>
	<path class="st0" d="M126.3,459.6c0.2-0.1,0.3-0.1,0.5-0.2c0.3-0.1,0.5-0.1,0.6-0.1c0.1-0.1,0.2-0.1,0.2-0.2c0-0.1,0.1-0.4,0.1-0.8
		v-0.8l0-0.7l0-1v-0.6c0-0.4,0-0.7-0.1-1c0-0.1-0.1-0.2-0.2-0.3c-0.2-0.1-0.5-0.2-0.9-0.4l0-0.5c0.1,0,0.2,0,0.2-0.1
		c0.1,0,0.3-0.1,0.8-0.2c0.3-0.1,0.6-0.2,0.7-0.3c0,0,0.1,0,0.2-0.1c0.1-0.1,0.2-0.1,0.3-0.2c0.2-0.1,0.4-0.4,0.7-0.7l0.5,0l0,1.1
		c0,0.1,0,0.2,0,0.3c0,0,0,0.2,0,0.4c0.5-0.5,1-0.8,1.4-0.9c0.6-0.2,1.1-0.4,1.6-0.4c0.6,0,1.1,0.1,1.6,0.4c0.4,0.3,0.7,0.6,0.9,1
		c0.1,0.4,0.2,1.2,0.2,2.3l0,3.1c0,0.1,0,0.3,0.1,0.4c0.1,0,0.2,0.1,0.5,0.1l0.5,0.1c0.1,0.1,0.1,0.2,0.1,0.3c0,0.1,0,0.2,0,0.3
		l-1.9-0.1l-0.5,0h-0.4l-1.2,0.1H132c0-0.1,0-0.1,0-0.2c0-0.1,0-0.2,0-0.4c0.1,0,0.3-0.1,0.7-0.1c0.1,0,0.2,0,0.3-0.1
		c0.1-0.1,0.2-0.1,0.2-0.2c0.1-0.1,0.1-0.3,0.1-0.6c0-0.5,0-0.9,0-1.2l0-1.1c0-1.3-0.1-2.2-0.3-2.5c-0.2-0.5-0.6-0.7-1.1-0.7
		c-0.4,0-0.7,0.1-1.1,0.3c-0.4,0.2-0.8,0.5-1.2,0.8l0,0.2l0,0.6l0,0.6l0,1.5l0,0.2c0,1,0,1.6,0.1,1.7c0.1,0.1,0.4,0.3,0.9,0.4
		c0,0.1,0,0.2,0,0.2c0,0.1,0,0.2-0.1,0.4c-0.2,0-0.4,0-0.5,0c-0.1,0-0.3,0-0.6-0.1l-1,0c-0.5,0-1.2,0-2.2,0.1c0-0.1,0-0.1,0-0.2
		C126.3,459.8,126.3,459.7,126.3,459.6z"/>
	<path class="st0" d="M150.2,458.3l0.2,0.1c0.1,0,0.1,0.1,0.1,0.2l0,0c-0.2,0.6-0.4,0.9-0.6,1.2c-0.2,0.2-0.6,0.3-0.9,0.3
		c-0.4,0-0.7-0.1-1-0.3c-0.3-0.2-0.5-0.6-0.7-1.1c-0.3,0.5-0.7,0.8-1.1,1.1c-0.5,0.2-1.1,0.4-1.8,0.4c-0.7,0-1.1-0.1-1.4-0.4
		c-0.3-0.3-0.5-0.6-0.5-1.1c0-0.2,0-0.4,0.1-0.6c0.1-0.2,0.2-0.4,0.4-0.6c0.2-0.2,0.5-0.4,1-0.7c0.1,0,0.3-0.1,0.7-0.3l2.4-0.9
		c0-0.2,0-0.5,0-0.7c0-0.9-0.1-1.4-0.3-1.7c-0.1-0.2-0.3-0.3-0.7-0.3c-0.3,0-0.6,0.1-0.9,0.2c-0.3,0.1-0.5,0.3-0.6,0.5
		c-0.1,0.1-0.2,0.4-0.2,0.8c0,0.3-0.1,0.4-0.1,0.5c-0.1,0.1-0.3,0.2-0.5,0.3c-0.2,0.1-0.4,0.2-0.5,0.2c-0.3,0.2-0.6,0.2-0.8,0.2
		c-0.1-0.1-0.1-0.2-0.1-0.3c0-0.4,0.1-0.7,0.2-0.9c0.2-0.4,0.6-0.7,1-1.1c0.5-0.3,0.9-0.6,1.3-0.7c0.5-0.2,1.2-0.3,2-0.3
		c0.5,0,0.9,0.1,1.3,0.3c0.4,0.2,0.6,0.5,0.8,0.8c0.1,0.4,0.2,1,0.2,2l0,1.6l0,1.1v0.3c0,0.3,0,0.4,0.1,0.5c0.1,0.1,0.2,0.1,0.3,0.1
		c0.1,0,0.1,0,0.2-0.1l0.3-0.4L150.2,458.3z M147.1,456.1c-0.4,0.1-0.8,0.3-1.2,0.6c-0.4,0.3-0.8,0.6-0.9,0.8
		c-0.1,0.2-0.2,0.5-0.2,0.8c0,0.3,0.1,0.5,0.2,0.7c0.2,0.2,0.4,0.3,0.6,0.3c0.4,0,0.7-0.1,0.9-0.3c0.3-0.3,0.5-0.5,0.6-0.6
		c0.1-0.2,0.1-0.6,0.1-1.4C147.1,456.6,147.1,456.4,147.1,456.1z"/>
	<path class="st0" d="M151.1,459.6c0.2-0.1,0.3-0.1,0.5-0.2c0.3-0.1,0.5-0.1,0.6-0.1c0.1-0.1,0.2-0.1,0.2-0.2c0-0.1,0.1-0.4,0.1-0.8
		v-0.8l0-0.7l0-1v-0.6c0-0.4,0-0.7-0.1-1c0-0.1-0.1-0.2-0.2-0.3c-0.2-0.1-0.5-0.2-0.9-0.4l0-0.5c0.1,0,0.2,0,0.2-0.1
		c0.1,0,0.3-0.1,0.8-0.2c0.3-0.1,0.6-0.2,0.7-0.3c0,0,0.1,0,0.2-0.1c0.1-0.1,0.2-0.1,0.3-0.2c0.2-0.1,0.4-0.4,0.7-0.7l0.5,0l0,1.1
		c0,0.1,0,0.2,0,0.3c0,0,0,0.2,0,0.4c0.5-0.5,1-0.8,1.4-0.9c0.6-0.2,1.1-0.4,1.6-0.4c0.6,0,1.1,0.1,1.6,0.4c0.4,0.3,0.7,0.6,0.9,1
		c0.1,0.4,0.2,1.2,0.2,2.3l0,3.1c0,0.1,0,0.3,0.1,0.4c0.1,0,0.2,0.1,0.5,0.1l0.5,0.1c0.1,0.1,0.1,0.2,0.1,0.3c0,0.1,0,0.2,0,0.3
		l-1.9-0.1l-0.5,0h-0.4l-1.2,0.1h-0.3c0-0.1,0-0.1,0-0.2c0-0.1,0-0.2,0-0.4c0.1,0,0.3-0.1,0.7-0.1c0.1,0,0.2,0,0.3-0.1
		c0.1-0.1,0.2-0.1,0.2-0.2c0-0.1,0.1-0.3,0.1-0.6c0-0.5,0-0.9,0-1.2l0-1.1c0-1.3-0.1-2.2-0.3-2.5c-0.2-0.5-0.6-0.7-1.1-0.7
		c-0.4,0-0.7,0.1-1.1,0.3c-0.4,0.2-0.8,0.5-1.2,0.8l0,0.2l0,0.6l0,0.6l0,1.5l0,0.2c0,1,0,1.6,0.1,1.7c0.1,0.1,0.4,0.3,0.9,0.4
		c0,0.1,0,0.2,0,0.2c0,0.1,0,0.2-0.1,0.4c-0.2,0-0.4,0-0.5,0s-0.3,0-0.6-0.1l-1,0c-0.5,0-1.2,0-2.2,0.1c0-0.1,0-0.1,0-0.2
		C151.1,459.8,151.1,459.7,151.1,459.6z"/>
	<path class="st0" d="M163.9,452.8c0.3-0.2,0.6-0.4,0.9-0.5c0.3-0.1,0.7-0.2,1.2-0.2h0.5c0.7,0,1.3,0.2,2,0.7l0-0.2l0-0.6l0-1
		c0-1.1-0.1-1.7-0.2-2c-0.1-0.2-0.3-0.3-0.5-0.3s-0.4-0.1-0.6-0.1v-0.5c0.1,0,0.3-0.1,0.5-0.1c0.2,0,0.6-0.1,1.1-0.2l0.3-0.1
		l0.9-0.2c0.2,0,0.3-0.1,0.4-0.1c0,0,0.1,0,0.2,0c0,0.1,0.1,0.2,0.1,0.3l0,0.1v0.2c0,0.2,0,0.6,0,1.4v0.5l0,0.3l0,0.5l0,1l0,0.6
		c0,0.3,0,0.6,0,1.2c0,0.1,0,0.2,0,0.2v0.4c0,0.1,0,0.2,0,0.2c0,0.1,0,0.2,0,0.4v0.5l0,0.2c0,0.2,0,0.4,0,0.8c0,0.3,0,0.6,0,0.9
		c0,0.1,0,0.2,0,0.3v0.7c0,0.2,0,0.5,0,0.8c0.1,0.1,0.4,0.1,0.8,0.2c0.1,0,0.3,0,0.4,0c0,0.1,0,0.2,0,0.2c0,0.1,0,0.1-0.1,0.3
		c-0.3,0.1-0.5,0.1-0.8,0.1c-0.9,0.1-1.5,0.3-1.8,0.5c-0.2,0.1-0.3,0.2-0.4,0.2c-0.1,0-0.1,0-0.2,0c0-0.1,0-0.2,0-0.2
		c0-0.4,0-0.7,0-0.8c-0.1,0.1-0.2,0.1-0.4,0.2c-0.4,0.3-0.8,0.4-1.2,0.5c-0.3,0.1-0.7,0.1-1.2,0.1c-0.8,0-1.4-0.2-1.9-0.5
		c-0.7-0.4-1.2-1-1.5-1.6c-0.3-0.6-0.4-1.3-0.4-2C162.2,454.8,162.7,453.7,163.9,452.8z M166.8,459.1c0.1,0,0.2,0,0.3,0
		c0.2,0,0.4,0,0.7-0.1c0.2-0.1,0.5-0.2,0.8-0.4c0-0.2,0-0.3,0-0.4c0-2,0-3.2-0.1-3.6c-0.1-0.5-0.3-1-0.6-1.3
		c-0.3-0.3-0.8-0.4-1.2-0.4c-0.3,0-0.5,0.1-0.8,0.2c-0.2,0.1-0.5,0.2-0.6,0.4c-0.2,0.3-0.4,0.6-0.5,0.9c-0.2,0.5-0.2,0.9-0.2,1.4
		c0,1,0.2,1.8,0.7,2.4C165.6,458.7,166.1,459,166.8,459.1z"/>
	<path class="st0" d="M177.7,460.1v-0.7c0.1,0,0.3-0.1,0.6-0.2c0.4-0.1,0.7-0.2,0.9-0.3c0.1-0.2,0.2-0.5,0.2-0.8l0-1.1l0-2.2l0-0.5
		c0-1.2,0.1-1.9,0.1-1.9l0-1.3l0-0.5l0-1.1l0-0.4c0-0.1,0-0.2-0.1-0.3c-0.3-0.1-0.7-0.2-1.3-0.2c-0.1,0-0.2,0-0.3,0l0-0.8l2.7,0.1
		c0.3,0,0.5,0,0.6,0c0.4,0,1,0,1.8-0.1c0.5,0,0.7-0.1,0.9-0.1c0,0.1,0,0.2,0,0.3c0,0.1,0,0.2,0,0.4c-0.3,0.1-0.5,0.2-0.9,0.2
		c-0.3,0.1-0.6,0.2-0.8,0.2c0,0.2-0.1,0.4-0.1,0.7c0,0.3,0,0.5,0,0.7c0,1.1,0,1.9,0,2.5l0,2.5l0,1.3l0,1.9l0,0.4
		c0,0.1,0,0.1,0.1,0.2c0.4,0.1,0.7,0.1,1,0.2c0.1,0,0.2,0,0.6,0.1c0,0.2,0,0.3,0,0.5c0,0.1,0,0.2,0,0.3c-0.1,0-0.1,0-0.2,0
		c-0.2,0-0.3,0-0.3,0c0,0-0.1,0-0.2,0c-0.1,0-0.5-0.1-1.3-0.1l-1.7,0c-0.3,0-0.8,0-1.5,0.1C178.1,460,177.8,460,177.7,460.1z"/>
	<path class="st0" d="M185,459.6c0.2-0.1,0.3-0.1,0.5-0.2c0.3-0.1,0.5-0.1,0.6-0.1c0.1-0.1,0.2-0.1,0.2-0.2c0-0.1,0.1-0.4,0.1-0.8
		v-0.8l0-0.7l0-1v-0.6c0-0.4,0-0.7-0.1-1c0-0.1-0.1-0.2-0.2-0.3c-0.2-0.1-0.5-0.2-0.9-0.4l0-0.5c0.1,0,0.2,0,0.2-0.1
		c0.1,0,0.3-0.1,0.8-0.2c0.3-0.1,0.6-0.2,0.7-0.3c0,0,0.1,0,0.2-0.1c0.1-0.1,0.2-0.1,0.3-0.2c0.2-0.1,0.4-0.4,0.7-0.7l0.5,0l0,1.1
		c0,0.1,0,0.2,0,0.3c0,0,0,0.2,0,0.4c0.5-0.5,1-0.8,1.4-0.9c0.6-0.2,1.1-0.4,1.6-0.4c0.6,0,1.1,0.1,1.6,0.4c0.4,0.3,0.7,0.6,0.9,1
		c0.1,0.4,0.2,1.2,0.2,2.3l0,3.1c0,0.1,0,0.3,0.1,0.4c0.1,0,0.2,0.1,0.5,0.1l0.5,0.1c0.1,0.1,0.1,0.2,0.1,0.3c0,0.1,0,0.2,0,0.3
		l-1.9-0.1l-0.5,0h-0.4l-1.2,0.1h-0.3c0-0.1,0-0.1,0-0.2c0-0.1,0-0.2,0-0.4c0.1,0,0.3-0.1,0.7-0.1c0.1,0,0.2,0,0.3-0.1
		c0.1-0.1,0.2-0.1,0.2-0.2c0.1-0.1,0.1-0.3,0.1-0.6c0-0.5,0-0.9,0-1.2l0-1.1c0-1.3-0.1-2.2-0.3-2.5c-0.2-0.5-0.6-0.7-1.1-0.7
		c-0.4,0-0.7,0.1-1.1,0.3c-0.4,0.2-0.8,0.5-1.2,0.8l0,0.2l0,0.6l0,0.6l0,1.5l0,0.2c0,1,0,1.6,0.1,1.7c0.1,0.1,0.4,0.3,0.9,0.4
		c0,0.1,0,0.2,0,0.2c0,0.1,0,0.2-0.1,0.4c-0.2,0-0.4,0-0.5,0c-0.1,0-0.3,0-0.6-0.1l-1,0c-0.5,0-1.2,0-2.2,0.1c0-0.1,0-0.1,0-0.2
		C185,459.8,185,459.7,185,459.6z"/>
	<path class="st0" d="M195.8,460.1l0-0.5c0.1,0,0.3-0.1,0.7-0.2c0.3-0.1,0.5-0.2,0.6-0.2c0.1-0.1,0.1-0.2,0.1-0.3v-0.2
		c0-0.6,0-0.9,0-1c0-0.1,0-0.1,0-0.2l0-0.1l0-0.1V457l-0.1-1.6l0-1.8l0-0.2c-0.1,0-0.3,0-0.5,0H196c0,0-0.1,0-0.2,0
		c0-0.2,0-0.3,0-0.4c0-0.2,0-0.3,0.1-0.4c0.2,0,0.6,0,1.1-0.1c0-0.8,0.1-1.5,0.4-2.1c0.2-0.7,0.5-1.2,0.8-1.6l0.2-0.3
		c0.4-0.4,0.8-0.6,1.1-0.7c0.4-0.1,0.8-0.2,1.2-0.2c0.5,0,0.9,0.1,1.2,0.2s0.5,0.3,0.6,0.6c0.1,0.2,0.2,0.5,0.2,0.7
		c0,0.3-0.1,0.5-0.3,0.7c-0.2,0.2-0.4,0.3-0.7,0.3c-0.2,0-0.4-0.1-0.6-0.2c-0.1-0.1-0.3-0.3-0.5-0.6c-0.2-0.3-0.3-0.5-0.4-0.6
		c-0.1-0.1-0.2-0.1-0.4-0.1c-0.2,0-0.4,0.1-0.5,0.2c-0.1,0.2-0.2,0.4-0.3,0.7c-0.1,0.3-0.1,0.8-0.1,1.7l0,1l0,0.3l0.2,0l1.1,0
		c0.1,0,0.1,0,0.3,0c0.1,0.1,0.1,0.1,0.1,0.2l0,0.2v0.3c0,0,0,0.1,0,0.2c-0.1,0-0.1,0-0.2,0h-0.1l-0.7,0c-0.1,0-0.2,0-0.3,0h-0.1
		c-0.1,0-0.2,0-0.3,0l0,0.5c0,0,0,0.1,0,0.2c0,0.4,0,0.6,0,0.7l0,1.4l0,1l0,0.8c0,0.6,0,0.9,0.2,1c0.2,0.2,0.6,0.3,1.1,0.4
		c0.1,0,0.2,0,0.3,0.1c0,0.2,0,0.2,0,0.3c0,0.1,0,0.2,0,0.3h-0.7c-0.1,0-0.4,0-1.1-0.1l-0.5,0c-0.5,0-0.9,0-1.1,0
		C197.2,460,196.7,460,195.8,460.1z"/>
	<path class="st0" d="M209.5,453.2c0.4,0.4,0.7,0.8,0.9,1.3c0.2,0.5,0.3,1,0.3,1.4c0,0.8-0.1,1.5-0.4,2c-0.4,0.8-0.9,1.4-1.6,1.7
		c-0.7,0.4-1.4,0.6-2.3,0.6c-1,0-1.8-0.2-2.5-0.7c-0.7-0.4-1.2-0.9-1.5-1.5c-0.3-0.6-0.4-1.3-0.4-2.1c0-0.4,0.1-0.8,0.2-1.3
		c0.1-0.4,0.3-0.8,0.6-1.1c0.2-0.3,0.5-0.6,0.8-0.8c0.4-0.3,0.8-0.5,1.3-0.6c0.4-0.1,0.9-0.2,1.5-0.2
		C207.7,452,208.8,452.4,209.5,453.2z M204.3,456.4c0.1,0.8,0.1,1.2,0.1,1.4c0.1,0.4,0.2,0.8,0.4,1.1c0.1,0.2,0.3,0.4,0.6,0.5
		c0.3,0.2,0.6,0.2,1,0.2c0.5,0,0.8-0.1,1.2-0.4c0.3-0.3,0.5-0.8,0.7-1.4c0.1-0.4,0.1-1.1,0.1-2c0-1.1-0.2-2-0.6-2.4
		c-0.4-0.5-0.9-0.7-1.5-0.7c-0.5,0-0.9,0.1-1.2,0.4c-0.3,0.3-0.5,0.7-0.7,1.2C204.4,454.6,204.4,455.3,204.3,456.4z"/>
	<path class="st0" d="M211.8,459.6c0.1-0.1,0.2-0.1,0.3-0.2c0.3-0.1,0.6-0.2,0.9-0.4c0.1-0.2,0.1-0.7,0.1-1.5c0-1.6,0-2.7-0.1-3.2
		c0-0.1-0.1-0.2-0.2-0.3c-0.2-0.1-0.4-0.2-0.6-0.2c-0.1,0-0.2-0.1-0.2-0.2l0-0.4c0.5-0.1,0.9-0.2,1.3-0.5c0.4-0.3,0.7-0.5,0.9-0.8
		c0.1-0.1,0.2-0.3,0.3-0.3l0.7,0c0,0.1,0,0.3,0,0.4c0,0.1,0,0.2,0,0.3c0,0.2,0,0.4,0,0.5c0,0.1,0,0.3,0,0.8c0.3-0.4,0.4-0.7,0.6-0.9
		c0.1-0.1,0.2-0.2,0.5-0.5c0.2-0.2,0.5-0.2,0.7-0.2c0.3,0,0.6,0.1,0.9,0.3c0.2,0.2,0.4,0.5,0.4,0.8c0,0.3-0.1,0.6-0.3,0.8
		c-0.2,0.2-0.4,0.4-0.7,0.4c-0.3,0-0.6-0.1-0.9-0.3c-0.2-0.1-0.3-0.2-0.4-0.2l-0.1,0c-0.1,0-0.3,0.2-0.4,0.4c-0.2,0.3-0.3,0.6-0.3,1
		l0,0.3c0,0.5,0,1.6,0.1,3.3c0,0.2,0.1,0.3,0.2,0.5c0.1,0.1,0.2,0.1,0.3,0.2c0.1,0,0.3,0.1,0.6,0.1c0.3,0,0.5,0.1,0.5,0.1
		c0.1,0.1,0.1,0.1,0.1,0.3c0,0.1,0,0.2-0.1,0.3H216l-1.8-0.1c-0.5,0-0.9,0-1.2,0.1h-0.2c0,0-0.4,0-1,0c0-0.1,0-0.2,0-0.2
		C211.7,459.7,211.7,459.7,211.8,459.6z"/>
	<path class="st0" d="M219.3,459.4c0.1,0,0.1,0,0.2,0c0.4,0,0.7-0.1,0.9-0.2c0,0,0.1-0.1,0.1-0.1c0-0.1,0-0.6,0.1-1.7v-0.5l0-1l0-1
		v-0.2c0-0.3-0.1-0.5-0.2-0.7c-0.1-0.1-0.5-0.3-1.1-0.5v-0.4c0.1,0,0.3-0.1,0.4-0.1c0.6-0.1,1.1-0.3,1.4-0.5
		c0.3-0.2,0.6-0.4,0.9-0.8h0.5v0.2l0,0.8l0,0.3l0,0.2c0.6-0.5,1.1-0.8,1.5-0.9c0.4-0.2,0.9-0.2,1.4-0.2c0.5,0,1,0.1,1.4,0.3
		c0.5,0.2,0.8,0.6,1.2,1.1c0.4-0.4,0.8-0.7,1.1-0.9c0.2-0.1,0.5-0.2,0.9-0.3c0.4-0.1,0.7-0.1,1-0.1c0.9,0,1.6,0.3,2.1,0.8
		c0.5,0.5,0.8,1.3,0.8,2.2v1.5c0,0.3,0,0.8,0,1.6v0.7c0,0.1,0,0.2,0.1,0.4c0.2,0.1,0.5,0.2,0.6,0.2c0.1,0,0.2,0.1,0.4,0.1
		c0,0.1,0,0.2,0,0.3l0,0.2c-0.2,0-0.3,0-0.4,0c0,0-0.2,0-0.5,0c-0.3,0-0.6,0-1,0c-1,0-1.7,0-2.3,0.1c0-0.2-0.1-0.3-0.1-0.4l0-0.1
		c0.1,0,0.4-0.2,0.8-0.3c0.1-0.1,0.1-0.2,0.1-0.2c0-0.2,0-0.5,0-1l0-2.7c0-0.4,0-0.8-0.1-1.1c-0.1-0.3-0.2-0.5-0.3-0.7
		c-0.1-0.2-0.3-0.3-0.5-0.4c-0.2-0.1-0.4-0.2-0.7-0.2c-0.4,0-0.7,0.1-1.1,0.3c-0.4,0.2-0.7,0.5-1,0.9l0,0.3l0,1.2l0,1v0.9l0,0.8
		c0,0.4,0,0.7,0.1,0.7c0.1,0.1,0.4,0.2,0.9,0.3l0.3,0.1c0.1,0.1,0.1,0.3,0.1,0.3c0,0,0,0.1,0,0.2l-0.3,0h-0.4l-0.2,0
		c-0.4,0-0.9-0.1-1.4-0.1l-1,0c-0.2,0-0.7,0-1.3,0.1l-0.2,0l0-0.6c0.2-0.1,0.5-0.1,1-0.1c0,0,0.1,0,0.1,0c0.1-0.1,0.1-0.1,0.1-0.2
		c0-0.1,0-0.4,0-0.8l0-1.9l0-0.5c0-1,0-1.6-0.1-1.8c-0.1-0.3-0.3-0.5-0.6-0.7c-0.3-0.2-0.6-0.3-1-0.3c-0.5,0-1,0.1-1.3,0.4
		c-0.4,0.2-0.6,0.5-0.7,0.6c0,0.1,0,0.1,0,0.2l0,0.1v0.1c0,0.1,0,0.1-0.1,0.3l0,2.7l0,1.4c0,0.1,0,0.1,0,0.2l0,0.1
		c0.2,0.1,0.3,0.1,0.5,0.1c0.2,0.1,0.4,0.1,0.5,0.2c0,0.1,0,0.2,0,0.2c0,0.1,0,0.2-0.1,0.3c-0.1,0-0.2,0-0.2,0c-0.1,0-0.4,0-0.9-0.1
		l-1,0c-0.5,0-1.1,0-1.8,0.1l-0.3,0c0-0.1,0-0.2,0-0.3C219.2,459.6,219.3,459.5,219.3,459.4z"/>
	<path class="st0" d="M243.9,458.3l0.2,0.1c0.1,0,0.1,0.1,0.1,0.2l0,0c-0.2,0.6-0.4,0.9-0.6,1.2c-0.2,0.2-0.5,0.3-0.9,0.3
		c-0.4,0-0.7-0.1-1-0.3c-0.3-0.2-0.5-0.6-0.7-1.1c-0.3,0.5-0.7,0.8-1.1,1.1c-0.5,0.2-1.1,0.4-1.8,0.4c-0.7,0-1.1-0.1-1.4-0.4
		c-0.3-0.3-0.5-0.6-0.5-1.1c0-0.2,0-0.4,0.1-0.6c0.1-0.2,0.2-0.4,0.4-0.6s0.5-0.4,1-0.7c0.1,0,0.3-0.1,0.7-0.3l2.4-0.9
		c0-0.2,0-0.5,0-0.7c0-0.9-0.1-1.4-0.3-1.7c-0.1-0.2-0.3-0.3-0.7-0.3c-0.3,0-0.6,0.1-0.9,0.2c-0.3,0.1-0.5,0.3-0.6,0.5
		c-0.1,0.1-0.2,0.4-0.2,0.8c0,0.3-0.1,0.4-0.1,0.5c-0.1,0.1-0.3,0.2-0.5,0.3c-0.2,0.1-0.4,0.2-0.5,0.2c-0.3,0.2-0.6,0.2-0.8,0.2
		c-0.1-0.1-0.1-0.2-0.1-0.3c0-0.4,0.1-0.7,0.2-0.9c0.2-0.4,0.6-0.7,1-1.1c0.5-0.3,0.9-0.6,1.3-0.7c0.5-0.2,1.2-0.3,2-0.3
		c0.5,0,0.9,0.1,1.3,0.3c0.4,0.2,0.6,0.5,0.8,0.8c0.1,0.4,0.2,1,0.2,2l0,1.6l0,1.1v0.3c0,0.3,0,0.4,0.1,0.5c0.1,0.1,0.2,0.1,0.3,0.1
		c0.1,0,0.1,0,0.2-0.1l0.3-0.4L243.9,458.3z M240.8,456.1c-0.4,0.1-0.8,0.3-1.2,0.6c-0.5,0.3-0.8,0.6-0.9,0.8
		c-0.1,0.2-0.2,0.5-0.2,0.8c0,0.3,0.1,0.5,0.2,0.7c0.2,0.2,0.4,0.3,0.6,0.3c0.4,0,0.7-0.1,0.9-0.3c0.3-0.3,0.5-0.5,0.6-0.6
		s0.1-0.6,0.1-1.4C240.8,456.6,240.8,456.4,240.8,456.1z"/>
	<path class="st0" d="M245,452.9c0.7-0.3,1.3-0.6,1.6-0.9c0.3-0.3,0.7-0.8,1.1-1.5h0.5c0.1,0.2,0.1,0.3,0.1,0.5c0,0.3,0,0.6,0,0.8
		l0,0.6c0,0,0,0.1,0,0.2l0.2,0c0,0,0.3,0,0.9,0c0,0,0.3,0,0.7,0c0,0.2,0.1,0.3,0.1,0.4c0,0.1,0,0.3-0.1,0.5c-0.2,0-0.4,0.1-0.5,0.1
		c0,0-0.2,0-0.3,0h-0.5l-0.2,0l-0.5,0l0,3.6c0,0.7,0,1.1,0,1.3c0,0.2,0.1,0.3,0.2,0.5c0.1,0.1,0.3,0.1,0.5,0.1c0.2,0,0.3,0,0.4,0
		c0.1,0,0.2-0.1,0.4-0.3c0,0,0.1-0.1,0.2-0.1c0.2,0.1,0.3,0.2,0.4,0.4l0,0.1c-0.2,0.3-0.5,0.6-0.9,0.8c-0.4,0.2-0.8,0.3-1.3,0.3
		c-0.6,0-1.1-0.2-1.4-0.6c-0.4-0.4-0.5-0.9-0.5-1.7l0-1.7v-2.7l-0.3,0l-0.7,0l-0.1,0c0-0.1-0.1-0.1-0.1-0.2
		C245,453.3,245,453.1,245,452.9z"/>
	<path class="st0" d="M250.8,460.1l0-0.6l1.1-0.1c0.2,0,0.3-0.1,0.3-0.2c0.1-0.1,0.1-0.3,0.1-0.6v-0.1c0-0.1,0-0.2,0-0.4
		c0-0.2,0-0.4,0-0.5c0-0.1,0-0.3,0-0.7l0-0.5l0-0.4l0-1.5c0-0.2,0-0.4-0.1-0.6c-0.1-0.1-0.2-0.2-0.4-0.2c-0.2-0.1-0.5-0.1-1-0.2
		v-0.5c0.6,0,1.2-0.2,1.7-0.4c0.3-0.2,0.7-0.4,1.1-0.8h0.6c0,0.8,0,1.8,0,3l-0.1,3.9c0,0.3,0,0.5,0,0.7c0.2,0.1,0.5,0.1,1,0.2
		c0.2,0,0.3,0.1,0.4,0.1l0,0.5c-0.2,0-0.3,0-0.4,0c-0.1,0-0.2,0-0.4,0c-0.6,0-1.5,0-2.6,0c-0.3,0-0.6,0-0.9,0
		C251.1,460,250.9,460.1,250.8,460.1z M252.1,448.8c0-0.3,0.1-0.6,0.3-0.8c0.2-0.2,0.5-0.3,0.8-0.3c0.4,0,0.7,0.1,0.9,0.3
		c0.2,0.2,0.4,0.5,0.4,0.8c0,0.2,0,0.4-0.1,0.6c-0.1,0.2-0.3,0.4-0.5,0.5c-0.2,0.1-0.4,0.2-0.6,0.2c-0.3,0-0.6-0.1-0.8-0.4
		C252.2,449.5,252.1,449.1,252.1,448.8z"/>
	<path class="st0" d="M264.1,453.2c0.4,0.4,0.7,0.8,0.9,1.3c0.2,0.5,0.3,1,0.3,1.4c0,0.8-0.1,1.5-0.4,2c-0.4,0.8-0.9,1.4-1.6,1.7
		c-0.7,0.4-1.4,0.6-2.3,0.6c-1,0-1.8-0.2-2.5-0.7c-0.7-0.4-1.2-0.9-1.5-1.5c-0.3-0.6-0.4-1.3-0.4-2.1c0-0.4,0.1-0.8,0.2-1.3
		c0.1-0.4,0.3-0.8,0.6-1.1c0.2-0.3,0.5-0.6,0.8-0.8c0.4-0.3,0.8-0.5,1.3-0.6c0.4-0.1,0.9-0.2,1.5-0.2
		C262.3,452,263.4,452.4,264.1,453.2z M258.9,456.4c0.1,0.8,0.1,1.2,0.1,1.4c0.1,0.4,0.2,0.8,0.4,1.1c0.1,0.2,0.3,0.4,0.6,0.5
		c0.3,0.2,0.6,0.2,1,0.2c0.5,0,0.8-0.1,1.2-0.4c0.3-0.3,0.5-0.8,0.7-1.4c0.1-0.4,0.1-1.1,0.1-2c0-1.1-0.2-2-0.6-2.4
		c-0.4-0.5-0.9-0.7-1.5-0.7c-0.5,0-0.9,0.1-1.2,0.4c-0.3,0.3-0.5,0.7-0.7,1.2C259,454.6,259,455.3,258.9,456.4z"/>
	<path class="st0" d="M266.4,459.6c0.2-0.1,0.3-0.1,0.5-0.2c0.3-0.1,0.5-0.1,0.6-0.1c0.1-0.1,0.2-0.1,0.2-0.2c0-0.1,0.1-0.4,0.1-0.8
		v-0.8l0-0.7l0-1v-0.6c0-0.4,0-0.7-0.1-1c0-0.1-0.1-0.2-0.2-0.3c-0.2-0.1-0.5-0.2-0.9-0.4l0-0.5c0.1,0,0.2,0,0.2-0.1
		c0.1,0,0.3-0.1,0.8-0.2c0.3-0.1,0.6-0.2,0.7-0.3c0,0,0.1,0,0.2-0.1c0.1-0.1,0.2-0.1,0.3-0.2c0.2-0.1,0.4-0.4,0.7-0.7l0.5,0l0,1.1
		c0,0.1,0,0.2,0,0.3c0,0,0,0.2,0,0.4c0.5-0.5,1-0.8,1.4-0.9c0.6-0.2,1.1-0.4,1.6-0.4c0.6,0,1.1,0.1,1.6,0.4c0.4,0.3,0.7,0.6,0.9,1
		c0.1,0.4,0.2,1.2,0.2,2.3l0,3.1c0,0.1,0,0.3,0.1,0.4c0.1,0,0.2,0.1,0.5,0.1l0.5,0.1c0.1,0.1,0.1,0.2,0.1,0.3c0,0.1,0,0.2,0,0.3
		l-1.9-0.1l-0.5,0h-0.4l-1.2,0.1H272c0-0.1,0-0.1,0-0.2c0-0.1,0-0.2,0-0.4c0.1,0,0.3-0.1,0.7-0.1c0.1,0,0.2,0,0.3-0.1
		c0.1-0.1,0.2-0.1,0.2-0.2c0-0.1,0.1-0.3,0.1-0.6c0-0.5,0-0.9,0-1.2l0-1.1c0-1.3-0.1-2.2-0.3-2.5c-0.2-0.5-0.6-0.7-1.1-0.7
		c-0.4,0-0.7,0.1-1.1,0.3c-0.4,0.2-0.8,0.5-1.2,0.8l0,0.2l0,0.6l0,0.6l0,1.5l0,0.2c0,1,0,1.6,0.1,1.7c0.1,0.1,0.4,0.3,0.9,0.4
		c0,0.1,0,0.2,0,0.2c0,0.1,0,0.2-0.1,0.4c-0.2,0-0.4,0-0.5,0s-0.3,0-0.6-0.1l-1,0c-0.5,0-1.2,0-2.2,0.1c0-0.1,0-0.1,0-0.2
		C266.4,459.8,266.4,459.7,266.4,459.6z"/>
</g>
</svg>
