<?xml version="1.0" encoding="utf-8"?>
<!-- Generator: Adobe Illustrator 18.0.0, SVG Export Plug-In . SVG Version: 6.00 Build 0)  -->
<!DOCTYPE svg PUBLIC "-//W3C//DTD SVG 1.1//EN" "http://www.w3.org/Graphics/SVG/1.1/DTD/svg11.dtd">
<svg version="1.1" id="Layer_1" xmlns="http://www.w3.org/2000/svg" xmlns:xlink="http://www.w3.org/1999/xlink" x="0px" y="0px"
	 viewBox="0 0 502 502" enable-background="new 0 0 502 502" xml:space="preserve">
<g>
	<path fill="#1C60AB" d="M445.2,378.9H56.8c-12.8,0-23.2-10.4-23.2-23.2V97c0-12.8,10.4-23.2,23.2-23.2h388.5
		c12.8,0,23.2,10.4,23.2,23.2v258.8C468.4,368.5,458,378.9,445.2,378.9z"/>
	<path fill="#007ABE" d="M33.6,332.8v23c0,12.8,10.4,23.2,23.2,23.2h388.5c12.8,0,23.2-10.4,23.2-23.2v-23H33.6z"/>
	<rect x="60.9" y="101.1" fill="#07A7E0" width="380.5" height="203.4"/>
	<path fill="#1C60AB" d="M303.1,428.2H198.9c-7.9,0-13.7-7.5-11.7-15.1l11.8-34.2h104l11.8,34.2C316.8,420.7,311,428.2,303.1,428.2z
		"/>
	<polygon fill="#57B4E2" points="218.6,304.6 118.4,304.6 203,101.1 303.1,101.1 	"/>
	<polygon fill="#57B4E2" points="299.6,304.6 259.8,304.6 344.4,101.1 384.2,101.1 	"/>
</g>
</svg>
