<?xml version="1.0" encoding="utf-8"?>
<!-- Generator: Adobe Illustrator 18.0.0, SVG Export Plug-In . SVG Version: 6.00 Build 0)  -->
<!DOCTYPE svg PUBLIC "-//W3C//DTD SVG 1.1//EN" "http://www.w3.org/Graphics/SVG/1.1/DTD/svg11.dtd">
<svg version="1.1" id="Layer_1" xmlns="http://www.w3.org/2000/svg" xmlns:xlink="http://www.w3.org/1999/xlink" x="0px" y="0px"
	 viewBox="0 0 1000 1000" enable-background="new 0 0 1000 1000" xml:space="preserve">
<circle fill="#BCBEC0" cx="500" cy="500" r="326.8"/>
<g>
	<path fill="#1C60AB" d="M492.5,704.4c-54.2,0-101.3,30.3-125.3,74.9c24,44.6,71.1,74.9,125.3,74.9s101.3-30.3,125.3-74.9
		C593.8,734.7,546.7,704.4,492.5,704.4z"/>
	<circle fill="#FFFFFF" cx="492.5" cy="779.3" r="50.9"/>
	<circle fill="#07A7E0" cx="492.5" cy="779.3" r="15.2"/>
</g>
<g>
	<path fill="#07A7E0" d="M633,434.1h164.4c33.2,0,60.1,26.9,60.1,60.1v89c0,33.2-26.9,60.1-60.1,60.1h-73.7
		c0,25.5-20.7,46.2-46.2,46.2c0-25.5-20.7-46.2-46.2-46.2h1.7c-33.2,0-60.1-26.9-60.1-60.1v-89C572.9,461,599.8,434.1,633,434.1z"/>
	<circle fill="#FFFFFF" cx="715.2" cy="538.7" r="23.9"/>
	<circle fill="#FFFFFF" cx="786.2" cy="538.7" r="23.9"/>
	<circle fill="#FFFFFF" cx="644.2" cy="538.7" r="23.9"/>
</g>
<g>
	<path fill="#007ABE" d="M685.7,342.8h-93.4c-23,0-41.7-18.7-41.7-41.7v-93.4c0-23,18.7-41.7,41.7-41.7h93.4
		c23,0,41.7,18.7,41.7,41.7v93.4C727.4,324.1,708.7,342.8,685.7,342.8z"/>
	<circle fill="#1C60AB" stroke="#57B4E2" stroke-width="21.0701" stroke-miterlimit="10" cx="639" cy="254.4" r="50.6"/>
	<path fill="#1C60AB" d="M677.1,387.5h-76.3c-7.2,0-12.4-6.8-10.6-13.7l10.7-31h76.1l10.7,31C689.6,380.7,684.3,387.5,677.1,387.5z"
		/>
	<circle fill="#07A7E0" cx="639" cy="254.4" r="19"/>
	<path fill="#FFFFFF" d="M639,254.4v-28c-15.4,0-28,12.5-28,28H639z"/>
</g>
<polygon fill="#57B4E2" points="292.8,583.9 271.8,583.9 419.2,260.5 440.2,260.5 "/>
<g>
	<g>
		<path fill="#1C60AB" d="M425.2,644H206.5c-22.1,0-40-17.9-40-40V238.3c0-22.1,17.9-40,40-40h218.7c22.1,0,40,17.9,40,40v365.8
			C465.2,626.1,447.3,644,425.2,644z"/>
		<rect x="190.5" y="259.5" fill="#07A7E0" width="250.7" height="323.4"/>
		<polygon fill="#57B4E2" points="247.8,582.9 190.5,582.9 337.9,259.5 395.2,259.5 		"/>
		<path fill="#FFFFFF" d="M328.5,604.9c8.8,14.9-6.6,30.4-21.6,21.6c-1.5-0.9-2.8-2.2-3.7-3.7c-8.8-14.9,6.6-30.4,21.6-21.6
			C326.3,602.1,327.6,603.4,328.5,604.9z"/>
	</g>
	<g>
		<path fill="#1C60AB" d="M473.2,674.8h-99.6c-15.3,0-27.7-12.4-27.7-27.7V414.4c0-15.3,12.4-27.7,27.7-27.7h99.6
			c15.3,0,27.7,12.4,27.7,27.7v232.7C500.8,662.4,488.4,674.8,473.2,674.8z"/>
		<rect x="362.2" y="439.1" fill="#07A7E0" width="122.3" height="183.2"/>
		<path fill="#FFFFFF" d="M436,640c8.8,14.9-6.6,30.4-21.6,21.6c-1.5-0.9-2.8-2.2-3.7-3.7c-8.8-14.9,6.6-30.4,21.6-21.6
			C433.8,637.2,435.1,638.5,436,640z"/>
		<polygon fill="#57B4E2" points="402,622.3 362.2,622.3 444.7,439.1 484.5,439.1 		"/>
	</g>
</g>
</svg>
