<?xml version="1.0" encoding="utf-8"?>
<!-- Generator: Adobe Illustrator 18.0.0, SVG Export Plug-In . SVG Version: 6.00 Build 0)  -->
<!DOCTYPE svg PUBLIC "-//W3C//DTD SVG 1.1//EN" "http://www.w3.org/Graphics/SVG/1.1/DTD/svg11.dtd">
<svg version="1.1" id="Layer_1" xmlns="http://www.w3.org/2000/svg" xmlns:xlink="http://www.w3.org/1999/xlink" x="0px" y="0px"
	 viewBox="0 0 45 45" enable-background="new 0 0 45 45" xml:space="preserve">
<g>
	<path fill="#1A5EAB" d="M27,30.2v4.7c0,1-0.3,1.5-0.9,1.5c-0.3,0-0.7-0.2-1-0.5v-6.7c0.3-0.3,0.7-0.5,1-0.5
		C26.7,28.7,27,29.2,27,30.2z M34.5,30.2v1h-2v-1c0-1,0.3-1.5,1-1.5C34.1,28.7,34.5,29.2,34.5,30.2z M13.1,25.4h2.4v-2.1H8.6v2.1
		h2.3V38h2.2V25.4z M19.5,38h2V27.1h-2v8.4c-0.4,0.6-0.9,0.9-1.3,0.9c-0.3,0-0.4-0.2-0.5-0.5c0,0,0-0.3,0-0.8v-8h-2v8.6
		c0,0.7,0.1,1.3,0.2,1.6c0.2,0.5,0.6,0.8,1.3,0.8c0.7,0,1.5-0.4,2.3-1.3V38z M29,34.7v-4.4c0-1.1-0.1-1.8-0.2-2.2
		c-0.3-0.8-0.8-1.2-1.6-1.2c-0.7,0-1.4,0.4-2.1,1.2v-4.8h-2V38h2v-1.1c0.7,0.8,1.3,1.2,2.1,1.2c0.8,0,1.3-0.4,1.6-1.2
		C28.9,36.5,29,35.8,29,34.7z M36.4,34.5v-0.3h-2c0,0.8,0,1.2,0,1.3c-0.1,0.5-0.4,0.8-0.9,0.8c-0.7,0-1-0.5-1-1.5v-1.9h4v-2.3
		c0-1.2-0.2-2-0.6-2.6c-0.6-0.8-1.4-1.1-2.3-1.1c-1,0-1.8,0.4-2.4,1.1c-0.4,0.5-0.6,1.4-0.6,2.6v3.8c0,1.2,0.2,2,0.6,2.6
		c0.6,0.8,1.4,1.1,2.4,1.1c1.1,0,1.9-0.4,2.4-1.2c0.3-0.4,0.4-0.8,0.5-1.2C36.4,35.6,36.4,35.2,36.4,34.5z M23,14.3V9.7
		c0-1-0.3-1.5-1-1.5s-1,0.5-1,1.5v4.6c0,1,0.3,1.5,1,1.5S23,15.3,23,14.3z M38.9,30.9c0,3.4-0.2,6-0.6,7.7c-0.2,0.9-0.6,1.6-1.3,2.2
		c-0.6,0.6-1.4,0.9-2.3,1c-2.7,0.3-6.8,0.5-12.3,0.5s-9.6-0.2-12.3-0.5c-0.9-0.1-1.6-0.4-2.3-1c-0.7-0.6-1.1-1.3-1.3-2.2
		c-0.4-1.7-0.6-4.2-0.6-7.7c0-3.4,0.2-6,0.6-7.7C6.9,22.3,7.3,21.6,8,21c0.6-0.6,1.4-0.9,2.3-1c2.7-0.3,6.8-0.4,12.2-0.4
		s9.6,0.1,12.3,0.4c0.9,0.1,1.6,0.4,2.3,1c0.7,0.6,1.1,1.3,1.3,2.2C38.7,24.8,38.9,27.4,38.9,30.9z M16.8,2.7h2.3l-2.7,8.8v6h-2.2
		v-6c-0.2-1.1-0.7-2.7-1.3-4.7c-0.5-1.5-1-2.9-1.4-4.1h2.3l1.6,5.8L16.8,2.7z M25,10.1v3.9c0,1.2-0.2,2.1-0.6,2.6
		c-0.5,0.8-1.3,1.1-2.3,1.1c-1,0-1.8-0.4-2.3-1.1c-0.4-0.6-0.6-1.4-0.6-2.6v-3.9c0-1.2,0.2-2,0.6-2.6C20.3,6.7,21,6.3,22,6.3
		c1,0,1.8,0.4,2.3,1.1C24.8,8,25,8.9,25,10.1z M32.4,6.5v11h-2v-1.2c-0.8,0.9-1.5,1.4-2.3,1.4c-0.7,0-1.1-0.3-1.3-0.8
		c-0.1-0.4-0.2-0.9-0.2-1.7V6.5h2v8.1c0,0.5,0,0.7,0,0.8c0,0.3,0.2,0.5,0.5,0.5c0.4,0,0.8-0.3,1.3-1V6.5H32.4z"/>
</g>
</svg>
